<svg width="40" height="49" viewBox="0 0 40 49" fill="none" xmlns="http://www.w3.org/2000/svg">
<path d="M40 20.0455C40 35.6364 20 49 20 49C20 49 0 35.6364 0 20.0455C7.90407e-08 14.7291 2.10714 9.63043 5.85786 5.87118C9.60859 2.11193 14.6957 0 20 0C25.3043 0 30.3914 2.11193 34.1421 5.87118C37.8929 9.63043 40 14.7291 40 20.0455Z" fill="#A6B720"/>
<path d="M18.2051 8.00005C21.3206 8.00005 23.8462 9.9471 23.8462 12.3489C23.8462 14.2288 22.2945 15.8268 20.1282 16.4339C19.8102 15.6743 19.4277 14.9029 18.9503 14.1236C18.9114 14.0598 18.859 14.0053 18.7967 13.9638C18.7344 13.9224 18.6638 13.8951 18.5897 13.8838C18.5686 13.8798 18.5472 13.8771 18.5256 13.8758C18.444 13.8734 18.363 13.8905 18.2893 13.9257C18.2156 13.9608 18.1514 14.013 18.102 14.078C18.0526 14.1429 18.0195 14.2186 18.0054 14.2989C17.9913 14.3791 17.9966 14.4616 18.0208 14.5394C18.2445 15.2991 18.4402 16.0065 18.6058 16.6818C18.4729 16.689 18.3403 16.6977 18.2051 16.6977C15.0897 16.6977 12.5641 14.7506 12.5641 12.3488C12.5641 9.94705 15.0897 8 18.2051 8V8.00005ZM18.5176 14.3954C21.9097 19.932 20.7935 24.8758 20.5529 29.9921L16.8189 30C20.2991 24.6258 20.5504 21.2989 18.5176 14.3953V14.3954ZM25.8974 15.9303C28.1632 15.9303 30 17.1902 30 18.7442C30 20.2983 28.1632 21.5582 25.8974 21.5582C25.0921 21.5582 24.3437 21.4015 23.7099 21.1265C23.8434 20.7408 23.9637 20.3603 24.0705 19.9913C24.079 19.9625 24.0944 19.9321 24.1026 19.9034C24.1228 19.8316 24.1271 19.7563 24.1151 19.6827C24.1031 19.6091 24.0752 19.5391 24.0332 19.4774C23.9912 19.4157 23.9362 19.3639 23.8721 19.3257C23.8079 19.2874 23.7362 19.2636 23.6619 19.2559C23.5593 19.2465 23.4563 19.2682 23.3662 19.3181C23.2762 19.3681 23.2033 19.4439 23.1571 19.5357C22.9868 19.8754 22.8216 20.1824 22.6523 20.463C22.1163 19.9875 21.7949 19.3918 21.7949 18.7442C21.7949 17.1902 23.6317 15.9303 25.8974 15.9303ZM14.1026 18.7442C16.3684 18.7442 18.2051 20.2332 18.2051 22.0698C18.2051 22.94 17.7902 23.7315 17.1154 24.3242C16.8522 23.9714 16.6058 23.5713 16.3782 23.1171C16.3423 23.0439 16.2894 22.9803 16.2239 22.9316C16.1584 22.883 16.0822 22.8506 16.0016 22.8373C15.916 22.823 15.8282 22.8307 15.7464 22.8595C15.6646 22.8883 15.5915 22.9373 15.5338 23.002C15.4762 23.0667 15.436 23.1449 15.4169 23.2294C15.3978 23.3138 15.4005 23.4017 15.4247 23.4848C15.5831 24.0381 15.7867 24.5425 16.0096 25.0117C15.4393 25.2553 14.792 25.3954 14.1026 25.3954C11.8368 25.3954 10 23.9065 10 22.0698C10 20.2332 11.8368 18.7442 14.1026 18.7442ZM23.6138 19.7675C23.101 21.5582 22.5801 23.4688 21.0417 24.7479L21.0496 22.8373C22.0753 22.3256 22.8445 21.3024 23.6137 19.7675H23.6138ZM15.9215 23.3489C16.6907 24.8838 17.6683 25.899 18.6939 26.4107L18.1971 27.4259C17.3504 26.4375 16.4343 25.1396 15.9215 23.3489Z" fill="white"/>
</svg>
