<svg width="63" height="77" viewBox="0 0 63 77" fill="none" xmlns="http://www.w3.org/2000/svg">
<path d="M63 31.5C63 56 31.5 77 31.5 77C31.5 77 0 56 0 31.5C1.24489e-07 23.1457 3.31874 15.1335 9.22614 9.22614C15.1335 3.31874 23.1457 0 31.5 0C39.8543 0 47.8665 3.31874 53.7739 9.22614C59.6813 15.1335 63 23.1457 63 31.5Z" fill="#A6B720"/>
<path d="M23.3685 30.3994H18.4189C17.0402 30.3994 15.8381 30.2227 14.7775 29.9047C13.7522 29.5866 12.9038 29.1272 12.3027 28.5618C11.7017 27.9964 11.2421 27.325 10.9239 26.5829C10.6411 25.8408 10.4997 25.0281 10.4997 24.1446C10.4997 23.2612 10.6411 22.4485 10.9593 21.7064C11.2421 20.9643 11.7017 20.2929 12.3381 19.7275C12.9391 19.1621 13.7876 18.7027 14.8129 18.3846C15.8381 18.0313 17.0402 17.8546 18.4189 17.8546H23.3685C24.7473 17.8546 25.9493 18.0313 27.0099 18.3493C28.0352 18.6673 28.8837 19.1267 29.4847 19.6921C30.0857 20.2575 30.5453 20.9289 30.8635 21.671C31.1463 22.4131 31.3231 23.2259 31.3231 24.1093C31.3231 24.9927 31.1817 25.8055 30.8635 26.5476C30.5807 27.2897 30.1211 27.9611 29.4847 28.5265C28.8837 29.0919 28.0352 29.5513 27.0099 29.8693C25.9493 30.258 24.7473 30.3994 23.3685 30.3994ZM18.4189 29.1979H23.3331C25.5958 29.1979 27.2574 28.7385 28.2827 27.8197C29.3079 26.901 29.8382 25.6642 29.8382 24.1446C29.8382 22.6251 29.3433 21.3883 28.318 20.4696C27.2928 19.5508 25.6311 19.0914 23.3685 19.0914H18.4189C16.1563 19.0914 14.4947 19.5508 13.4694 20.4696C12.4442 21.3883 11.9138 22.5898 11.9138 24.1446C11.9138 25.6995 12.4442 26.901 13.4694 27.8197C14.53 28.7385 16.1563 29.1979 18.4189 29.1979Z" fill="white"/>
<path d="M33.9394 30.046V29.0919L49.389 19.0561H34.1162V17.8546H51.9698V18.7734L36.4849 28.8445H52.288V30.046H33.9394Z" fill="white"/>
<path d="M23.3685 45.2411H18.4189C17.0402 45.2411 15.8381 45.0644 14.7775 44.7464C13.7522 44.4283 12.9038 43.9689 12.3027 43.4035C11.7017 42.8381 11.2421 42.1667 10.9239 41.4246C10.6411 40.6825 10.4997 39.8698 10.4997 38.951C10.4997 38.0676 10.6411 37.2548 10.9593 36.5127C11.2421 35.7706 11.7017 35.0992 12.3381 34.5338C12.9391 33.9684 13.7876 33.5091 14.8129 33.191C15.8381 32.873 17.0402 32.6963 18.4543 32.6963H23.4038C24.7826 32.6963 25.9847 32.873 27.0453 33.191C28.0705 33.5091 28.919 33.9684 29.52 34.5338C30.1211 35.0992 30.5807 35.7706 30.8988 36.5127C31.1817 37.2548 31.3584 38.0676 31.3584 38.951C31.3584 39.8345 31.217 40.6472 30.8988 41.3893C30.616 42.1314 30.1564 42.8028 29.52 43.3682C28.919 43.9336 28.0705 44.393 27.0453 44.711C25.9493 45.0644 24.7473 45.2411 23.3685 45.2411ZM18.4189 44.0043H23.3331C25.5958 44.0043 27.2574 43.5449 28.2827 42.6261C29.3079 41.7073 29.8382 40.4705 29.8382 38.951C29.8382 37.4315 29.3079 36.1947 28.2827 35.2759C27.2574 34.3571 25.5958 33.8978 23.3331 33.8978H18.4189C16.1563 33.8978 14.4947 34.3571 13.4694 35.2759C12.4442 36.23 11.9138 37.4315 11.9138 38.951C11.9138 40.4705 12.4442 41.7073 13.4694 42.6261C14.53 43.5449 16.1563 44.0043 18.4189 44.0043Z" fill="white"/>
<path d="M51.227 45.0646L35.4592 34.428V45.0646H34.1158V32.8732H35.4239L51.1563 43.4744V32.8732H52.4998V45.0646H51.227Z" fill="white"/>
</svg>
