<svg width="40" height="49" viewBox="0 0 40 49" fill="none" xmlns="http://www.w3.org/2000/svg">
<path d="M40 20.0455C40 35.6364 20 49 20 49C20 49 0 35.6364 0 20.0455C7.90407e-08 14.7291 2.10714 9.63043 5.85786 5.87118C9.60859 2.11193 14.6957 0 20 0C25.3043 0 30.3914 2.11193 34.1421 5.87118C37.8929 9.63043 40 14.7291 40 20.0455Z" fill="#A6B720"/>
<g clip-path="url(#clip0_1518_29418)">
<path d="M17.8033 31.1825C17.8351 31.2375 17.8351 31.2925 17.8033 31.3475C17.7874 31.3108 17.7715 31.2741 17.7715 31.2192C17.7715 31.2192 17.8033 31.1825 17.8033 31.1825Z" fill="white"/>
<path d="M21.6937 30.6146C21.6302 30.3947 21.5984 30.193 21.7891 30.0647C21.9321 29.9731 22.0275 30.1014 22.107 30.2297L22.0752 30.2664C21.9639 30.3763 21.8209 30.5047 21.6937 30.6146Z" fill="white"/>
<path d="M21.6953 30.6143C21.8225 30.5043 21.9655 30.376 22.0926 30.266C22.0767 30.5776 22.0608 30.8892 22.0291 31.2009C21.9337 31.1825 21.8542 31.1825 21.7589 31.1642C21.743 30.9809 21.7271 30.7976 21.6953 30.6143Z" fill="white"/>
<path d="M21.723 26.8568C20.6741 26.4169 19.6093 26.3802 18.5604 26.8385C18.0518 27.0584 18.02 27.5167 18.4968 27.7916C18.8305 27.9749 18.7511 28.2682 18.8305 28.5249C18.91 28.8181 18.6875 29.423 19.212 29.2947C19.6093 29.2031 19.3709 28.6898 19.3868 28.3599C19.3868 28.2316 19.2914 28.0849 19.212 27.9749C18.9736 27.6267 19.1484 27.48 19.4027 27.3884C19.6252 27.3151 19.8636 27.2967 19.9907 27.2601C21.0079 27.2417 21.1191 27.4067 20.8807 28.3782C20.8489 28.4882 20.8489 28.6165 20.8489 28.7448C20.8489 28.9648 20.7536 29.2764 21.0714 29.3314C21.437 29.3864 21.3893 29.0381 21.4211 28.7815C21.4529 28.3416 21.437 27.9566 21.9138 27.6817C22.3111 27.4617 22.0409 27.0034 21.723 26.8568Z" fill="white"/>
<path d="M21.3463 30.7615C21.3463 30.5782 21.3463 30.3766 21.2827 30.2299C21.2032 30.065 21.0761 30.1016 20.9648 30.2483C20.9648 32.6679 20.9648 35.0874 20.9648 37.507V50.8148L20.9807 51.7313C20.9807 60.4931 20.9807 68.3568 20.9807 77.1187C20.9807 77.4486 20.9807 77.7969 20.9489 78.1268C20.933 78.3101 20.7582 78.5667 21.0761 78.6034C21.3621 78.6401 21.3304 78.3651 21.3304 78.1635C21.3463 77.9435 21.3304 77.7419 21.3304 77.5219C21.3304 66.8354 21.3304 56.1489 21.3304 45.4624C21.3304 45.2607 21.3145 45.0774 21.3145 44.8758V39.2301C21.3304 36.4072 21.3463 33.5844 21.3463 30.7615Z" fill="white"/>
<path d="M20.2779 30.2476C20.2779 35.6734 20.2938 41.0991 20.2938 46.5249C20.2938 56.8998 20.2938 67.2747 20.2938 77.6496C20.2938 77.9429 20.1984 78.2545 20.4209 78.5661C20.7864 78.2728 20.6434 77.8329 20.6434 77.4846C20.6434 68.6678 20.6593 59.8509 20.6434 51.0158C20.6434 50.5392 20.6434 50.0809 20.6275 49.6043V37.5064C20.6434 35.0868 20.6116 32.6855 20.6275 30.2659C20.7388 30.2659 20.85 30.2476 20.9613 30.2476C20.85 30.2476 20.7388 30.2659 20.6275 30.2659C20.5163 30.2109 20.405 30.046 20.2779 30.2476Z" fill="white"/>
<path d="M18.814 23.8872C18.5597 23.9422 18.2737 24.0522 18.1942 24.3821C18.0989 24.767 18.3214 24.9137 18.6233 24.987C18.814 25.042 18.7822 25.2803 18.7981 25.4453C18.8299 25.7752 18.9571 26.0135 19.2431 25.8668C19.5451 25.7202 19.4497 25.4086 19.2749 25.207C18.9253 24.8037 19.2113 24.6937 19.4656 24.6021C19.8471 24.4738 20.2444 24.4371 20.6417 24.5654C20.9754 24.6754 21.3887 24.7487 20.9119 25.2986C20.7529 25.4819 20.7053 25.8302 21.0549 25.9402C21.3251 26.0135 21.4522 25.8119 21.4363 25.5186C21.4046 25.0237 21.6747 24.9137 22.0085 24.877C22.0403 24.712 22.072 24.5471 22.1038 24.3821C21.1026 23.3923 19.9583 23.5939 18.814 23.8872Z" fill="white"/>
<path d="M22.0398 41.0442C22.0398 40.5126 22.0398 39.9993 22.0398 39.4678V37.5064C22.0398 35.3984 22.0398 33.2905 22.0398 31.2008C22.0557 30.8892 22.0715 30.5776 22.1033 30.266L22.1351 30.2293C22.0557 30.1193 21.9444 29.9727 21.8173 30.0643C21.6265 30.1927 21.6424 30.4126 21.7219 30.6142C21.7537 30.7975 21.7696 30.9809 21.8014 31.1458C21.8014 33.2721 21.8014 35.3801 21.8173 37.5064V41.2275C21.7696 42.6389 21.8967 44.0503 21.7378 45.4617C21.7696 46.9282 21.7855 48.3946 21.8173 49.861C21.8173 59.3927 21.8173 68.9428 21.8332 78.4745C21.8649 78.5295 21.8967 78.5845 21.9285 78.6212C21.9603 78.5845 21.9921 78.5478 22.0239 78.5295C22.0398 78.1629 22.0874 77.7963 22.0874 77.448C22.0874 73.8186 22.0874 70.1892 22.0874 66.5782C22.0874 61.3357 22.0874 56.5332 22.0874 51.2908V50.8325V48.3579C22.1033 47.1665 22.1192 45.9567 22.1351 44.7652C22.1033 44.3253 22.0874 43.8853 22.0874 43.4454V42.9322C22.0874 42.4922 22.1033 42.0523 22.1351 41.6124C22.2305 41.6124 22.3258 41.6124 22.4212 41.6307C22.3258 41.6307 22.2305 41.6307 22.1351 41.6124C22.0715 41.4291 22.0557 41.2275 22.0398 41.0442Z" fill="white"/>
<path d="M19.4023 30.7798C19.45 30.8714 19.5295 30.9814 19.5295 31.0731C19.5454 33.7126 19.5454 36.3522 19.5454 39.0101V48.6151C19.5454 48.6884 19.5295 48.7434 19.5295 48.8167C19.5295 58.5134 19.5295 68.2285 19.5295 77.9252C19.5295 78.1085 19.5136 78.2918 19.5295 78.4751C19.5454 78.64 19.6884 78.64 19.7679 78.585C19.8791 78.5301 19.8632 78.3834 19.8315 78.2551C19.8315 69.1083 19.8791 60.1632 19.8791 51.0164V50.7964V37.4886C19.895 35.0691 19.895 32.6495 19.895 30.2299C20.0063 30.2299 20.1334 30.2299 20.2447 30.2299C20.1334 30.2299 20.0063 30.2299 19.895 30.2299C19.45 30.0282 19.4659 30.4682 19.4023 30.7798Z" fill="white"/>
<path d="M19.2156 31.4576C19.2156 31.0176 19.2474 30.5594 18.9613 30.1744C18.7706 30.541 18.8501 30.9076 18.8501 31.2743C18.8183 34.1704 18.9136 37.0666 18.8183 39.9445L18.866 45.2786C18.8183 45.2786 18.7547 45.2786 18.707 45.2786C18.7547 45.2786 18.8183 45.2786 18.866 45.2786V50.8143V51.0709C18.866 54.737 18.8977 58.1464 18.9136 61.8124C18.9136 67.3665 18.9295 72.9022 18.9295 78.4563C18.9454 78.5846 19.009 78.6213 19.1044 78.5479C19.1361 78.3646 19.1838 78.1997 19.1838 78.0164C19.1838 68.9429 19.2633 60.1077 19.2633 51.0526V50.8143V40.3661C19.2633 40.3477 19.2792 40.3294 19.2792 40.3294C19.3269 40.2377 19.3745 40.1461 19.3904 40.0544C19.3586 40.1461 19.3269 40.2377 19.2792 40.3294C19.2315 37.3782 19.2315 34.4271 19.2156 31.4576Z" fill="white"/>
<path d="M18.1016 30.2477C18.1175 32.6673 18.1175 35.0869 18.1333 37.5065V45.2418C18.1175 45.9384 18.0857 46.6349 18.1333 47.3315V50.8142V50.9609C18.1333 60.2543 18.181 69.3461 18.181 78.5662C18.5148 78.2179 18.4671 77.8147 18.4671 77.4481C18.483 67.9897 18.483 58.5129 18.4989 49.0545C18.4989 48.9262 18.4989 48.8162 18.483 48.7246V47.8814C18.4989 47.8814 18.4989 47.8814 18.5148 47.8814C18.5148 47.0199 18.5148 46.1584 18.5148 45.2968C18.4989 45.2418 18.4989 45.1869 18.483 45.1319V41.2459C18.4989 41.1909 18.483 40.3477 18.483 40.2927C18.483 40.2194 18.483 40.146 18.483 40.0727V38.5146C18.483 36.0034 18.483 33.4922 18.4671 30.9809C18.4671 30.7243 18.7373 30.1377 18.1016 30.2477Z" fill="white"/>
<path d="M23.397 8.06711C22.6818 8.45204 22.205 9.25857 21.458 9.60684C20.8382 9.0936 20.123 9.11193 19.4079 9.24024C19.1854 9.2769 18.947 9.31356 18.7245 9.36855C18.6768 9.33189 18.645 9.33189 18.6132 9.38688C18.6291 9.47853 18.6291 9.57018 18.645 9.68016C18.8993 9.6435 19.1536 9.58851 19.4079 9.55185C20.0277 9.62517 20.6634 9.47853 21.2673 9.77182C21.2197 10.3401 20.8064 10.7983 20.9018 11.4215C20.9336 11.6965 20.7588 11.7698 20.5363 11.7698C20.282 11.7698 20.2184 11.6232 20.2343 11.3665C20.2502 11.0183 20.2661 10.615 19.837 10.6883C19.4556 10.7616 19.5827 11.1283 19.6622 11.4215C19.7734 11.8431 19.4714 11.8981 19.3443 11.7148C18.9629 11.1832 18.6291 10.5967 18.1523 10.1384C18.057 10.0468 18.1841 9.86347 18.2954 9.75349C18.4066 9.73516 18.5179 9.69849 18.645 9.68016C18.6291 9.58851 18.6291 9.49686 18.6132 9.38688C18.502 9.40521 18.3907 9.42354 18.2954 9.44187C17.9616 9.51519 17.8504 9.24024 17.6914 8.98362C17.31 8.43371 16.9286 7.90213 16.5313 7.37056C16.42 7.22391 16.3247 6.96729 16.1022 7.04061C15.8638 7.11393 15.8161 7.38889 15.7684 7.60885C15.689 7.90213 15.7048 8.21375 15.8161 8.50703C16.0386 9.11193 16.8014 9.4602 16.4359 10.3401C16.42 10.3767 16.5154 10.505 16.5789 10.5234C17.3736 10.7983 17.3259 11.6232 17.5325 12.3197C17.7073 12.8513 17.7709 13.6578 18.4543 13.7128C18.9629 13.7495 18.9629 13.9878 18.947 14.446C18.8357 16.1324 18.5656 17.8554 19.4714 19.4318C19.6781 19.7801 19.7416 20.4217 19.09 20.55C18.8516 20.605 18.7086 20.7699 18.7086 21.0632C18.7086 21.3199 18.8516 21.4848 19.0423 21.4848C19.4556 21.4848 19.4238 21.7964 19.4079 22.1081C19.392 22.548 19.1218 22.548 18.8516 22.548C18.3431 22.548 17.8504 22.548 17.3577 22.3647C17.0398 22.2547 16.7697 22.2914 16.5789 22.603C16.42 22.8596 16.3406 23.1529 16.5472 23.4462C16.7379 23.7211 16.8332 24.1427 17.2782 23.9594C17.4531 23.8861 17.6279 23.8678 17.7391 24.1244C18.0252 24.7109 17.8345 25.9941 17.4054 26.4157C16.9286 26.8556 16.8809 27.2588 17.5484 27.4971C17.612 27.5338 17.6756 27.5888 17.755 27.6255C17.9457 28.5053 17.8027 29.3852 17.8981 30.265C17.8822 30.5766 17.8663 30.8882 17.8504 31.1998C17.8822 31.2548 17.8822 31.3098 17.8504 31.3648C17.8504 34.2427 17.8504 37.1205 17.8504 39.9983C17.9298 40.6032 17.9298 41.2081 17.8504 41.813C17.8504 42.1247 17.8345 42.4363 17.8345 42.7295L17.8186 42.7479V42.8762C17.8186 42.8945 17.8186 42.8945 17.8345 42.9128C17.8345 43.0962 17.8345 43.2795 17.8345 43.4628C17.8345 43.4628 17.8345 43.4811 17.8186 43.4811V43.6094C17.8186 43.6277 17.8345 43.6461 17.8345 43.6461C17.8345 44.8009 17.8345 45.974 17.8504 47.1288C17.9457 48.1003 17.8981 49.0718 17.8504 50.0433C17.8504 53.1594 17.8663 56.2573 17.8663 59.3734C17.8663 65.734 17.8504 72.1129 17.8504 78.4735C17.8663 78.6018 17.8345 78.6568 17.7232 78.6568C17.2464 79.225 17.9457 80.3248 17.0239 80.6914C17.3577 81.7363 16.8332 82.2862 16.134 82.7627C16.0227 82.8361 16.0068 83.0744 15.9432 83.2393C15.975 83.5693 16.0068 83.8809 16.0386 84.3208C16.8491 83.7342 17.6914 83.4043 18.5814 83.221C19.0264 83.1293 19.2172 82.7078 19.4238 82.3228C19.7257 81.7546 20.0754 81.6629 20.3773 82.2495C20.727 82.9461 21.2197 83.276 21.8872 83.386C22.4275 83.4776 22.952 83.7343 23.4288 84.0642C23.5718 84.1742 23.7148 84.3758 23.9055 84.1192C24.128 82.8361 22.7772 81.9196 23.3016 80.5815C23.3016 80.5631 23.238 80.4898 23.1904 80.4715C22.5864 80.3981 22.8725 79.8482 22.793 79.5C22.7295 79.2067 23.0632 78.8217 22.6182 78.6385C22.507 78.6385 22.4593 78.5651 22.4911 78.4368C22.4911 68.9051 22.4911 59.3917 22.4752 49.86C22.4752 49.6767 22.4752 49.4751 22.4752 49.2918C22.4752 49.0168 22.4752 48.7419 22.4911 48.4669V47.4771C22.4593 46.5606 22.4434 45.6257 22.4116 44.7092C22.4434 44.4893 22.4593 44.2876 22.4911 44.0677V43.1328C22.4911 43.0962 22.4911 43.0595 22.4911 43.0228V42.1796C22.4593 41.9963 22.4434 41.813 22.4116 41.6297C22.3163 41.6297 22.2209 41.6297 22.1255 41.6114C22.0938 42.0513 22.0779 42.4913 22.0779 42.9312V43.4078C22.0779 43.8477 22.0938 44.2876 22.1255 44.7275C22.1097 45.919 22.0938 47.1288 22.0779 48.3203V50.8132V51.2714C22.0779 56.5139 22.0779 61.3164 22.0779 66.5588C22.0779 70.1882 22.0779 73.8176 22.0779 77.4287C22.0779 77.7953 22.0302 78.1619 22.0143 78.5101C21.9825 78.5468 21.9507 78.5835 21.9189 78.6018C21.8872 78.5468 21.8554 78.4918 21.8236 78.4551C21.8236 68.9234 21.8236 59.3734 21.8077 49.8417C21.7759 48.3753 21.76 46.9088 21.7282 45.4424C21.8872 44.031 21.76 42.6196 21.8077 41.2081V37.4871C21.8077 35.3608 21.8077 33.2528 21.7918 31.1265C21.76 30.9432 21.7441 30.7599 21.7123 30.5949C21.6488 30.375 21.617 30.1733 21.8077 30.045C21.9507 29.9534 22.0461 30.0817 22.1255 30.21L22.0938 30.2467C22.0779 30.5583 22.062 30.8699 22.0302 31.1815C22.0302 33.2895 22.0302 35.3975 22.0302 37.4871V39.4484C22.0302 39.98 22.0302 40.4933 22.0302 41.0248C22.0461 41.2081 22.062 41.3914 22.0779 41.5931C22.1732 41.5931 22.2686 41.5931 22.3639 41.6114C22.4593 37.8171 22.4434 34.0227 22.3798 30.2283C22.3798 29.7334 22.3798 29.2568 22.3957 28.7619C22.4116 28.4686 22.4275 28.1754 22.4434 27.8637C22.4911 27.7171 22.5229 27.5521 22.5705 27.4055C22.8566 27.4605 23.1109 27.4238 23.1904 27.0389C23.2698 26.6723 23.095 26.434 22.8407 26.3057C22.4752 26.1407 22.4116 25.8108 22.4434 25.4258C22.4752 24.9492 22.507 24.4543 22.5388 23.9777L22.5705 23.9411V23.8861C22.8725 23.6478 23.3493 24.2893 23.5559 23.6111L23.5877 23.5928V23.5378C23.9691 23.1895 23.9691 22.8229 23.6354 22.438L23.6195 22.4197C23.3493 22.0714 23.0632 22.1814 22.7772 22.383C22.5547 22.4197 22.348 22.4563 22.1255 22.493C21.8395 22.4747 21.5534 22.4747 21.2673 22.4563C21.0607 22.438 20.9018 22.383 20.8859 22.1081C20.8859 21.8881 20.8064 21.5765 21.0607 21.4848C21.3468 21.3748 21.6647 21.3748 21.5852 20.8799C21.4898 20.385 21.1243 20.4767 20.8223 20.44L20.8064 20.385H20.7429C20.727 19.8351 20.568 19.2302 20.7111 18.772C21.172 17.3422 20.8064 15.9308 20.7905 14.501C20.8064 14.2627 20.8382 14.0244 20.8541 13.7861H20.8382C20.8859 13.7678 20.9336 13.7311 20.9813 13.7128C21.2673 13.8228 21.3468 13.6028 21.4104 13.3645L21.4422 13.3279C21.6011 13.2912 21.7282 13.1996 21.7759 13.0163C21.8236 12.9429 21.8872 12.888 21.9348 12.8146C22.1414 12.723 22.1891 12.503 22.2368 12.2647L22.2527 12.2464C22.4752 12.1547 22.4593 11.8981 22.5547 11.7148H22.5705C22.9679 11.3116 22.6341 10.725 22.8248 10.2667C23.2222 10.0284 23.6354 9.80848 24.0168 9.55185C24.43 9.2769 24.7479 8.08544 24.4459 7.73716C24.0168 7.20558 23.7307 7.8838 23.397 8.06711ZM18.4861 38.5136V40.0717C18.4861 40.145 18.4861 40.2183 18.4861 40.2916C18.4702 40.3466 18.4861 41.1898 18.4861 41.2448V45.1308C18.502 45.1858 18.502 45.2408 18.5179 45.2958C18.5179 46.1573 18.5179 47.0188 18.5179 47.8803C18.502 47.8803 18.502 47.8803 18.4861 47.8803V48.7235C18.502 48.8152 18.502 48.9252 18.502 49.0535C18.4861 58.5119 18.4861 67.9886 18.4702 77.447C18.4702 77.8319 18.5338 78.2169 18.1841 78.5651C18.1841 69.3267 18.1364 60.2532 18.1364 50.9598V50.8132V47.3304C18.0888 46.6339 18.1206 45.9373 18.1364 45.2408V37.5054C18.1206 35.0858 18.1206 32.6663 18.1047 30.2467C18.7245 30.1367 18.4543 30.7233 18.4543 30.9615C18.4861 33.4728 18.4861 35.984 18.4861 38.5136ZM19.2489 40.3283C19.2489 40.3466 19.2331 40.365 19.2331 40.365V50.8132V51.0515C19.2331 60.1249 19.1536 68.9601 19.1536 78.0152C19.1536 78.1985 19.1059 78.3635 19.0741 78.5468C18.9788 78.6385 18.9311 78.5835 18.8993 78.4551C18.8993 72.9011 18.8834 67.3654 18.8834 61.8113C18.8834 58.1453 18.8357 54.7358 18.8357 51.0698V50.8132V45.2775C18.7881 45.2775 18.7245 45.2775 18.6768 45.2775C18.7245 45.2775 18.7881 45.2775 18.8357 45.2775L18.7881 39.9434C18.8834 37.0472 18.7881 34.151 18.8198 31.2732C18.8198 30.9249 18.7404 30.54 18.9311 30.1733C19.2331 30.5583 19.1854 31.0165 19.1854 31.4565C19.2331 34.426 19.2331 37.3771 19.2489 40.3283C19.2966 40.2366 19.3443 40.145 19.3602 40.0533C19.3284 40.145 19.2966 40.2366 19.2489 40.3283ZM21.3468 45.4608C21.3468 56.1473 21.3468 66.8338 21.3468 77.5203C21.3468 77.7403 21.3627 77.9419 21.3468 78.1619C21.3309 78.3635 21.3786 78.6385 21.0925 78.6018C20.7747 78.5651 20.9495 78.3268 20.9654 78.1252C20.9972 77.7953 20.9972 77.447 20.9972 77.117C20.9972 68.3552 20.9972 60.4915 20.9972 51.7297L20.9813 50.8132V37.5054C20.9813 35.0858 20.9813 32.6663 20.9813 30.2467C20.87 30.2467 20.7588 30.265 20.6475 30.265C20.6316 32.6846 20.6475 35.0858 20.6475 37.5054V49.6034C20.6475 50.08 20.6634 50.5382 20.6634 51.0148C20.6793 59.8316 20.6634 68.6485 20.6634 77.4836C20.6634 77.8503 20.8064 78.2718 20.4409 78.5651C20.2184 78.2535 20.3138 77.9419 20.3138 77.6486C20.3138 67.2737 20.3138 56.8988 20.3138 46.5239C20.3138 41.0982 20.3138 35.6724 20.2979 30.2467C20.1866 30.2467 20.0595 30.2467 19.9482 30.2467C19.9482 32.6663 19.9482 35.0858 19.9323 37.5054V50.8132V51.0331C19.9323 60.1799 19.8847 69.1251 19.8847 78.2718C19.9164 78.4002 19.9323 78.5285 19.8211 78.6018C19.7257 78.6568 19.5986 78.6568 19.5827 78.4918C19.5668 78.3085 19.5827 78.1252 19.5827 77.9419C19.5827 68.2452 19.5827 58.5302 19.5827 48.8335C19.5827 48.7602 19.5827 48.7052 19.5986 48.6319V39.0268C19.5986 36.3873 19.5827 33.7477 19.5827 31.0899C19.5827 30.9982 19.5032 30.8882 19.4556 30.7966C19.5191 30.485 19.4873 30.045 19.9641 30.265C20.0754 30.265 20.2025 30.265 20.3138 30.265C20.4409 30.0634 20.5522 30.2283 20.6793 30.2833C20.7905 30.2833 20.9018 30.265 21.013 30.265C21.1084 30.1184 21.2514 30.0817 21.3309 30.2467C21.3945 30.3933 21.3945 30.5949 21.3945 30.7782C21.3786 33.6011 21.3786 36.424 21.3627 39.2468V44.8925C21.3309 45.0758 21.3468 45.2591 21.3468 45.4608ZM21.903 27.6804C21.4263 27.9554 21.4422 28.3403 21.4104 28.7803C21.3945 29.0369 21.4263 29.3852 21.0607 29.3302C20.7588 29.2935 20.8541 28.9819 20.8382 28.7436C20.8382 28.6153 20.8382 28.5053 20.87 28.377C21.1084 27.3872 20.9972 27.2405 19.98 27.2588C19.8529 27.2772 19.6145 27.2955 19.392 27.3872C19.1377 27.4788 18.9629 27.6438 19.2013 27.9737C19.2807 28.0837 19.3761 28.2303 19.3761 28.3587C19.3602 28.6886 19.5986 29.2018 19.2013 29.2935C18.6768 29.4218 18.8993 28.7986 18.8198 28.5236C18.7404 28.267 18.8357 27.9737 18.4861 27.7904C18.0093 27.5155 18.057 27.0572 18.5497 26.8372C19.5986 26.3973 20.6793 26.4157 21.7123 26.8556C22.0461 27.0022 22.3163 27.4605 21.903 27.6804ZM22.1097 24.381C22.0779 24.546 22.0461 24.7109 22.0143 24.8759C21.6805 24.9126 21.4104 25.0409 21.4422 25.5175C21.458 25.8108 21.3309 26.0124 21.0607 25.9391C20.727 25.8291 20.7588 25.4808 20.9177 25.2975C21.3945 24.7476 20.9813 24.6743 20.6475 24.5643C20.2502 24.436 19.8529 24.4727 19.4714 24.601C19.2172 24.6926 18.9311 24.8026 19.2807 25.2059C19.4556 25.4075 19.5509 25.7191 19.2489 25.8657C18.9629 26.0124 18.8198 25.7924 18.8039 25.4442C18.7881 25.2792 18.8198 25.0409 18.6291 24.9859C18.3431 24.9126 18.1047 24.7843 18.2 24.381C18.2795 24.0511 18.5656 23.9411 18.8198 23.8861C19.9641 23.5928 21.1084 23.3912 22.1097 24.381Z" fill="white"/>
</g>
<defs>
<clipPath id="clip0_1518_29418">
<rect width="18" height="27" fill="white" transform="translate(11 7)"/>
</clipPath>
</defs>
</svg>
