<svg width="40" height="49" viewBox="0 0 40 49" fill="none" xmlns="http://www.w3.org/2000/svg">
<path d="M40 20.0455C40 35.6364 20 49 20 49C20 49 0 35.6364 0 20.0455C7.90407e-08 14.7291 2.10714 9.63043 5.85786 5.87118C9.60859 2.11193 14.6957 0 20 0C25.3043 0 30.3914 2.11193 34.1421 5.87118C37.8929 9.63043 40 14.7291 40 20.0455Z" fill="#A6B720"/>
<path d="M22.5 13.4167V14.1667H17.5V13.4167C17.5 12.25 18.3333 11.6667 19.1667 11.6667V10C17.5 10 15.8333 11.15 15.8333 13.4167V21.3833C16.3833 21.6667 16.95 21.6667 17.5 21.3833V19.1667H22.5V21.3833C23.05 21.6667 23.6167 21.6667 24.1667 21.3833V13.4167C24.1667 12.25 25 11.6667 25.8333 11.6667V10C24.1667 10 22.5 11.15 22.5 13.4167ZM22.5 17.5H17.5V15.8333H22.5V17.5ZM26.6667 20.8333C25.7 21.8833 24.6167 22.5 23.3333 22.5C22.05 22.5 20.9667 21.8833 20 20.8333C19.0333 21.8833 17.95 22.5 16.6667 22.5C15.3833 22.5 14.3 21.8833 13.3333 20.8333C12.3667 21.8833 11.2833 22.5 10 22.5V28.3C10 29.2833 10.7167 30 11.7 30H28.3C29.2833 30 30 29.2833 30 28.3V22.5C28.7167 22.5 27.6333 21.8833 26.6667 20.8333Z" fill="white"/>
</svg>
