<svg width="12" height="12" viewBox="0 0 12 12" fill="none" xmlns="http://www.w3.org/2000/svg">
    <path d="M9.64466 6C10.1399 6.23609 10.583 6.61551 10.9652 7.12142L11 7.17201L10.9826 7.2226C10.8697 7.67791 10.6872 8.10793 10.4526 8.50422C10.2181 8.90051 9.93136 9.26307 9.57515 9.59191L9.5404 9.62563L9.48827 9.6172C8.85404 9.54975 8.28931 9.36425 7.82885 9.06071C7.8636 9.60034 7.75065 10.1653 7.49001 10.7386L7.46394 10.7892L7.41182 10.8061C6.95135 10.9325 6.4735 11 6.00434 11C5.51781 11 5.05734 10.941 4.58818 10.8061L4.53606 10.7892L4.50999 10.7386C4.24935 10.1653 4.1364 9.60034 4.17116 9.06071C3.71069 9.36425 3.15465 9.54975 2.51173 9.6172L2.4596 9.62563L2.42485 9.59191C2.07732 9.2715 1.78193 8.90051 1.54735 8.50422C1.31277 8.09949 1.13901 7.67791 1.01738 7.21417L1 7.16358L1.03475 7.11298C1.40834 6.60708 1.85143 6.22766 2.35534 5.99157C1.86012 5.75548 1.41703 5.37605 1.03475 4.87015L1 4.82799L1.01738 4.7774C1.13032 4.32209 1.31277 3.89207 1.54735 3.49578C1.78193 3.09949 2.06864 2.73693 2.42485 2.4081L2.4596 2.37437L2.51173 2.3828C3.14596 2.45025 3.71069 2.63575 4.17116 2.93929C4.1364 2.39966 4.24935 1.83474 4.50999 1.26138L4.53606 1.21079L4.58818 1.19393C5.04865 1.06745 5.5265 1 5.99566 1C6.48219 1 6.94266 1.05902 7.41182 1.19393L7.46394 1.21079L7.49001 1.26138C7.75065 1.83474 7.8636 2.39966 7.82885 2.93929C8.28931 2.63575 8.84535 2.45025 9.48827 2.3828L9.5404 2.37437L9.57515 2.4081C9.92268 2.7285 10.2181 3.09949 10.4526 3.49578C10.6872 3.90051 10.861 4.32209 10.9826 4.78584L11 4.83642L10.9652 4.87858C10.5917 5.38449 10.1486 5.76391 9.64466 6Z" stroke="#A6B720" stroke-miterlimit="10"/>
</svg>
