<svg viewBox="0 0 16 16" xmlns="http://www.w3.org/2000/svg">
    <path fill-rule="evenodd" clip-rule="evenodd" d="M4.56527 5.93584L5.83371 4.4712C6.02224 4.25387 6.03439 3.9443 5.8643 3.71211L4.05817 1.25035C3.90383 1.03932 3.64646 0.952027 3.39538 1.02582C1.59509 1.55363 0.451745 3.12761 1.26842 5.36349C2.76094 9.45097 6.54824 13.2388 10.6366 14.7318C12.8729 15.548 14.4464 14.4051 14.9742 12.6048C15.048 12.3537 14.9607 12.0963 14.7496 11.942L12.2879 10.1358C12.0557 9.96573 11.7462 9.97788 11.5288 10.1664L10.0642 11.4349C7.95706 10.5696 5.43099 8.04348 4.56572 5.93629L4.56527 5.93584Z" />
</svg>
