<svg width="290" height="39" viewBox="0 0 290 39" fill="none" xmlns="http://www.w3.org/2000/svg">
<path d="M290 0H190.865V15.1273H290V0Z" fill="#2799C1"/>
<path d="M49.0996 38.3698V36.2425L83.1577 13.9456H49.4893V11.188H88.847V13.2365L54.6331 35.691H89.4705V38.4486H49.0996V38.3698Z" fill="#4D4D4C"/>
<path d="M121.113 38.2122H110.202C107.162 38.2122 104.512 37.8183 102.174 37.1092C99.9141 36.4001 98.0436 35.3758 96.7187 34.1152C95.3938 32.8546 94.3806 31.3577 93.6792 29.7031C93.0557 28.0486 92.666 26.2364 92.666 24.2667C92.666 22.297 92.9778 20.4849 93.6792 18.8304C94.3027 17.1758 95.3158 15.6789 96.7187 14.4183C98.0436 13.1577 99.9141 12.1334 102.174 11.4243C104.434 10.7152 107.084 10.3213 110.202 10.3213H121.113C124.152 10.3213 126.802 10.7152 129.14 11.4243C131.4 12.1334 133.271 13.1577 134.596 14.4183C135.921 15.6789 136.934 17.1758 137.635 18.8304C138.259 20.4849 138.648 22.297 138.648 24.2667C138.648 26.2364 138.337 28.0486 137.635 29.7031C137.012 31.3577 135.998 32.8546 134.596 34.1152C133.271 35.3758 131.4 36.4001 129.14 37.1092C126.88 37.8971 124.23 38.2122 121.113 38.2122ZM110.28 35.5334H121.113C126.101 35.5334 129.764 34.5092 132.024 32.4607C134.284 30.4122 135.453 27.6546 135.453 24.2667C135.453 20.8789 134.284 18.1213 132.024 16.0728C129.764 14.0243 126.101 13.0001 121.113 13.0001H110.28C105.292 13.0001 101.629 14.0243 99.3685 16.0728C97.1084 18.1213 95.9393 20.8789 95.9393 24.2667C95.9393 27.6546 97.1084 30.4122 99.3685 32.4607C101.629 34.5092 105.292 35.5334 110.28 35.5334Z" fill="#4D4D4C"/>
<path d="M182.214 38.9999L147.455 15.2848V38.9999H144.493V11.8181H147.377L182.058 35.5333V11.8181H185.02V38.9999H182.214Z" fill="#4D4D4C"/>
<path d="M28.3687 38.7637H17.4577C14.4182 38.7637 11.7683 38.3698 9.43026 37.6607C7.17011 36.9516 5.29965 35.9274 3.97474 34.6667C2.64982 33.4061 1.63666 31.9092 0.935232 30.2546C0.311744 28.6001 0 26.788 0 24.8183C0 22.8486 0.311744 21.0364 1.01317 19.3819C1.63666 17.7274 2.64982 16.2304 4.05267 14.9698C5.37759 13.7092 7.24805 12.6849 9.5082 11.9758C11.7683 11.2667 14.4182 10.8728 17.5356 10.8728H28.4467C31.4862 10.8728 34.136 11.2667 36.4741 11.9758C38.7342 12.6849 40.6047 13.7092 41.9296 14.9698C43.2545 16.2304 44.2677 17.7274 44.9691 19.3819C45.5926 21.0364 45.9823 22.8486 45.9823 24.8183C45.9823 26.788 45.6705 28.6001 44.9691 30.2546C44.3456 31.9092 43.3324 33.4061 41.9296 34.6667C40.6047 35.9274 38.7342 36.9516 36.4741 37.6607C34.058 38.4486 31.4082 38.7637 28.3687 38.7637ZM17.4577 36.0849H28.2908C33.2787 36.0849 36.9417 35.0607 39.2018 33.0122C41.462 30.9637 42.631 28.2061 42.631 24.8183C42.631 21.4304 41.462 18.6728 39.2018 16.6243C36.9417 14.5758 33.2787 13.5516 28.2908 13.5516H17.4577C12.4698 13.5516 8.80677 14.5758 6.54663 16.6243C4.28648 18.6728 3.11744 21.4304 3.11744 24.8183C3.11744 28.2061 4.28648 30.9637 6.54663 33.0122C8.88471 35.0607 12.4698 36.0849 17.4577 36.0849Z" fill="#4D4D4C"/>
<path d="M199.983 6.61834C199.905 6.22441 199.75 5.90925 199.516 5.67289C199.204 5.43653 198.892 5.35774 198.503 5.35774C198.347 5.35774 198.113 5.35774 197.879 5.43653C197.645 5.51531 197.489 5.5941 197.256 5.83047C197.1 5.98804 196.944 6.22441 196.788 6.61834C196.632 6.9335 196.632 7.32744 196.632 7.87895C196.632 8.1941 196.632 8.43047 196.71 8.74562C196.788 9.06077 196.866 9.29713 197.022 9.5335C197.178 9.76986 197.334 9.92744 197.567 10.085C197.801 10.2426 198.035 10.3214 198.425 10.3214C198.892 10.3214 199.204 10.1638 199.516 9.92744C199.828 9.69107 199.983 9.29713 200.061 8.74562H201.542C201.386 9.61229 201.075 10.3214 200.529 10.7941C199.983 11.2668 199.282 11.5032 198.425 11.5032C197.879 11.5032 197.412 11.4244 197.022 11.2668C196.632 11.1093 196.242 10.8729 196.009 10.5577C195.697 10.2426 195.541 9.84865 195.385 9.45471C195.229 9.06077 195.151 8.58804 195.151 8.03653C195.151 7.48501 195.229 7.01228 195.385 6.61834C195.541 6.14562 195.697 5.75168 196.009 5.43653C196.32 5.12138 196.632 4.80622 197.022 4.64865C197.412 4.49107 197.957 4.3335 198.503 4.3335C198.892 4.3335 199.282 4.41228 199.594 4.49107C199.983 4.56986 200.295 4.72744 200.529 4.9638C200.763 5.20016 200.997 5.43653 201.23 5.75168C201.386 6.06683 201.542 6.46077 201.542 6.85471H199.983V6.61834Z" fill="white"/>
<path d="M205.828 11.3455C205.283 11.3455 204.815 11.2668 204.348 11.1092C203.958 10.9516 203.568 10.7152 203.257 10.3213C202.945 9.92737 202.711 9.61222 202.555 9.21828C202.399 8.74555 202.321 8.27282 202.321 7.80009C202.321 7.24858 202.399 6.77585 202.555 6.38191C202.711 5.90918 202.945 5.59403 203.257 5.27888C203.568 4.96373 203.88 4.72737 204.348 4.491C204.737 4.33343 205.283 4.25464 205.828 4.25464C206.374 4.25464 206.842 4.33343 207.309 4.491C207.699 4.64858 208.089 4.88494 208.4 5.27888C208.712 5.59403 208.946 5.98797 209.102 6.38191C209.258 6.77585 209.336 7.32737 209.336 7.80009C209.336 8.35161 209.258 8.82434 209.102 9.21828C208.946 9.61222 208.712 10.0062 208.4 10.3213C208.089 10.6365 207.777 10.8728 207.309 11.1092C206.842 11.3456 206.374 11.3455 205.828 11.3455ZM205.828 10.1637C206.14 10.1637 206.452 10.0849 206.686 9.92737C206.92 9.76979 207.153 9.61222 207.309 9.37585C207.465 9.13949 207.621 8.90312 207.621 8.58797C207.699 8.27282 207.699 8.03646 207.699 7.72131C207.699 7.40615 207.699 7.16979 207.621 6.85464C207.543 6.53949 207.465 6.30312 207.309 6.06676C207.153 5.8304 206.92 5.67282 206.686 5.51524C206.452 5.35767 206.14 5.27888 205.828 5.27888C205.517 5.27888 205.205 5.35767 204.971 5.51524C204.737 5.67282 204.504 5.8304 204.348 6.06676C204.192 6.30312 204.036 6.53949 204.036 6.85464C204.036 7.16979 203.958 7.40615 203.958 7.72131C203.958 8.03646 203.958 8.35161 204.036 8.58797C204.114 8.82434 204.192 9.13949 204.348 9.37585C204.504 9.61222 204.737 9.76979 204.971 9.92737C205.205 10.0849 205.517 10.1637 205.828 10.1637Z" fill="white"/>
<path d="M210.505 4.33336H211.908V5.3576C212.142 4.96366 212.453 4.64851 212.765 4.49093C213.155 4.25457 213.544 4.17578 214.012 4.17578C214.791 4.17578 215.337 4.33336 215.805 4.7273C216.194 5.12124 216.428 5.67275 216.428 6.46063V11.1879H214.947V6.85457C214.947 6.30305 214.791 5.90911 214.635 5.67275C214.402 5.43639 214.09 5.27881 213.622 5.27881C213.389 5.27881 213.155 5.3576 212.921 5.43639C212.687 5.51518 212.531 5.67275 212.375 5.83033C212.219 5.9879 212.142 6.22427 212.064 6.38184C211.986 6.53942 211.986 6.93336 211.986 7.16972V11.1879H210.505V4.33336Z" fill="white"/>
<path d="M222.585 6.61834C222.507 6.22441 222.351 5.90925 222.117 5.67289C221.806 5.43653 221.494 5.35774 221.104 5.35774C220.948 5.35774 220.714 5.35774 220.481 5.43653C220.247 5.51531 220.091 5.5941 219.857 5.83047C219.701 5.98804 219.545 6.22441 219.39 6.61834C219.234 6.9335 219.234 7.32744 219.234 7.87895C219.234 8.1941 219.234 8.43047 219.312 8.74562C219.39 9.06077 219.468 9.29713 219.623 9.5335C219.779 9.76986 219.935 9.92744 220.169 10.085C220.403 10.2426 220.637 10.3214 221.026 10.3214C221.494 10.3214 221.806 10.1638 222.117 9.92744C222.429 9.69107 222.585 9.29713 222.663 8.74562H224.144C223.988 9.61229 223.676 10.3214 223.131 10.7941C222.585 11.2668 221.884 11.5032 221.026 11.5032C220.481 11.5032 220.013 11.4244 219.623 11.2668C219.234 11.1093 218.844 10.8729 218.61 10.5577C218.298 10.2426 218.143 9.84865 217.987 9.45471C217.831 9.06077 217.753 8.58804 217.753 8.03653C217.753 7.48501 217.831 7.01228 217.987 6.61834C218.143 6.14562 218.298 5.75168 218.61 5.43653C218.922 5.12138 219.234 4.80622 219.623 4.64865C220.013 4.49107 220.559 4.3335 221.104 4.3335C221.494 4.3335 221.884 4.41228 222.195 4.49107C222.507 4.56986 222.897 4.72744 223.131 4.9638C223.364 5.20016 223.598 5.43653 223.832 5.75168C223.988 6.06683 224.144 6.46077 224.144 6.85471H222.585V6.61834Z" fill="white"/>
<path d="M226.482 8.19403C226.482 8.4304 226.482 8.74555 226.56 8.98191C226.637 9.21828 226.715 9.45464 226.871 9.61222C227.027 9.76979 227.183 9.92737 227.417 10.0849C227.651 10.2425 227.884 10.2425 228.196 10.2425C228.664 10.2425 228.976 10.1637 229.287 9.92737C229.521 9.76979 229.755 9.45464 229.911 9.0607H231.314C231.236 9.45464 231.08 9.76979 230.924 10.0849C230.768 10.4001 230.534 10.6365 230.222 10.794C229.989 11.0304 229.677 11.1092 229.287 11.2668C228.898 11.4243 228.586 11.4243 228.196 11.4243C227.651 11.4243 227.183 11.3455 226.793 11.188C226.404 11.0304 226.014 10.794 225.78 10.4789C225.468 10.1637 225.313 9.76979 225.157 9.37585C225.001 8.98191 224.923 8.4304 224.923 7.95767C224.923 7.48494 225.001 7.01222 225.157 6.53949C225.313 6.06676 225.546 5.75161 225.78 5.35767C226.092 5.04252 226.404 4.72737 226.793 4.56979C227.183 4.41221 227.651 4.25464 228.118 4.25464C228.664 4.25464 229.131 4.33343 229.521 4.56979C229.911 4.80615 230.3 5.12131 230.612 5.43646C230.924 5.75161 231.08 6.22434 231.236 6.69706C231.392 7.16979 231.392 7.64252 231.314 8.19403H226.482V8.19403ZM229.989 7.16979C229.989 6.93343 229.911 6.69706 229.833 6.4607C229.755 6.22434 229.599 6.06676 229.521 5.90918C229.365 5.75161 229.209 5.59403 228.976 5.51524C228.742 5.43646 228.508 5.35767 228.274 5.35767C228.04 5.35767 227.806 5.43646 227.573 5.51524C227.339 5.59403 227.183 5.75161 227.027 5.90918C226.871 6.06676 226.715 6.30312 226.637 6.4607C226.559 6.61828 226.482 6.93343 226.482 7.16979H229.989Z" fill="white"/>
<path d="M232.639 4.33336H234.042V5.27881C234.275 4.88487 234.509 4.56972 234.899 4.41214C235.288 4.25457 235.678 4.17578 236.146 4.17578C236.691 4.17578 237.159 4.25457 237.549 4.49093C237.938 4.64851 238.25 4.96366 238.562 5.27881C238.796 5.59396 239.029 5.9879 239.185 6.46063C239.341 6.93336 239.419 7.40608 239.419 7.87881C239.419 8.35154 239.341 8.74548 239.263 9.21821C239.107 9.61215 238.951 10.0061 238.718 10.4C238.484 10.7152 238.172 11.0303 237.782 11.1879C237.393 11.4243 237.003 11.5031 236.458 11.5031C236.224 11.5031 235.99 11.5031 235.834 11.4243C235.6 11.3455 235.444 11.3455 235.211 11.2667C234.977 11.1879 234.821 11.0303 234.665 10.9515C234.509 10.794 234.353 10.6364 234.275 10.4788V13.8667H232.795V4.33336H232.639ZM237.86 7.80002C237.86 7.48487 237.782 7.16972 237.705 6.93336C237.627 6.69699 237.471 6.38184 237.315 6.14548C237.159 5.90911 236.925 5.75154 236.691 5.59396C236.458 5.43639 236.146 5.3576 235.912 5.3576C235.289 5.3576 234.821 5.59396 234.509 5.9879C234.197 6.46063 234.042 7.01215 234.042 7.72124C234.042 8.03639 234.119 8.35154 234.197 8.66669C234.275 8.98184 234.431 9.21821 234.587 9.45457C234.743 9.69093 234.977 9.84851 235.211 9.9273C235.444 10.0849 235.678 10.0849 235.99 10.0849C236.302 10.0849 236.613 10.0061 236.847 9.84851C237.081 9.69093 237.315 9.53336 237.393 9.29699C237.549 9.06063 237.627 8.82427 237.705 8.50912C237.86 8.35154 237.86 8.11518 237.86 7.80002Z" fill="white"/>
<path d="M239.965 4.33266H241.056V2.28418H242.537V4.33266H243.862V5.4357H242.537V9.05994C242.537 9.21751 242.537 9.37509 242.537 9.45388C242.537 9.53267 242.615 9.69024 242.615 9.76903C242.693 9.84782 242.771 9.92661 242.848 9.92661C242.926 9.92661 243.082 10.0054 243.238 10.0054C243.316 10.0054 243.472 10.0054 243.55 10.0054C243.628 10.0054 243.784 10.0054 243.862 9.92661V11.1084C243.706 11.1084 243.55 11.1084 243.394 11.1872C243.238 11.1872 243.082 11.1872 242.926 11.1872C242.537 11.1872 242.225 11.1872 241.991 11.1084C241.757 11.0296 241.601 10.9508 241.446 10.7933C241.29 10.6357 241.212 10.4781 241.134 10.2418C241.056 10.0054 241.056 9.76903 241.056 9.45388V5.4357H239.965V4.33266V4.33266Z" fill="white"/>
<path d="M248.615 1.7334H250.096V5.27885C250.252 4.9637 250.564 4.72734 250.953 4.49097C251.343 4.25461 251.733 4.17582 252.2 4.17582C252.98 4.17582 253.525 4.3334 253.993 4.72734C254.382 5.12128 254.616 5.67279 254.616 6.46067V11.1879H253.136V6.85461C253.136 6.3031 252.98 5.90916 252.824 5.67279C252.59 5.43643 252.278 5.27885 251.811 5.27885C251.577 5.27885 251.343 5.35764 251.109 5.43643C250.875 5.51522 250.72 5.67279 250.564 5.83037C250.408 5.98794 250.33 6.22431 250.252 6.38188C250.174 6.53946 250.096 6.85461 250.096 7.09098V11.1092H248.615V1.7334Z" fill="white"/>
<path d="M259.215 11.3455C258.67 11.3455 258.202 11.2668 257.734 11.1092C257.345 10.9516 256.955 10.7152 256.643 10.3213C256.331 9.92737 256.098 9.61222 255.942 9.21828C255.786 8.74555 255.708 8.27282 255.708 7.80009C255.708 7.24858 255.786 6.77585 255.942 6.38191C256.098 5.90918 256.331 5.59403 256.643 5.27888C256.955 4.96373 257.267 4.72737 257.734 4.491C258.124 4.33343 258.67 4.25464 259.215 4.25464C259.761 4.25464 260.228 4.33343 260.696 4.491C261.086 4.64858 261.475 4.88494 261.787 5.27888C262.099 5.59403 262.333 5.98797 262.488 6.38191C262.644 6.77585 262.722 7.32737 262.722 7.80009C262.722 8.35161 262.644 8.82434 262.488 9.21828C262.333 9.61222 262.099 10.0062 261.787 10.3213C261.475 10.6365 261.164 10.8728 260.696 11.1092C260.228 11.3456 259.761 11.3455 259.215 11.3455ZM259.215 10.1637C259.527 10.1637 259.839 10.0849 260.072 9.92737C260.306 9.76979 260.54 9.61222 260.696 9.37585C260.852 9.13949 261.008 8.90312 261.008 8.58797C261.086 8.27282 261.086 8.03646 261.086 7.72131C261.086 7.40615 261.086 7.16979 261.008 6.85464C260.93 6.53949 260.852 6.30312 260.696 6.06676C260.54 5.8304 260.306 5.67282 260.072 5.51524C259.839 5.35767 259.527 5.27888 259.215 5.27888C258.903 5.27888 258.592 5.35767 258.358 5.51524C258.124 5.67282 257.89 5.8304 257.734 6.06676C257.578 6.30312 257.423 6.53949 257.423 6.85464C257.423 7.16979 257.345 7.40615 257.345 7.72131C257.345 8.03646 257.345 8.35161 257.423 8.58797C257.501 8.82434 257.578 9.13949 257.734 9.37585C257.89 9.61222 258.124 9.76979 258.358 9.92737C258.67 10.0849 258.903 10.1637 259.215 10.1637Z" fill="white"/>
<path d="M269.892 11.188H268.411V10.2426C268.255 10.5577 267.943 10.8729 267.554 11.1093C267.164 11.3456 266.852 11.4244 266.463 11.4244C265.605 11.4244 264.904 11.188 264.514 10.7941C264.124 10.3214 263.891 9.69107 263.891 8.74562V4.3335H265.371V8.50925C265.371 9.13956 265.449 9.5335 265.683 9.76986C265.917 10.0062 266.229 10.1638 266.618 10.1638C266.93 10.1638 267.164 10.085 267.398 10.0062C267.632 9.92744 267.787 9.76986 267.943 9.61229C268.099 9.45471 268.177 9.21835 268.255 9.06077C268.333 8.82441 268.333 8.58804 268.333 8.35168V4.41228H269.814V11.188H269.892Z" fill="white"/>
<path d="M272.542 8.98184C272.62 9.45457 272.776 9.76972 273.009 9.9273C273.321 10.0849 273.633 10.1637 274.023 10.1637C274.178 10.1637 274.334 10.1637 274.49 10.1637C274.646 10.1637 274.802 10.0849 274.958 10.0061C275.114 9.9273 275.269 9.84851 275.347 9.76972C275.425 9.61215 275.503 9.53336 275.503 9.29699C275.503 9.13942 275.425 8.98184 275.27 8.82427C275.114 8.66669 274.958 8.5879 274.802 8.50912C274.568 8.43033 274.334 8.35154 274.1 8.35154C273.867 8.27275 273.555 8.27275 273.321 8.19396C273.009 8.11518 272.776 8.03639 272.542 7.9576C272.308 7.87881 272.074 7.72124 271.84 7.56366C271.606 7.40609 271.451 7.24851 271.373 7.01214C271.217 6.77578 271.217 6.46063 271.217 6.14548C271.217 5.75154 271.295 5.43639 271.451 5.20002C271.606 4.96366 271.84 4.7273 272.152 4.56972C272.464 4.41214 272.698 4.33336 273.087 4.25457C273.399 4.17578 273.711 4.17578 274.023 4.17578C274.334 4.17578 274.724 4.17578 275.036 4.25457C275.347 4.33336 275.659 4.41214 275.893 4.64851C276.127 4.80608 276.361 5.04245 276.516 5.27881C276.672 5.51518 276.828 5.90911 276.828 6.22427H275.27C275.192 5.83033 275.036 5.59396 274.802 5.51518C274.568 5.3576 274.256 5.3576 273.945 5.3576C273.867 5.3576 273.711 5.3576 273.555 5.3576C273.399 5.3576 273.243 5.43639 273.165 5.43639C273.009 5.51518 272.931 5.59396 272.853 5.67275C272.776 5.75154 272.698 5.90911 272.698 6.06669C272.698 6.22427 272.776 6.38184 272.853 6.53942C273.009 6.61821 273.165 6.77578 273.321 6.85457C273.555 6.93336 273.789 7.01214 274.023 7.01214C274.256 7.09093 274.568 7.09093 274.802 7.16972C275.036 7.24851 275.347 7.3273 275.581 7.40608C275.815 7.48487 276.049 7.64245 276.283 7.80002C276.516 7.9576 276.672 8.11518 276.75 8.35154C276.906 8.5879 276.906 8.90305 276.906 9.21821C276.906 9.61215 276.828 10.0061 276.594 10.2424C276.439 10.5576 276.205 10.794 275.893 10.9515C275.581 11.1091 275.27 11.2667 274.88 11.3455C274.49 11.4243 274.178 11.5031 273.789 11.5031C273.399 11.5031 272.931 11.4243 272.62 11.3455C272.23 11.2667 271.918 11.1091 271.684 10.8728C271.451 10.6364 271.217 10.4 271.061 10.1637C270.905 9.84851 270.827 9.53336 270.827 9.13942H272.542V8.98184Z" fill="white"/>
<path d="M279.401 8.19403C279.401 8.4304 279.401 8.74555 279.478 8.98191C279.556 9.21828 279.634 9.45464 279.79 9.61222C279.946 9.76979 280.102 9.92737 280.336 10.0849C280.57 10.2425 280.803 10.2425 281.115 10.2425C281.583 10.2425 281.894 10.1637 282.206 9.92737C282.44 9.76979 282.674 9.45464 282.83 9.0607H284.233C284.155 9.45464 283.999 9.76979 283.843 10.0849C283.687 10.4001 283.453 10.6365 283.141 10.794C282.908 11.0304 282.596 11.1092 282.206 11.2668C281.817 11.4243 281.505 11.4243 281.115 11.4243C280.57 11.4243 280.102 11.3455 279.712 11.188C279.323 11.0304 278.933 10.794 278.699 10.4789C278.387 10.1637 278.231 9.76979 278.076 9.37585C277.92 8.98191 277.842 8.4304 277.842 7.95767C277.842 7.48494 277.92 7.01222 278.076 6.53949C278.231 6.06676 278.465 5.75161 278.699 5.35767C279.011 5.04252 279.323 4.72737 279.712 4.56979C280.102 4.41221 280.57 4.25464 281.037 4.25464C281.583 4.25464 282.05 4.33343 282.44 4.56979C282.83 4.80615 283.219 5.12131 283.531 5.43646C283.843 5.75161 283.999 6.22434 284.155 6.69706C284.31 7.16979 284.31 7.64252 284.233 8.19403H279.401V8.19403ZM282.908 7.16979C282.908 6.93343 282.83 6.69706 282.752 6.4607C282.674 6.22434 282.518 6.06676 282.44 5.90918C282.284 5.75161 282.128 5.59403 281.894 5.51524C281.661 5.43646 281.427 5.35767 281.193 5.35767C280.959 5.35767 280.725 5.43646 280.492 5.51524C280.258 5.59403 280.102 5.75161 279.946 5.90918C279.79 6.06676 279.634 6.30312 279.556 6.4607C279.478 6.61828 279.401 6.93343 279.401 7.16979H282.908Z" fill="white"/>
</svg>
