<svg width="290" height="39" viewBox="0 0 290 39" fill="none" xmlns="http://www.w3.org/2000/svg">
<path d="M290 0H190.865V15.1061H290V0Z" fill="#2799C1"/>
<path d="M49.0997 38.3161V36.1918L83.1578 13.9261H49.4894V11.1724H88.8471V13.218L54.6332 35.641H89.4706V38.3947H49.0997V38.3161Z" fill="#4D4D4C"/>
<path d="M121.113 38.1584H110.202C107.162 38.1584 104.512 37.7651 102.174 37.057C99.914 36.3489 98.0435 35.3261 96.7186 34.0672C95.3937 32.8084 94.3805 31.3135 93.6791 29.6613C93.0556 28.0091 92.666 26.1995 92.666 24.2325C92.666 22.2656 92.9777 20.456 93.6791 18.8038C94.3026 17.1516 95.3158 15.6567 96.7186 14.3979C98.0435 13.139 99.914 12.1162 102.174 11.4081C104.434 10.7 107.084 10.3066 110.202 10.3066H121.113C124.152 10.3066 126.802 10.7 129.14 11.4081C131.4 12.1162 133.271 13.139 134.596 14.3979C135.92 15.6567 136.934 17.1516 137.635 18.8038C138.259 20.456 138.648 22.2656 138.648 24.2325C138.648 26.1995 138.336 28.0091 137.635 29.6613C137.012 31.3135 135.998 32.8084 134.596 34.0672C133.271 35.3261 131.4 36.3489 129.14 37.057C126.88 37.8437 124.23 38.1584 121.113 38.1584ZM110.279 35.4834H121.113C126.101 35.4834 129.764 34.4606 132.024 32.415C134.284 30.3694 135.453 27.6157 135.453 24.2325C135.453 20.8494 134.284 18.0957 132.024 16.0501C129.764 14.0045 126.101 12.9817 121.113 12.9817H110.279C105.292 12.9817 101.629 14.0045 99.3685 16.0501C97.1083 18.0957 95.9393 20.8494 95.9393 24.2325C95.9393 27.6157 97.1083 30.3694 99.3685 32.415C101.629 34.4606 105.292 35.4834 110.279 35.4834Z" fill="#4D4D4C"/>
<path d="M182.214 38.9455L147.455 15.2636V38.9455H144.493V11.8018H147.377L182.059 35.4837V11.8018H185.02V38.9455H182.214Z" fill="#4D4D4C"/>
<path d="M28.3687 38.7092H17.4577C14.4182 38.7092 11.7683 38.3158 9.43026 37.6077C7.17011 36.8996 5.29965 35.8768 3.97474 34.618C2.64982 33.3592 1.63666 31.8643 0.935232 30.2121C0.311744 28.5598 0 26.7503 0 24.7833C0 22.8164 0.311744 21.0068 1.01317 19.3546C1.63666 17.7024 2.64982 16.2075 4.05267 14.9486C5.37759 13.6898 7.24805 12.667 9.5082 11.9589C11.7683 11.2508 14.4182 10.8574 17.5356 10.8574H28.4467C31.4862 10.8574 34.136 11.2508 36.4741 11.9589C38.7342 12.667 40.6047 13.6898 41.9296 14.9486C43.2545 16.2075 44.2677 17.7024 44.9691 19.3546C45.5926 21.0068 45.9823 22.8164 45.9823 24.7833C45.9823 26.7503 45.6705 28.5598 44.9691 30.2121C44.3456 31.8643 43.3324 33.3592 41.9296 34.618C40.6047 35.8768 38.7342 36.8996 36.4741 37.6077C34.058 38.3945 31.4082 38.7092 28.3687 38.7092ZM17.4577 36.0342H28.2908C33.2787 36.0342 36.9417 35.0114 39.2018 32.9658C41.462 30.9202 42.631 28.1665 42.631 24.7833C42.631 21.4002 41.462 18.6465 39.2018 16.6009C36.9417 14.5553 33.2787 13.5325 28.2908 13.5325H17.4577C12.4698 13.5325 8.80677 14.5553 6.54663 16.6009C4.28648 18.6465 3.11744 21.4002 3.11744 24.7833C3.11744 28.1665 4.28648 30.9202 6.54663 32.9658C8.88471 35.0114 12.4698 36.0342 17.4577 36.0342Z" fill="#4D4D4C"/>
<path d="M199.984 6.60879C199.906 6.21541 199.75 5.9007 199.516 5.66466C199.204 5.42863 198.893 5.34995 198.503 5.34995C198.347 5.34995 198.113 5.34995 197.879 5.42863C197.646 5.50731 197.49 5.58599 197.256 5.82202C197.1 5.97937 196.944 6.21541 196.788 6.60879C196.633 6.9235 196.633 7.31689 196.633 7.86763C196.633 8.18234 196.633 8.41837 196.71 8.73308C196.788 9.04779 196.866 9.28382 197.022 9.51986C197.178 9.75589 197.334 9.91324 197.568 10.0706C197.802 10.228 198.035 10.3066 198.425 10.3066C198.893 10.3066 199.204 10.1493 199.516 9.91324C199.828 9.67721 199.984 9.28382 200.062 8.73308H201.542C201.387 9.59853 201.075 10.3066 200.529 10.7787C199.984 11.2508 199.282 11.4868 198.425 11.4868C197.88 11.4868 197.412 11.4081 197.022 11.2508C196.633 11.0934 196.243 10.8574 196.009 10.5427C195.697 10.228 195.541 9.83457 195.386 9.44118C195.23 9.04779 195.152 8.57573 195.152 8.02499C195.152 7.47424 195.23 7.00218 195.386 6.60879C195.541 6.13673 195.697 5.74334 196.009 5.42863C196.321 5.11392 196.633 4.79921 197.022 4.64186C197.412 4.4845 197.957 4.32715 198.503 4.32715C198.893 4.32715 199.282 4.40583 199.594 4.4845C199.984 4.56318 200.296 4.72054 200.529 4.95657C200.763 5.1926 200.997 5.42863 201.231 5.74334C201.387 6.05805 201.542 6.45144 201.542 6.84483H199.984V6.60879Z" fill="white"/>
<path d="M205.829 11.3295C205.284 11.3295 204.816 11.2508 204.348 11.0935C203.959 10.9361 203.569 10.7001 203.257 10.3067C202.945 9.91331 202.712 9.5986 202.556 9.20521C202.4 8.73315 202.322 8.26108 202.322 7.78902C202.322 7.23828 202.4 6.76621 202.556 6.37283C202.712 5.90076 202.945 5.58605 203.257 5.27134C203.569 4.95663 203.881 4.7206 204.348 4.48457C204.738 4.32721 205.284 4.24854 205.829 4.24854C206.375 4.24854 206.842 4.32721 207.31 4.48457C207.7 4.64192 208.089 4.87795 208.401 5.27134C208.713 5.58605 208.947 5.97944 209.102 6.37283C209.258 6.76621 209.336 7.31695 209.336 7.78902C209.336 8.33976 209.258 8.81182 209.102 9.20521C208.947 9.5986 208.713 9.99199 208.401 10.3067C208.089 10.6214 207.777 10.8574 207.31 11.0935C206.842 11.3295 206.375 11.3295 205.829 11.3295ZM205.829 10.1493C206.141 10.1493 206.453 10.0707 206.686 9.91331C206.92 9.75595 207.154 9.5986 207.31 9.36257C207.466 9.12653 207.622 8.8905 207.622 8.57579C207.7 8.26108 207.7 8.02505 207.7 7.71034C207.7 7.39563 207.7 7.1596 207.622 6.84489C207.544 6.53018 207.466 6.29415 207.31 6.05812C207.154 5.82208 206.92 5.66473 206.686 5.50737C206.453 5.35002 206.141 5.27134 205.829 5.27134C205.517 5.27134 205.206 5.35002 204.972 5.50737C204.738 5.66473 204.504 5.82208 204.348 6.05812C204.192 6.29415 204.037 6.53018 204.037 6.84489C204.037 7.1596 203.959 7.39563 203.959 7.71034C203.959 8.02505 203.959 8.33976 204.037 8.57579C204.114 8.81182 204.192 9.12653 204.348 9.36257C204.504 9.5986 204.738 9.75595 204.972 9.91331C205.206 10.0707 205.517 10.1493 205.829 10.1493Z" fill="white"/>
<path d="M210.505 4.32728H211.908V5.35008C212.142 4.9567 212.454 4.64199 212.765 4.48463C213.155 4.2486 213.545 4.16992 214.012 4.16992C214.792 4.16992 215.337 4.32728 215.805 4.72066C216.195 5.11405 216.428 5.66479 216.428 6.45157V11.1722H214.948V6.84495C214.948 6.29421 214.792 5.90082 214.636 5.66479C214.402 5.42876 214.09 5.27141 213.623 5.27141C213.389 5.27141 213.155 5.35008 212.921 5.42876C212.687 5.50744 212.532 5.66479 212.376 5.82215C212.22 5.9795 212.142 6.21553 212.064 6.37289C211.986 6.53024 211.986 6.92363 211.986 7.15966V11.1722H210.505V4.32728Z" fill="white"/>
<path d="M222.585 6.60879C222.507 6.21541 222.351 5.9007 222.118 5.66466C221.806 5.42863 221.494 5.34995 221.104 5.34995C220.949 5.34995 220.715 5.34995 220.481 5.42863C220.247 5.50731 220.091 5.58599 219.858 5.82202C219.702 5.97937 219.546 6.21541 219.39 6.60879C219.234 6.9235 219.234 7.31689 219.234 7.86763C219.234 8.18234 219.234 8.41837 219.312 8.73308C219.39 9.04779 219.468 9.28382 219.624 9.51986C219.78 9.75589 219.935 9.91324 220.169 10.0706C220.403 10.228 220.637 10.3066 221.027 10.3066C221.494 10.3066 221.806 10.1493 222.118 9.91324C222.429 9.67721 222.585 9.28382 222.663 8.73308H224.144C223.988 9.59853 223.676 10.3066 223.131 10.7787C222.585 11.2508 221.884 11.4868 221.027 11.4868C220.481 11.4868 220.013 11.4081 219.624 11.2508C219.234 11.0934 218.844 10.8574 218.611 10.5427C218.299 10.228 218.143 9.83457 217.987 9.44118C217.831 9.04779 217.753 8.57573 217.753 8.02499C217.753 7.47424 217.831 7.00218 217.987 6.60879C218.143 6.13673 218.299 5.74334 218.611 5.42863C218.922 5.11392 219.234 4.79921 219.624 4.64186C220.013 4.4845 220.559 4.32715 221.104 4.32715C221.494 4.32715 221.884 4.40583 222.196 4.4845C222.507 4.56318 222.897 4.72054 223.131 4.95657C223.365 5.1926 223.598 5.42863 223.832 5.74334C223.988 6.05805 224.144 6.45144 224.144 6.84483H222.585V6.60879Z" fill="white"/>
<path d="M226.482 8.1824C226.482 8.41844 226.482 8.73315 226.56 8.96918C226.638 9.20521 226.716 9.44124 226.872 9.5986C227.028 9.75595 227.183 9.91331 227.417 10.0707C227.651 10.228 227.885 10.228 228.197 10.228C228.664 10.228 228.976 10.1493 229.288 9.91331C229.522 9.75595 229.755 9.44124 229.911 9.04786H231.314C231.236 9.44124 231.08 9.75595 230.924 10.0707C230.769 10.3854 230.535 10.6214 230.223 10.7788C229.989 11.0148 229.677 11.0935 229.288 11.2508C228.898 11.4082 228.586 11.4082 228.197 11.4082C227.651 11.4082 227.183 11.3295 226.794 11.1721C226.404 11.0148 226.014 10.7788 225.781 10.464C225.469 10.1493 225.313 9.75595 225.157 9.36257C225.001 8.96918 224.923 8.41844 224.923 7.94637C224.923 7.47431 225.001 7.00224 225.157 6.53018C225.313 6.05812 225.547 5.74341 225.781 5.35002C226.092 5.03531 226.404 4.7206 226.794 4.56324C227.183 4.40589 227.651 4.24854 228.119 4.24854C228.664 4.24854 229.132 4.32721 229.522 4.56324C229.911 4.79928 230.301 5.11399 230.613 5.4287C230.924 5.74341 231.08 6.21547 231.236 6.68753C231.392 7.1596 231.392 7.63166 231.314 8.1824H226.482ZM229.989 7.1596C229.989 6.92357 229.911 6.68753 229.833 6.4515C229.755 6.21547 229.599 6.05812 229.522 5.90076C229.366 5.74341 229.21 5.58605 228.976 5.50737C228.742 5.4287 228.508 5.35002 228.275 5.35002C228.041 5.35002 227.807 5.4287 227.573 5.50737C227.339 5.58605 227.183 5.74341 227.028 5.90076C226.872 6.05812 226.716 6.29415 226.638 6.4515C226.56 6.60886 226.482 6.92357 226.482 7.1596H229.989Z" fill="white"/>
<path d="M232.639 4.32728H234.042V5.27141C234.276 4.87802 234.509 4.56331 234.899 4.40595C235.289 4.2486 235.679 4.16992 236.146 4.16992C236.692 4.16992 237.159 4.2486 237.549 4.48463C237.939 4.64199 238.25 4.9567 238.562 5.27141C238.796 5.58611 239.03 5.9795 239.186 6.45157C239.342 6.92363 239.419 7.3957 239.419 7.86776C239.419 8.33982 239.342 8.73321 239.264 9.20528C239.108 9.59866 238.952 9.99205 238.718 10.3854C238.484 10.7001 238.173 11.0149 237.783 11.1722C237.393 11.4082 237.003 11.4869 236.458 11.4869C236.224 11.4869 235.99 11.4869 235.834 11.4082C235.601 11.3296 235.445 11.3296 235.211 11.2509C234.977 11.1722 234.821 11.0149 234.665 10.9362C234.51 10.7788 234.354 10.6215 234.276 10.4641V13.8472H232.795V4.32728H232.639ZM237.861 7.78908C237.861 7.47437 237.783 7.15966 237.705 6.92363C237.627 6.6876 237.471 6.37289 237.315 6.13686C237.159 5.90082 236.926 5.74347 236.692 5.58611C236.458 5.42876 236.146 5.35008 235.912 5.35008C235.289 5.35008 234.821 5.58611 234.509 5.9795C234.198 6.45157 234.042 7.00231 234.042 7.71041C234.042 8.02511 234.12 8.33982 234.198 8.65453C234.276 8.96924 234.432 9.20528 234.587 9.44131C234.743 9.67734 234.977 9.8347 235.211 9.91337C235.445 10.0707 235.679 10.0707 235.99 10.0707C236.302 10.0707 236.614 9.99205 236.848 9.83469C237.081 9.67734 237.315 9.51999 237.393 9.28395C237.549 9.04792 237.627 8.81189 237.705 8.49718C237.861 8.33982 237.861 8.10379 237.861 7.78908Z" fill="white"/>
<path d="M239.965 4.32735H241.056V2.28174H242.537V4.32735H243.862V5.42883H242.537V9.048C242.537 9.20535 242.537 9.3627 242.537 9.44138C242.537 9.52006 242.615 9.67741 242.615 9.75609C242.693 9.83477 242.771 9.91345 242.849 9.91345C242.927 9.91345 243.082 9.99212 243.238 9.99212C243.316 9.99212 243.472 9.99212 243.55 9.99212C243.628 9.99212 243.784 9.99212 243.862 9.91345V11.0936C243.706 11.0936 243.55 11.0936 243.394 11.1723C243.238 11.1723 243.082 11.1723 242.927 11.1723C242.537 11.1723 242.225 11.1723 241.991 11.0936C241.757 11.0149 241.602 10.9363 241.446 10.7789C241.29 10.6215 241.212 10.4642 241.134 10.2282C241.056 9.99212 241.056 9.75609 241.056 9.44138V5.42883H239.965V4.32735Z" fill="white"/>
<path d="M248.616 1.73096H250.097V5.27144C250.252 4.95673 250.564 4.7207 250.954 4.48467C251.344 4.24863 251.733 4.16996 252.201 4.16996C252.98 4.16996 253.526 4.32731 253.993 4.7207C254.383 5.11409 254.617 5.66483 254.617 6.4516V11.1722H253.136V6.84499C253.136 6.29425 252.98 5.90086 252.824 5.66483C252.591 5.42879 252.279 5.27144 251.811 5.27144C251.577 5.27144 251.344 5.35012 251.11 5.42879C250.876 5.50747 250.72 5.66483 250.564 5.82218C250.408 5.97954 250.33 6.21557 250.253 6.37292C250.175 6.53028 250.097 6.84499 250.097 7.08102V11.0936H248.616V1.73096Z" fill="white"/>
<path d="M259.215 11.3295C258.67 11.3295 258.202 11.2508 257.734 11.0935C257.345 10.9361 256.955 10.7001 256.643 10.3067C256.332 9.91331 256.098 9.5986 255.942 9.20521C255.786 8.73315 255.708 8.26108 255.708 7.78902C255.708 7.23828 255.786 6.76621 255.942 6.37283C256.098 5.90076 256.332 5.58605 256.643 5.27134C256.955 4.95663 257.267 4.7206 257.734 4.48457C258.124 4.32721 258.67 4.24854 259.215 4.24854C259.761 4.24854 260.228 4.32721 260.696 4.48457C261.086 4.64192 261.475 4.87795 261.787 5.27134C262.099 5.58605 262.333 5.97944 262.488 6.37283C262.644 6.76621 262.722 7.31695 262.722 7.78902C262.722 8.33976 262.644 8.81182 262.488 9.20521C262.333 9.5986 262.099 9.99199 261.787 10.3067C261.475 10.6214 261.164 10.8574 260.696 11.0935C260.228 11.3295 259.761 11.3295 259.215 11.3295ZM259.215 10.1493C259.527 10.1493 259.839 10.0707 260.072 9.91331C260.306 9.75595 260.54 9.5986 260.696 9.36257C260.852 9.12653 261.008 8.8905 261.008 8.57579C261.086 8.26108 261.086 8.02505 261.086 7.71034C261.086 7.39563 261.086 7.1596 261.008 6.84489C260.93 6.53018 260.852 6.29415 260.696 6.05812C260.54 5.82208 260.306 5.66473 260.072 5.50737C259.839 5.35002 259.527 5.27134 259.215 5.27134C258.903 5.27134 258.592 5.35002 258.358 5.50737C258.124 5.66473 257.89 5.82208 257.734 6.05812C257.579 6.29415 257.423 6.53018 257.423 6.84489C257.423 7.1596 257.345 7.39563 257.345 7.71034C257.345 8.02505 257.345 8.33976 257.423 8.57579C257.501 8.81182 257.579 9.12653 257.734 9.36257C257.89 9.5986 258.124 9.75595 258.358 9.91331C258.67 10.0707 258.903 10.1493 259.215 10.1493Z" fill="white"/>
<path d="M269.893 11.1721H268.412V10.228C268.256 10.5427 267.944 10.8574 267.554 11.0934C267.165 11.3294 266.853 11.4081 266.463 11.4081C265.606 11.4081 264.905 11.1721 264.515 10.7787C264.125 10.3066 263.891 9.67721 263.891 8.73308V4.32715H265.372V8.49705C265.372 9.12647 265.45 9.51986 265.684 9.75589C265.918 9.99192 266.23 10.1493 266.619 10.1493C266.931 10.1493 267.165 10.0706 267.399 9.99192C267.632 9.91324 267.788 9.75589 267.944 9.59853C268.1 9.44118 268.178 9.20515 268.256 9.04779C268.334 8.81176 268.334 8.57573 268.334 8.3397V4.40583H269.815V11.1721H269.893Z" fill="white"/>
<path d="M272.542 8.96924C272.62 9.44131 272.776 9.75602 273.01 9.91337C273.322 10.0707 273.633 10.1494 274.023 10.1494C274.179 10.1494 274.335 10.1494 274.491 10.1494C274.646 10.1494 274.802 10.0707 274.958 9.99205C275.114 9.91337 275.27 9.83469 275.348 9.75602C275.426 9.59866 275.504 9.51999 275.504 9.28395C275.504 9.1266 275.426 8.96924 275.27 8.81189C275.114 8.65453 274.958 8.57586 274.802 8.49718C274.569 8.4185 274.335 8.33982 274.101 8.33982C273.867 8.26115 273.555 8.26115 273.322 8.18247C273.01 8.10379 272.776 8.02511 272.542 7.94644C272.308 7.86776 272.075 7.71041 271.841 7.55305C271.607 7.3957 271.451 7.23834 271.373 7.00231C271.217 6.76628 271.217 6.45157 271.217 6.13686C271.217 5.74347 271.295 5.42876 271.451 5.19273C271.607 4.9567 271.841 4.72066 272.152 4.56331C272.464 4.40595 272.698 4.32728 273.088 4.2486C273.399 4.16992 273.711 4.16992 274.023 4.16992C274.335 4.16992 274.724 4.16992 275.036 4.2486C275.348 4.32728 275.66 4.40595 275.893 4.64199C276.127 4.79934 276.361 5.03537 276.517 5.27141C276.673 5.50744 276.829 5.90082 276.829 6.21553H275.27C275.192 5.82215 275.036 5.58612 274.802 5.50744C274.569 5.35008 274.257 5.35008 273.945 5.35008C273.867 5.35008 273.711 5.35008 273.555 5.35008C273.399 5.35008 273.244 5.42876 273.166 5.42876C273.01 5.50744 272.932 5.58611 272.854 5.66479C272.776 5.74347 272.698 5.90082 272.698 6.05818C272.698 6.21553 272.776 6.37289 272.854 6.53024C273.01 6.60892 273.166 6.76628 273.322 6.84495C273.555 6.92363 273.789 7.00231 274.023 7.00231C274.257 7.08099 274.569 7.08099 274.802 7.15966C275.036 7.23834 275.348 7.31702 275.582 7.39569C275.815 7.47437 276.049 7.63173 276.283 7.78908C276.517 7.94644 276.673 8.10379 276.751 8.33982C276.907 8.57586 276.907 8.89057 276.907 9.20528C276.907 9.59866 276.829 9.99205 276.595 10.2281C276.439 10.5428 276.205 10.7788 275.893 10.9362C275.582 11.0935 275.27 11.2509 274.88 11.3296C274.491 11.4082 274.179 11.4869 273.789 11.4869C273.399 11.4869 272.932 11.4082 272.62 11.3296C272.23 11.2509 271.919 11.0935 271.685 10.8575C271.451 10.6215 271.217 10.3854 271.061 10.1494C270.906 9.83469 270.828 9.51999 270.828 9.1266H272.542V8.96924Z" fill="white"/>
<path d="M279.401 8.1824C279.401 8.41844 279.401 8.73315 279.479 8.96918C279.557 9.20521 279.634 9.44124 279.79 9.5986C279.946 9.75595 280.102 9.91331 280.336 10.0707C280.57 10.228 280.803 10.228 281.115 10.228C281.583 10.228 281.895 10.1493 282.206 9.91331C282.44 9.75595 282.674 9.44124 282.83 9.04786H284.233C284.155 9.44124 283.999 9.75595 283.843 10.0707C283.687 10.3854 283.453 10.6214 283.142 10.7788C282.908 11.0148 282.596 11.0935 282.206 11.2508C281.817 11.4082 281.505 11.4082 281.115 11.4082C280.57 11.4082 280.102 11.3295 279.712 11.1721C279.323 11.0148 278.933 10.7788 278.699 10.464C278.387 10.1493 278.232 9.75595 278.076 9.36257C277.92 8.96918 277.842 8.41844 277.842 7.94637C277.842 7.47431 277.92 7.00224 278.076 6.53018C278.232 6.05812 278.465 5.74341 278.699 5.35002C279.011 5.03531 279.323 4.7206 279.712 4.56324C280.102 4.40589 280.57 4.24854 281.037 4.24854C281.583 4.24854 282.05 4.32721 282.44 4.56324C282.83 4.79928 283.219 5.11399 283.531 5.4287C283.843 5.74341 283.999 6.21547 284.155 6.68753C284.311 7.1596 284.311 7.63166 284.233 8.1824H279.401ZM282.908 7.1596C282.908 6.92357 282.83 6.68753 282.752 6.4515C282.674 6.21547 282.518 6.05812 282.44 5.90076C282.284 5.74341 282.128 5.58605 281.895 5.50737C281.661 5.4287 281.427 5.35002 281.193 5.35002C280.959 5.35002 280.726 5.4287 280.492 5.50737C280.258 5.58605 280.102 5.74341 279.946 5.90076C279.79 6.05812 279.634 6.29415 279.557 6.4515C279.479 6.60886 279.401 6.92357 279.401 7.1596H282.908Z" fill="white"/>
</svg>
