<svg width="58" height="58" viewBox="0 0 58 58" fill="none" xmlns="http://www.w3.org/2000/svg">
<g filter="url(#filter0_d)">
<path d="M29 54C42.8072 54 54 42.8071 54 29C54 15.1929 42.8072 4 29 4C15.1929 4 4.00003 15.1929 4.00003 29C4.00003 42.8071 15.1929 54 29 54Z" fill="white"/>
</g>
<path d="M14.3857 36.7188H13.7338V38.7977H14.324C14.694 38.7977 14.9759 38.7096 15.1697 38.5246C15.3635 38.3397 15.4604 38.0842 15.4604 37.7406C15.4604 37.4235 15.3635 37.168 15.1785 36.9918C14.9847 36.8068 14.7204 36.7188 14.3857 36.7188ZM14.3593 38.4277H14.1743V37.0799H14.4121C14.8085 37.0799 15.0023 37.3002 15.0023 37.7494C15.0023 38.1987 14.7909 38.4277 14.3593 38.4277Z" fill="#405174"/>
<path d="M16.7555 38.7889H17.9536V38.4277H17.196V37.8904H17.9007V37.5292H17.196V37.0799H17.9536V36.7188H16.7555V38.7889Z" fill="#405174"/>
<path d="M20.0499 37.952C19.9882 38.1723 19.953 38.322 19.9442 38.4101C19.9354 38.3749 19.9266 38.3044 19.9001 38.2075C19.8737 38.1106 19.8561 38.0225 19.8297 37.952L19.4421 36.7188H19.0016L19.7063 38.7977H20.182L20.8868 36.7188H20.4463L20.0499 37.952Z" fill="#405174"/>
<path d="M22.0126 38.7889H23.2107V38.4277H22.4531V37.8904H23.1578V37.5292H22.4531V37.0799H23.2107V36.7188H22.0126V38.7889Z" fill="#405174"/>
<path d="M24.9547 36.7188H24.5143V38.7889H25.8004V38.4277H24.9547V36.7188Z" fill="#405174"/>
<path d="M27.9337 36.6836C27.6166 36.6836 27.37 36.7717 27.2026 36.9567C27.0352 37.1417 26.9471 37.4059 26.9471 37.7495C26.9471 38.0931 27.0352 38.3573 27.2026 38.5423C27.37 38.7273 27.6166 38.8154 27.9337 38.8154C28.2509 38.8154 28.4975 38.7185 28.6649 38.5423C28.8323 38.3573 28.9204 38.0931 28.9204 37.7495C28.9204 37.4059 28.8323 37.1417 28.6649 36.9567C28.4887 36.7717 28.2509 36.6836 27.9337 36.6836ZM27.9249 38.4542C27.7487 38.4542 27.6166 38.3926 27.5285 38.278C27.4404 38.1635 27.3964 37.9873 27.3964 37.7583C27.3964 37.5293 27.4404 37.3531 27.5285 37.2298C27.6166 37.1152 27.7487 37.0536 27.9249 37.0536C28.2773 37.0536 28.4447 37.2914 28.4447 37.7583C28.4535 38.2164 28.2773 38.4542 27.9249 38.4542Z" fill="#405174"/>
<path d="M30.8764 36.7188H30.2158V38.7977H30.6562V38.0578H30.8412C31.0967 38.0578 31.2993 37.9961 31.4402 37.8816C31.5812 37.7671 31.6516 37.5909 31.6516 37.3706C31.6516 37.1592 31.59 36.9918 31.4578 36.8861C31.3257 36.7716 31.1319 36.7188 30.8764 36.7188ZM31.1055 37.6085C31.035 37.6613 30.9381 37.6878 30.806 37.6878H30.6562V37.0711H30.8588C30.9822 37.0711 31.0702 37.0975 31.1231 37.1416C31.176 37.1945 31.2112 37.2649 31.2112 37.3706C31.2024 37.4852 31.176 37.5556 31.1055 37.6085Z" fill="#405174"/>
<path d="M34.011 38.3044L33.5088 36.7188H32.9098V38.7977H33.3062V37.8287C33.3062 37.7142 33.2974 37.494 33.2798 37.168H33.2886L33.7907 38.7977H34.196L34.7333 37.1768H34.7421C34.7333 37.4411 34.7245 37.5997 34.7245 37.6613C34.7245 37.723 34.7245 37.7759 34.7245 37.8199V38.7977H35.1385V36.7188H34.5307L34.011 38.3044Z" fill="#405174"/>
<path d="M36.5231 38.7889H37.7211V38.4277H36.9635V37.8904H37.6683V37.5292H36.9635V37.0799H37.7211V36.7188H36.5231V38.7889Z" fill="#405174"/>
<path d="M40.4694 37.6966C40.4694 37.8111 40.4782 37.9961 40.487 38.2692H40.4782L39.5796 36.7188H39.0247V38.7977H39.4211V37.8199C39.4211 37.7054 39.4123 37.5028 39.3946 37.2297H39.4034L40.302 38.7977H40.857V36.7188H40.4605V37.6966H40.4694Z" fill="#405174"/>
<path d="M42.0559 37.0799H42.6197V38.7889H43.0601V37.0799H43.6239V36.7188H42.0559V37.0799Z" fill="#405174"/>
<path d="M50.3526 32.3231L47.2517 25.4168L49.3219 20.8448L49.2074 20.792L47.1813 25.2582L46.0537 22.7388H45.992H44.7588H44.6971L40.3983 32.3143H41.6932L42.9441 29.5394H45.2521L43.041 34.4285L43.1555 34.4814L46.6087 26.8439L49.0664 32.3055H50.3526V32.3231ZM45.7806 28.359H43.4726L45.3754 24.1218L46.5294 26.7029L45.7806 28.359Z" fill="#405174"/>
<path d="M34.1173 27.1874L36.989 20.8448L36.8745 20.792L35.8527 23.0383C35.7469 22.9855 35.6324 22.9326 35.5179 22.8886C34.8925 22.6419 34.223 22.5098 33.5182 22.5098C32.1264 22.5098 30.946 22.9943 29.977 23.9545C29.008 24.9235 28.5323 26.1039 28.5323 27.5222C28.5323 28.9316 29.0168 30.1209 29.977 31.0899C30.4879 31.6008 31.0605 31.9708 31.6948 32.2174L30.6905 34.4461L30.805 34.499L31.8181 32.2615C32.3466 32.4465 32.9104 32.5434 33.5182 32.5434C34.9717 32.5434 36.1522 32.0677 37.0419 31.1251C37.8347 30.3323 38.2311 29.2664 38.2311 27.9186C38.2311 27.6895 38.2047 27.4429 38.1606 27.1962H34.1173V27.1874ZM30.8755 30.2706C30.162 29.5395 29.8008 28.6233 29.8008 27.5222C29.8008 26.421 30.162 25.5049 30.8755 24.7737C31.5979 24.0514 32.4876 23.6902 33.5271 23.6902C34.0644 23.6902 34.5665 23.7871 35.0334 23.9897C35.1479 24.0338 35.2536 24.0954 35.3505 24.1483L32.1969 31.1163C31.7124 30.9489 31.2631 30.667 30.8755 30.2706ZM35.9143 30.5525C35.2801 31.0899 34.4872 31.3541 33.5271 31.3541C33.0954 31.3541 32.6902 31.2925 32.3202 31.1691L33.5975 28.3414H37.0066C36.9097 29.2752 36.5486 30.0151 35.9143 30.5525Z" fill="#405174"/>
<path d="M13.7778 27.9976C13.4254 27.5924 12.8705 27.24 12.1129 26.9405L14.738 21.153L14.6235 21.1001L13.54 23.505C13.399 23.3552 13.2316 23.2055 13.0466 23.0821C12.5093 22.7034 11.875 22.5184 11.1439 22.5184C10.3158 22.5184 9.61109 22.765 9.0385 23.2671C8.47471 23.7693 8.19282 24.3683 8.19282 25.073C8.19282 26.0861 8.70375 26.8436 9.7168 27.3634C9.90179 27.4603 10.3863 27.6453 11.1527 27.9272C11.2672 27.9624 11.3729 28.0064 11.4786 28.0417L10.1308 31.0192C10.0339 30.9575 9.94584 30.8958 9.85774 30.8254C9.66394 30.658 9.49657 30.4642 9.35562 30.2263C9.21468 29.9973 9.10016 29.733 9.02088 29.4511L7.84045 29.9356C8.06949 30.7373 8.49233 31.3715 9.10016 31.8384C9.26753 31.9617 9.43491 32.0674 9.61109 32.1643L8.43948 34.7454L8.55399 34.7983L9.72561 32.2172C10.1749 32.4286 10.6682 32.5343 11.1967 32.5343C12.0865 32.5343 12.8528 32.2877 13.4783 31.7855C14.0949 31.2746 14.4033 30.6051 14.4033 29.7595C14.3944 29.0635 14.1918 28.4733 13.7778 27.9976ZM11.69 26.782C10.7298 26.456 10.1132 26.1653 9.83132 25.9275C9.57585 25.6896 9.44372 25.3989 9.44372 25.073C9.44372 24.6678 9.61109 24.3418 9.93703 24.0952C10.2718 23.8309 10.677 23.69 11.1527 23.69C11.6108 23.69 11.9984 23.8045 12.3155 24.0423C12.6062 24.2626 12.8 24.5268 12.9145 24.844L11.9896 26.8877C11.8927 26.8613 11.7958 26.8172 11.69 26.782ZM12.5974 30.9223C12.2362 31.213 11.7781 31.3539 11.2144 31.3539C10.9589 31.3539 10.7122 31.3099 10.4744 31.213C10.3863 31.1777 10.307 31.1337 10.2189 31.0896L11.5755 28.0945C12.0953 28.3059 12.4652 28.5174 12.6855 28.7288C12.985 29.0107 13.1259 29.3542 13.1259 29.7595C13.1347 30.244 12.9586 30.6316 12.5974 30.9223Z" fill="#405174"/>
<path d="M25.5299 20.8448L25.4154 20.792L23.3981 25.2582L22.2881 22.7829L23.1691 20.8448L23.0545 20.792L22.1736 22.7476H21.0373L21.9005 20.8448L21.786 20.792L15.6108 34.4373L15.7254 34.4902L16.712 32.3231H17.8484L16.8882 34.4373L17.0027 34.4902L19.2402 29.5482H21.4689L19.2578 34.4373L19.3723 34.4902L22.8343 26.8527L25.2921 32.3231H26.587L23.4598 25.408L25.5299 20.8448ZM21.9798 28.359H19.7511L21.6275 24.2187L22.7374 26.6941L21.9798 28.359Z" fill="#405174"/>
<path d="M46.6777 46.6778C56.4408 36.9148 56.4408 21.085 46.6777 11.3222C36.9146 1.55926 21.0847 1.55926 11.3223 11.3222C1.55923 21.0852 1.55923 36.915 11.3223 46.6778C21.0854 56.4408 36.9153 56.4408 46.6777 46.6776V46.6778Z" fill="#405174"/>
<path d="M14.3868 36.7192H13.7347V38.7982H14.325C14.6949 38.7982 14.977 38.71 15.1708 38.5251C15.3646 38.3401 15.4614 38.0846 15.4614 37.7411C15.4614 37.424 15.3646 37.1685 15.1795 36.9923C14.9857 36.8072 14.7214 36.7192 14.3868 36.7192ZM14.3603 38.4281H14.1752V37.0803H14.4131C14.8095 37.0803 15.0033 37.3007 15.0033 37.7499C15.0033 38.1992 14.7919 38.4281 14.3603 38.4281Z" fill="white"/>
<path d="M16.7564 38.7903H17.9544V38.429H17.1969V37.8918H17.9017V37.5305H17.1969V37.0813H17.9544V36.7202H16.7564V38.7903Z" fill="white"/>
<path d="M20.0497 37.9524C19.9881 38.1728 19.9527 38.3225 19.944 38.4105C19.9351 38.3754 19.9264 38.3047 19.9 38.2079C19.8735 38.111 19.8559 38.023 19.8295 37.9524L19.4419 36.7192H19.0014L19.7062 38.7982H20.1818L20.8866 36.7192H20.4461L20.0497 37.9524Z" fill="white"/>
<path d="M22.0161 38.7903H23.2141V38.429H22.4566V37.8918H23.1612V37.5305H22.4566V37.0813H23.2141V36.7202H22.0161V38.7903Z" fill="white"/>
<path d="M24.9578 36.7192H24.5173V38.7893H25.8035V38.4281H24.9578V36.7192Z" fill="white"/>
<path d="M27.9348 36.6831C27.6175 36.6831 27.371 36.7713 27.2035 36.9562C27.0362 37.1412 26.9481 37.4054 26.9481 37.7491C26.9481 38.0926 27.0362 38.3568 27.2035 38.5419C27.371 38.7267 27.6175 38.8149 27.9348 38.8149C28.2518 38.8149 28.4985 38.7181 28.6658 38.5419C28.8333 38.3568 28.9214 38.0926 28.9214 37.7491C28.9214 37.4054 28.8333 37.1412 28.6658 36.9562C28.4896 36.7713 28.2518 36.6831 27.9348 36.6831ZM27.9259 38.4537C27.7497 38.4537 27.6175 38.3921 27.5294 38.2775C27.4413 38.1631 27.3973 37.9869 27.3973 37.7578C27.3973 37.5287 27.4413 37.3525 27.5294 37.2292C27.6175 37.1148 27.7497 37.053 27.9259 37.053C28.2783 37.053 28.4456 37.291 28.4456 37.7578C28.4545 38.2159 28.2783 38.4537 27.9259 38.4537Z" fill="white"/>
<path d="M30.8768 36.7192H30.216V38.7982H30.6565V38.0581H30.8414C31.097 38.0581 31.2995 37.9966 31.4405 37.8819C31.5814 37.7675 31.6519 37.5913 31.6519 37.3711C31.6519 37.1596 31.5903 36.9923 31.4581 36.8865C31.326 36.7721 31.1322 36.7192 30.8768 36.7192ZM31.1057 37.6089C31.0352 37.6617 30.9384 37.6882 30.8063 37.6882H30.6565V37.0716H30.8592C30.9825 37.0716 31.0706 37.0981 31.1233 37.1421C31.1762 37.1949 31.2114 37.2654 31.2114 37.3711C31.2027 37.4856 31.1762 37.556 31.1057 37.6089Z" fill="white"/>
<path d="M34.0131 38.3043L33.511 36.7188H32.9119V38.7977H33.3083V37.8286C33.3083 37.7141 33.2994 37.4939 33.2818 37.168H33.2907L33.7929 38.7977H34.198L34.7355 37.1767H34.7442C34.7355 37.4411 34.7266 37.5997 34.7266 37.6613V37.8199V38.7977H35.1406V36.7188H34.5328L34.0131 38.3043Z" fill="white"/>
<path d="M36.524 38.7903H37.7221V38.429H36.9643V37.8918H37.6691V37.5305H36.9643V37.0813H37.7221V36.7202H36.524V38.7903Z" fill="white"/>
<path d="M40.4687 37.698C40.4687 37.8125 40.4776 37.9975 40.4865 38.2706H40.4776L39.579 36.7202H39.0242V38.7992H39.4206V37.8214C39.4206 37.7067 39.4117 37.5041 39.3941 37.231H39.4028L40.3014 38.7992H40.8565V36.7202H40.46V37.698H40.4687Z" fill="white"/>
<path d="M42.0551 37.0803H42.6188V38.7893H43.0593V37.0803H43.6231V36.7192H42.0551V37.0803Z" fill="white"/>
<path d="M50.3532 32.3235L47.2523 25.4174L49.3225 20.8454L49.2079 20.7925L47.1818 25.2588L46.0543 22.7394H44.6977L40.3988 32.3148H41.6938L42.9446 29.54H45.2525L43.0416 34.4289L43.1561 34.4818L46.6092 26.8443L49.067 32.306H50.3532V32.3235ZM45.7811 28.3596H43.4732L45.376 24.1223L46.53 26.7034L45.7811 28.3596Z" fill="white"/>
<path d="M34.1192 27.1885L36.9909 20.8458L36.8766 20.793L35.8545 23.0394C35.7489 22.9866 35.6345 22.9337 35.5199 22.8897C34.8943 22.6429 34.2249 22.5109 33.5201 22.5109C32.1283 22.5109 30.9479 22.9952 29.979 23.9555C29.0099 24.9244 28.5342 26.1049 28.5342 27.5231C28.5342 28.9326 29.0188 30.1217 29.979 31.0909C30.4898 31.6017 31.0624 31.9718 31.6967 32.2184L30.6925 34.4472L30.807 34.4998L31.82 32.2624C32.3486 32.4475 32.9123 32.5444 33.5201 32.5444C34.9737 32.5444 36.1542 32.0687 37.0439 31.126C37.8368 30.3332 38.233 29.2674 38.233 27.9197C38.233 27.6906 38.2067 27.444 38.1627 27.1972H34.1192V27.1885ZM30.8775 30.2717C30.1639 29.5405 29.8028 28.6242 29.8028 27.5231C29.8028 26.422 30.1639 25.5059 30.8775 24.7747C31.5999 24.0524 32.4896 23.6913 33.529 23.6913C34.0663 23.6913 34.5684 23.7882 35.0354 23.9908C35.1499 24.0348 35.2556 24.0964 35.3524 24.1492L32.1988 31.1173C31.7143 30.9498 31.2651 30.6681 30.8775 30.2717ZM35.9164 30.5534C35.2821 31.0909 34.4892 31.3551 33.529 31.3551C33.0974 31.3551 32.6921 31.2935 32.3221 31.1702L33.5995 28.3425H37.0087C36.9117 29.2761 36.5506 30.0162 35.9164 30.5534Z" fill="white"/>
<path d="M13.7788 28C13.4266 27.5949 12.8716 27.2425 12.114 26.943L14.739 21.1554L14.6246 21.1025L13.541 23.5074C13.4001 23.3577 13.2326 23.2079 13.0477 23.0846C12.5103 22.7058 11.8761 22.5207 11.1449 22.5207C10.3169 22.5207 9.61215 22.7676 9.03946 23.2697C8.47568 23.7716 8.19379 24.3708 8.19379 25.0754C8.19379 26.0885 8.70472 26.8462 9.71776 27.3658C9.90276 27.4627 10.3872 27.6478 11.1536 27.9295C11.2682 27.9649 11.3739 28.0089 11.4796 28.0442L10.1318 31.0216C10.0349 30.9599 9.94679 30.8983 9.85871 30.8277C9.66492 30.6604 9.49753 30.4666 9.35659 30.2287C9.21565 29.9998 9.10112 29.7354 9.02184 29.4535L7.84143 29.9381C8.07047 30.7397 8.4933 31.374 9.10112 31.8408C9.26849 31.9641 9.43588 32.0699 9.61206 32.1668L8.44044 34.7479L8.55497 34.8007L9.72657 32.2196C10.1758 32.431 10.6691 32.5367 11.1977 32.5367C12.0874 32.5367 12.8538 32.2901 13.4792 31.7879C14.0959 31.2769 14.4042 30.6075 14.4042 29.7619C14.3953 29.066 14.1927 28.4757 13.7786 28H13.7788ZM11.6911 26.7844C10.7309 26.4585 10.1143 26.1678 9.83242 25.9299C9.57695 25.6921 9.44482 25.4013 9.44482 25.0754C9.44482 24.6703 9.61219 24.3444 9.93812 24.0976C10.2729 23.8334 10.6781 23.6925 11.1538 23.6925C11.6119 23.6925 11.9995 23.8069 12.3166 24.0449C12.6073 24.2651 12.8011 24.5293 12.9156 24.8465L11.9906 26.8902C11.8938 26.8637 11.7968 26.8197 11.6911 26.7844ZM12.5985 30.9248C12.2373 31.2154 11.7792 31.3563 11.2155 31.3563C10.96 31.3563 10.7133 31.3123 10.4755 31.2154C10.3874 31.1801 10.3081 31.1361 10.22 31.0921L11.5766 28.097C12.0964 28.3084 12.4663 28.5199 12.6866 28.7312C12.9861 29.0131 13.127 29.3566 13.127 29.7619C13.1359 30.2464 12.9596 30.6339 12.5985 30.9248Z" fill="white"/>
<path d="M25.5307 20.8454L25.4161 20.7925L23.3988 25.2588L22.2888 22.7834L23.1698 20.8454L23.0553 20.7925L22.1743 22.7481H21.0381L21.9013 20.8454L21.7867 20.7925L15.6115 34.4378L15.7261 34.4907L16.7127 32.3235H17.8491L16.8889 34.4378L17.0033 34.4907L19.2409 29.5487H21.4697L19.2585 34.4378L19.3731 34.4907L22.835 26.8532L25.2927 32.3235H26.5877L23.4604 25.4085L25.5307 20.8454ZM21.9805 28.3596H19.7518L21.6281 24.2192L22.7382 26.6945L21.9805 28.3596Z" fill="white"/>
<defs>
<filter id="filter0_d" x="0.517248" y="0.517217" width="56.9656" height="56.9656" filterUnits="userSpaceOnUse" color-interpolation-filters="sRGB">
<feFlood flood-opacity="0" result="BackgroundImageFix"/>
<feColorMatrix in="SourceAlpha" type="matrix" values="0 0 0 0 0 0 0 0 0 0 0 0 0 0 0 0 0 0 127 0"/>
<feOffset/>
<feGaussianBlur stdDeviation="1.74139"/>
<feColorMatrix type="matrix" values="0 0 0 0 0 0 0 0 0 0 0 0 0 0 0 0 0 0 0.1 0"/>
<feBlend mode="normal" in2="BackgroundImageFix" result="effect1_dropShadow"/>
<feBlend mode="normal" in="SourceGraphic" in2="effect1_dropShadow" result="shape"/>
</filter>
</defs>
</svg>
