<svg width="25" height="26" viewBox="0 0 25 26" fill="none" xmlns="http://www.w3.org/2000/svg">
<path d="M0 0.210938L25 25.2109V0.210938H0Z" fill="#A6B720"/>
<path d="M18.1915 3.2061C18.1915 3.06245 18.3467 2.91881 18.657 2.77516C18.9837 2.63152 19.3104 2.53575 19.6371 2.48787C19.9638 2.43999 20.1108 2.45595 20.0781 2.53575L18.3875 6.27054C18.3712 6.31842 18.3222 6.34236 18.2405 6.34236C18.1751 6.34236 18.1425 6.31842 18.1425 6.27054L18.1915 3.2061ZM14.6142 5.7199C14.4182 5.65606 14.3202 5.32088 14.3202 4.71438C14.3202 4.44305 14.3447 4.20364 14.3937 3.99615C14.4427 3.7727 14.4917 3.68492 14.5407 3.7328L17.6769 6.48601C17.7259 6.50197 17.7341 6.54985 17.7014 6.62966C17.6688 6.6935 17.6361 6.71744 17.6034 6.70148L14.6142 5.7199ZM18.755 6.89301C18.7224 6.89301 18.6897 6.86108 18.657 6.79724C18.6407 6.71744 18.6488 6.66956 18.6815 6.6536L21.6953 5.74384C21.8423 5.69596 22.0301 5.7997 22.2588 6.05507C22.5038 6.31044 22.6999 6.58177 22.8469 6.86906C23.0102 7.15636 23.0429 7.3 22.9449 7.3L18.755 6.89301ZM15.9618 9.76592C15.9128 9.84572 15.7984 9.88562 15.6188 9.88562C15.4228 9.88562 15.1859 9.84572 14.9082 9.76592C14.6305 9.67016 14.3937 9.56641 14.1976 9.45469C14.018 9.34296 13.9608 9.27114 14.0261 9.23922L17.6524 7.1803L17.7014 7.15636C17.7341 7.15636 17.7668 7.1803 17.7994 7.22818C17.8485 7.27606 17.8648 7.30798 17.8485 7.32394L15.9618 9.76592ZM18.314 7.41971C18.2977 7.38779 18.3222 7.34788 18.3875 7.3C18.4528 7.23616 18.4937 7.2202 18.51 7.25212L20.3477 9.78986C20.4293 9.90158 20.3803 10.1091 20.2006 10.4123C20.021 10.7156 19.8086 10.9869 19.5636 11.2263C19.3349 11.4498 19.2124 11.5136 19.1961 11.4178L18.314 7.41971Z" fill="white"/>
</svg>
