<svg width="336" height="346" viewBox="0 0 336 346" fill="none" xmlns="http://www.w3.org/2000/svg">
<path opacity="0.7" d="M333.839 211.579C321.071 194.175 306.272 181.123 289.732 173.002C306.562 164.88 321.361 151.828 333.839 134.424L335 132.974L334.42 131.234C330.357 115.281 324.553 100.778 316.718 86.8557C308.884 73.2232 299.017 60.4609 287.41 49.4389L286.249 48.2787L284.508 48.5687C263.035 50.8892 244.463 57.2703 229.083 67.7122C230.244 49.1488 226.472 29.7153 217.766 9.99166L216.896 8.25133L215.155 7.67123C199.485 3.03038 184.105 1 167.855 1C152.185 1 136.225 3.32043 120.845 7.67123L119.104 8.25133L118.234 9.99166C109.528 29.7153 105.756 49.1488 106.917 67.7122C91.5369 57.2703 72.675 50.8892 51.4917 48.5687L49.7507 48.2787L48.5899 49.4389C36.6924 60.751 27.1164 73.2232 19.2815 86.8557C11.4466 100.488 5.35273 115.281 1.58036 130.944L1 132.684L2.16071 134.134C14.9287 151.538 29.7281 164.59 46.2685 172.711C29.4379 180.833 14.6386 193.885 2.16071 211.289L1 213.029L1.58036 214.769C5.64291 230.722 11.4466 245.225 19.2815 259.147C27.1164 272.78 36.9826 285.542 48.5899 296.564L49.7507 297.724L51.4917 297.434C72.9652 295.114 91.5369 288.733 106.917 278.291C105.756 296.854 109.528 316.288 118.234 336.011L119.104 337.752L120.845 338.332C136.515 342.973 151.895 345.003 168.145 345.003C183.815 345.003 199.775 342.683 215.155 338.332L216.896 337.752L217.766 336.011C226.472 316.288 230.244 296.854 229.083 278.291C244.463 288.733 263.325 295.114 284.508 297.434L286.249 297.724L287.41 296.564C299.308 285.252 308.884 272.78 316.718 259.147C324.553 245.515 330.647 230.722 334.42 215.059L335 213.319L333.839 211.579ZM220.378 75.2536L218.927 85.1154L226.472 79.0243C241.851 66.8421 261.003 59.3007 283.348 56.4002C292.924 65.9719 301.049 76.4138 308.013 87.7259L171.627 166.62V9.1215C184.976 9.41155 198.034 11.1519 211.092 14.9226C220.378 35.5163 223.28 55.8201 220.378 75.2536ZM52.6525 56.1101C75.2867 58.7206 94.1485 66.262 109.528 78.7342L117.073 84.8254L115.622 74.9635C112.72 55.53 115.622 35.2263 124.618 14.3425C137.676 10.8618 151.024 8.83145 164.083 8.5414V166.04L27.6968 87.1458C34.6612 76.1238 42.7863 65.6818 52.6525 56.1101ZM9.12512 214.479C22.7637 196.206 38.7237 183.443 57.0052 176.482L66.291 173.002L57.0052 169.521C38.7237 162.56 22.4735 149.507 9.12512 131.524C12.6073 118.472 17.5404 105.999 23.9244 94.3971L160.31 173.002L23.9244 251.606C17.5404 240.004 12.6073 227.822 9.12512 214.479ZM115.622 270.749L117.073 260.888L109.528 266.979C94.1485 279.161 74.9965 286.702 52.6525 289.603C43.0765 280.031 34.9514 269.589 27.987 258.277L164.373 179.383V336.882C151.024 336.591 137.966 334.851 124.908 331.08C115.622 310.487 112.72 290.183 115.622 270.749ZM283.348 289.603C260.713 286.992 241.851 279.451 226.472 266.979L218.927 260.888L220.378 270.749C223.28 290.183 220.378 310.487 211.382 331.371C198.324 334.851 184.976 336.882 171.917 337.172V179.673L308.303 258.567C301.049 269.879 292.924 280.031 283.348 289.603ZM311.785 251.606L175.4 173.002L311.785 94.3971C318.169 105.999 323.103 118.181 326.585 131.524C312.946 149.797 296.986 162.56 278.705 169.521L269.419 173.002L278.705 176.482C296.986 183.443 313.236 196.496 326.585 214.479C323.393 227.531 318.169 240.004 311.785 251.606Z" stroke="#A6B720" stroke-miterlimit="10"/>
</svg>
