<svg width="38" height="38" viewBox="0 0 38 38" fill="none" xmlns="http://www.w3.org/2000/svg">
<rect x="1" y="1" width="36" height="36" rx="18" stroke="#ECEDEF"/>
<rect x="13.5" y="13.5" width="11" height="11" rx="2.5" stroke="#4D4D4C"/>
<path d="M19.0009 16.4673C17.6019 16.4673 16.4668 17.6024 16.4668 19.0015C16.4668 20.4006 17.6019 21.5356 19.0009 21.5356C20.4 21.5356 21.5351 20.4006 21.5351 19.0015C21.5351 17.6024 20.4 16.4673 19.0009 16.4673Z" stroke="#4D4D4C"/>
<path fill-rule="evenodd" clip-rule="evenodd" d="M22 15.5C22 15.2238 22.2239 15 22.5 15C22.7761 15 23 15.2238 23 15.5C23 15.7761 22.7761 16 22.5 16C22.2239 16 22 15.7761 22 15.5Z" stroke="#4D4D4C"/>
</svg>
