<svg width="64" height="10" viewBox="0 0 64 10" fill="none" xmlns="http://www.w3.org/2000/svg">
<path d="M17 8.97399V8.27168L28.8108 0.910405H17.1351V0H30.7838V0.6763L18.9189 8.0896H31V9H17V8.97399Z" fill="white"/>
<path d="M41.8983 9H38.1017C37.0441 9 36.122 8.87288 35.3085 8.64407C34.522 8.41525 33.8712 8.08474 33.4102 7.67797C32.9492 7.27119 32.5966 6.78814 32.3525 6.25424C32.1356 5.72034 32 5.13559 32 4.5C32 3.86441 32.1085 3.27966 32.3525 2.74576C32.5695 2.21186 32.922 1.72881 33.4102 1.32203C33.8712 0.915254 34.522 0.584746 35.3085 0.355932C36.0949 0.127119 37.0169 0 38.1017 0H41.8983C42.9559 0 43.878 0.127119 44.6915 0.355932C45.478 0.584746 46.1288 0.915254 46.5898 1.32203C47.0508 1.72881 47.4034 2.21186 47.6475 2.74576C47.8644 3.27966 48 3.86441 48 4.5C48 5.13559 47.8915 5.72034 47.6475 6.25424C47.4305 6.78814 47.078 7.27119 46.5898 7.67797C46.1288 8.08474 45.478 8.41525 44.6915 8.64407C43.9051 8.8983 42.9831 9 41.8983 9ZM38.1288 8.13559H41.8983C43.6339 8.13559 44.9085 7.80508 45.6949 7.14407C46.4814 6.48305 46.8881 5.59322 46.8881 4.5C46.8881 3.40678 46.4814 2.51695 45.6949 1.85593C44.9085 1.19491 43.6339 0.864407 41.8983 0.864407H38.1288C36.3932 0.864407 35.1186 1.19491 34.3322 1.85593C33.5458 2.51695 33.139 3.40678 33.139 4.5C33.139 5.59322 33.5458 6.48305 34.3322 7.14407C35.1186 7.80508 36.3932 8.13559 38.1288 8.13559Z" fill="white"/>
<path d="M63.0308 9L51.0231 1.14783V9H50V0H50.9962L62.9769 7.85217V0H64V9H63.0308Z" fill="white"/>
<path d="M9.87119 10H6.07458C5.01695 10 4.09492 9.85876 3.28136 9.60452C2.49492 9.35028 1.84407 8.98305 1.38305 8.53107C0.922034 8.0791 0.569492 7.54237 0.325424 6.94915C0.108475 6.35593 0 5.70621 0 5C0 4.29379 0.108475 3.64407 0.352542 3.05085C0.569492 2.45763 0.922034 1.9209 1.41017 1.46893C1.87119 1.01695 2.52203 0.649717 3.30847 0.39548C4.09492 0.141243 5.01695 0 6.1017 0H9.8983C10.9559 0 11.878 0.141243 12.6915 0.39548C13.478 0.649717 14.1288 1.01695 14.5898 1.46893C15.0508 1.9209 15.4034 2.45763 15.6475 3.05085C15.8644 3.64407 16 4.29379 16 5C16 5.70621 15.8915 6.35593 15.6475 6.94915C15.4305 7.54237 15.078 8.0791 14.5898 8.53107C14.1288 8.98305 13.478 9.35028 12.6915 9.60452C11.8508 9.88701 10.9288 10 9.87119 10ZM6.07458 9.03955H9.84407C11.5797 9.03955 12.8542 8.67232 13.6407 7.93785C14.4271 7.20339 14.8339 6.21469 14.8339 5C14.8339 3.78531 14.4271 2.79661 13.6407 2.06215C12.8542 1.32768 11.5797 0.960452 9.84407 0.960452H6.07458C4.33898 0.960452 3.06441 1.32768 2.27797 2.06215C1.49153 2.79661 1.08475 3.78531 1.08475 5C1.08475 6.21469 1.49153 7.20339 2.27797 7.93785C3.09153 8.67232 4.33898 9.03955 6.07458 9.03955Z" fill="white"/>
</svg>
