<svg width="267" height="265" viewBox="0 0 267 265" fill="none" xmlns="http://www.w3.org/2000/svg">
<path d="M238.995 156.874C231.079 146.845 223.164 138.448 215.481 131.684C222.931 124.92 230.847 116.523 238.529 106.493C238.762 106.26 262.275 73.6059 262.275 73.6059C247.608 78.504 225.259 74.3056 224.794 74.3056C212.222 72.9062 200.815 72.6729 190.804 73.3727C191.503 63.3432 191.037 51.9142 189.407 39.5523C189.407 39.319 184.984 16.9276 189.64 2C189.64 2 157.513 26.2574 157.28 26.4906C147.503 34.4209 139.354 42.118 132.836 49.815C126.085 42.3512 117.937 34.4209 107.926 26.7239C107.693 26.4906 75.3333 2.69977 75.3333 2.69977C80.2222 17.3941 76.0317 40.0188 76.0317 40.4852C74.6349 53.0804 74.4021 64.5094 75.1005 74.5389C65.3228 74.0724 54.1481 74.5389 41.8095 75.9384C41.5767 75.9384 2 82.236 2 82.236C15.7354 89.2333 28.5397 108.126 29.0053 108.592C36.6878 118.155 44.3704 126.552 51.8201 133.083C44.3704 139.847 36.9206 148.011 29.2381 158.04C29.0053 158.273 16.4339 177.399 2.93122 184.397C2.93122 184.397 42.5079 190.228 42.9735 190.228C55.0794 191.627 66.254 191.861 76.2646 191.161C75.5661 201.19 76.0317 212.619 77.6614 225.448C77.6614 225.681 82.0847 248.072 77.4286 263C77.4286 263 109.556 238.743 109.788 238.509C119.566 230.579 127.714 222.882 134.233 215.185C140.751 222.649 149.132 230.346 159.143 238.276C159.376 238.509 191.735 262.3 191.735 262.3C186.847 247.606 191.037 224.981 191.037 224.515C192.434 212.153 192.667 200.724 191.968 190.694C201.979 191.394 213.386 190.928 226.19 189.295C226.423 189.295 266 182.997 266 182.997C265.534 182.997 238.995 157.107 238.995 156.874ZM232.942 102.528C224.561 113.491 216.18 122.354 207.799 129.118L204.54 131.917L207.799 134.716C215.947 141.48 224.561 150.343 233.175 161.072C233.873 162.005 237.598 167.603 243.185 173.668L142.847 132.383L242.72 89.6997C236.899 96.4638 233.175 102.295 232.942 102.528ZM223.862 81.3029C224.328 81.3029 231.778 82.7024 240.857 83.1689L139.587 126.319L180.561 24.3914C181.026 33.4879 182.423 40.4853 182.423 40.7185C184.053 54.2467 184.286 66.6086 183.354 77.1046L182.889 81.3029L187.079 80.8365C198.021 79.6703 210.36 79.9035 223.862 81.3029ZM130.042 57.5121L132.836 60.7775L135.397 57.5121C142.148 49.1153 150.762 40.7185 161.238 32.0885C161.704 31.8553 167.524 27.6569 174.275 21.5925L133.302 123.52L90.9312 22.2922C97.4497 28.3566 103.503 32.3217 103.735 32.555C114.444 40.9517 123.291 49.3486 130.042 57.5121ZM42.7407 83.1689C56.0106 81.5362 68.1164 81.0697 78.3598 82.0027L82.5503 82.4692L82.3175 78.2708C81.1534 67.5416 81.3862 55.1796 82.7831 41.8847C82.7831 41.4182 84.1799 34.1877 84.6455 25.0912L127.016 126.086L27.1429 85.2681C35.7566 84.5684 42.5079 83.1689 42.7407 83.1689ZM34.5926 162.239C42.9735 151.509 51.1217 142.646 59.2698 135.882L62.5291 133.083L59.2698 130.517C51.1217 123.753 42.7407 115.123 34.3598 104.627C34.127 104.161 29.9365 97.8633 23.6508 91.0992L124.688 132.617L24.1164 175.534C30.4021 168.769 34.3598 162.472 34.5926 162.239ZM43.9048 183.464C43.4392 183.464 36.455 182.064 27.6085 181.598L127.016 139.147L86.2751 240.609C85.8095 231.512 84.4127 224.515 84.4127 224.281C82.7831 210.52 82.3175 198.391 83.4815 187.662L83.9471 183.464L79.7566 183.93C69.0476 185.096 56.9418 184.863 43.9048 183.464ZM136.561 207.488L133.767 204.223L131.206 207.488C124.688 215.885 115.841 224.282 105.365 232.678C104.899 232.912 99.0794 237.11 92.328 243.174L133.534 141.713L175.905 242.941C169.386 236.877 163.333 232.912 163.101 232.678C152.159 224.282 143.312 215.651 136.561 207.488ZM224.794 182.531C211.058 184.164 198.72 184.63 188.243 183.464L184.053 182.997L184.519 187.196C185.683 197.692 185.45 210.054 184.053 223.349C184.053 223.815 182.656 231.046 182.19 240.142L139.82 138.681L241.556 180.432C232.476 180.898 225.259 182.298 224.794 182.531Z" stroke="#9EB01C" stroke-miterlimit="10"/>
</svg>
