<svg width="266" height="298" viewBox="0 0 266 298" fill="none" xmlns="http://www.w3.org/2000/svg">
<path d="M246.494 196.144C245.089 192.157 244.386 187.935 243.683 183.479C242.746 177.615 241.809 171.517 239.232 165.653C236.187 159.32 232.205 153.691 227.051 149C232.205 144.309 236.187 138.68 239.232 132.347C242.043 126.483 242.98 120.385 243.683 114.521C244.386 110.065 245.089 105.843 246.26 101.856C249.305 92.7084 257.27 82.8574 265 78.401L261.018 71.5991C253.287 76.0555 240.638 77.9319 231.034 76.0555C226.817 75.1173 222.835 73.71 218.618 72.0681C212.996 69.9572 207.14 67.6117 200.815 67.1426C193.788 66.439 186.76 67.1426 179.967 69.019C178.327 62.2171 175.516 55.8843 171.3 50.2552C167.552 45.0951 162.633 41.1078 157.948 37.5896C154.434 34.775 150.92 32.1949 148.109 28.9112C141.55 21.6402 136.865 9.91284 136.865 1H129.135C129.135 9.91284 124.45 21.6402 117.891 28.9112C115.08 32.1949 111.8 34.775 108.052 37.5896C103.367 41.3423 98.4481 45.0951 94.7001 50.2552C90.7178 55.8843 87.6726 62.2171 86.0329 69.019C79.2396 67.1426 72.4463 66.439 65.1845 67.1426C58.6255 67.8462 53.0036 69.9572 47.3816 72.0681C43.1651 73.71 39.1828 75.3518 34.9663 76.0555C25.362 77.9319 12.7125 76.0555 4.98228 71.5991L1 78.401C8.73026 82.8574 16.6948 92.7084 19.74 101.856C21.1455 105.843 21.8483 110.065 22.551 114.521C23.488 120.385 24.425 126.483 27.0018 132.347C30.047 138.68 34.0293 144.309 39.1828 149C34.0293 153.691 30.047 159.32 27.0018 165.653C24.1908 171.517 23.2538 177.615 22.551 183.479C21.8483 187.935 21.1455 192.157 19.74 196.144C16.6948 205.292 8.73026 215.143 1 219.599L4.98228 226.401C12.7125 221.945 25.362 220.068 34.9663 221.945C39.1828 222.883 43.1651 224.29 47.3816 225.932C53.0036 228.043 58.8598 230.388 65.1845 230.857C72.212 231.561 79.2396 230.857 86.0329 228.981C87.6726 235.783 90.4836 242.116 94.7001 247.745C98.4481 252.905 103.367 256.892 108.052 260.411C111.566 263.225 115.08 265.805 117.891 269.089C124.45 276.36 129.135 288.087 129.135 297H136.865C136.865 288.087 141.55 276.36 148.109 269.089C150.92 265.805 154.2 263.225 157.948 260.411C162.633 256.658 167.552 252.905 171.3 247.745C175.282 242.116 178.327 235.783 179.967 228.981C186.76 230.857 193.554 231.561 200.815 230.857C207.374 230.154 212.996 228.043 218.618 225.932C222.835 224.29 226.817 222.648 231.034 221.945C240.638 220.068 253.287 221.945 261.018 226.401L265 219.599C257.504 215.143 249.539 205.292 246.494 196.144ZM231.971 168.937C234.313 173.862 235.016 179.022 235.953 184.651C236.656 189.342 237.358 194.033 238.998 198.724C239.935 201.773 241.575 204.588 243.215 207.637L146.938 152.518H219.321C224.709 156.975 229.16 162.369 231.971 168.937ZM238.998 99.0412C237.358 103.732 236.656 108.423 235.953 113.114C235.016 118.743 234.313 123.903 231.971 128.829C228.925 135.162 224.709 140.791 219.087 145.247H146.704L242.98 90.1284C241.575 93.1775 239.935 96.2266 238.998 99.0412ZM142.721 33.6022C146.001 37.355 149.749 40.4041 153.497 43.2187C157.948 46.7369 162.164 50.0206 165.209 54.477C169.426 60.3407 172.237 67.1426 173.408 74.4136L174.111 79.1046L178.562 77.4628C185.589 74.8828 192.617 73.71 200.113 74.4136C205.5 74.8827 210.42 76.7591 215.807 78.87C220.258 80.5119 224.709 82.3883 229.628 83.3265C232.673 84.0301 236.187 84.2647 239.467 84.2647L136.865 142.902V25.6276C138.739 28.4422 140.613 31.2567 142.721 33.6022ZM37.543 83.3265C42.4623 82.3883 46.913 80.5119 51.3638 78.87C56.7515 76.7591 61.6708 74.8827 67.0586 74.4136C74.5546 73.71 81.8163 74.6482 88.6096 77.4628L93.0604 79.1046L93.7631 74.4136C94.9343 67.1426 97.7453 60.3407 101.962 54.477C105.007 50.0206 109.224 46.7369 113.674 43.2187C117.422 40.4041 121.17 37.355 124.45 33.6022C126.558 31.2567 128.432 28.4421 130.072 25.393V142.667L27.4703 84.0301C30.9841 84.2647 34.2635 84.0301 37.543 83.3265ZM35.2005 128.829C32.858 123.903 32.1553 118.743 31.2183 113.114C30.5155 108.423 29.8128 103.732 28.173 99.0412C27.236 95.9921 25.5963 93.1775 23.9566 90.1284L120.233 145.247H47.85C42.4623 140.791 38.2458 135.162 35.2005 128.829ZM28.173 198.49C29.8128 193.799 30.5155 189.108 31.2183 184.417C32.1553 178.788 32.858 173.628 35.2005 168.702C38.2458 162.369 42.4623 156.74 48.0843 152.284H120.468L24.1908 207.403C25.8305 204.588 27.236 201.539 28.173 198.49ZM124.45 264.163C121.17 260.41 117.422 257.361 113.674 254.547C109.224 251.029 105.007 247.745 101.962 243.288C97.7453 237.425 94.9343 230.623 93.7631 223.352L93.0604 218.661L88.6096 220.303C81.5821 222.883 74.3203 224.055 67.0586 223.352C61.6708 222.883 56.7515 221.006 51.3638 218.895C46.913 217.254 42.4623 215.377 37.543 214.439C34.4978 213.735 30.984 213.501 27.7045 213.501L130.306 154.864V272.138C128.432 269.323 126.558 266.509 124.45 264.163ZM229.862 214.439C224.943 215.377 220.492 217.254 216.042 218.895C210.654 221.006 205.735 222.883 200.347 223.352C192.851 224.055 185.589 223.117 178.796 220.303L174.345 218.661L173.642 223.352C172.471 230.623 169.66 237.425 165.444 243.288C162.398 247.51 158.182 251.029 153.731 254.547C149.983 257.361 146.235 260.41 142.956 264.163C140.847 266.509 138.973 269.323 137.334 272.372V155.098L239.935 213.735C236.187 213.501 232.908 213.735 229.862 214.439Z" stroke="#9EB01C" stroke-miterlimit="10"/>
</svg>
