<svg width="196" height="202" viewBox="0 0 196 202" fill="none" xmlns="http://www.w3.org/2000/svg">
<path d="M194.326 123.452C186.91 113.334 178.314 105.745 168.706 101.023C178.482 96.3017 187.078 88.7131 194.326 78.5951L195 77.7519L194.663 76.7401C192.303 67.4653 188.932 59.0336 184.381 50.9391C179.831 43.0133 174.1 35.5934 167.358 29.1853L166.684 28.5108L165.672 28.6794C153.2 30.0285 142.413 33.7384 133.48 39.8093C134.154 29.0167 131.963 17.7182 126.906 6.2511L126.401 5.23929L125.389 4.90203C116.288 2.20388 107.354 1.02344 97.9157 1.02344C88.8141 1.02344 79.5439 2.37251 70.6108 4.90203L69.5995 5.23929L69.0938 6.2511C64.0373 17.7182 61.8462 29.0167 62.5204 39.8093C53.5873 33.7384 42.6316 30.0285 30.3275 28.6794L29.3163 28.5108L28.642 29.1853C21.7315 35.7621 16.1694 43.0133 11.6186 50.9391C7.06777 58.8649 3.52823 67.4653 1.33709 76.5715L1 77.5833L1.67419 78.4265C9.09035 88.5445 17.6864 96.1331 27.2937 100.855C17.5178 105.577 8.9218 113.165 1.67419 123.283L1 124.295L1.33709 125.307C3.69678 134.582 7.06777 143.013 11.6186 151.108C16.1694 159.034 21.9001 166.453 28.642 172.862L29.3163 173.536L30.3275 173.367C42.8002 172.018 53.5873 168.308 62.5204 162.238C61.8462 173.03 64.0373 184.329 69.0938 195.796L69.5995 196.808L70.6108 197.145C79.7124 199.843 88.6455 201.023 98.0843 201.023C107.186 201.023 116.456 199.674 125.389 197.145L126.401 196.808L126.906 195.796C131.963 184.329 134.154 173.03 133.48 162.238C142.413 168.308 153.368 172.018 165.672 173.367L166.684 173.536L167.358 172.862C174.268 166.285 179.831 159.034 184.381 151.108C188.932 143.182 192.472 134.582 194.663 125.475L195 124.464L194.326 123.452ZM128.423 44.1938L127.58 49.9273L131.963 46.386C140.896 39.3034 152.02 34.9189 164.998 33.2326C170.56 38.7975 175.28 44.8683 179.325 51.445L100.107 97.3135V5.7452C107.86 5.91383 115.445 6.92563 123.03 9.11788C128.423 21.0909 130.109 32.8953 128.423 44.1938ZM31.0017 33.0639C44.1486 34.5816 55.1042 38.9661 64.0373 46.2174L68.4196 49.7587L67.5769 44.0251C65.8914 32.7266 67.5769 20.9223 72.8019 8.78061C80.3866 6.75701 88.1399 5.57657 95.7246 5.40793V96.9762L16.5065 51.1078C20.5517 44.6997 25.2711 38.6288 31.0017 33.0639ZM5.71938 125.138C13.6412 114.514 22.9114 107.094 33.53 103.047L38.9235 101.023L33.53 98.9998C22.9114 94.9526 13.4726 87.3641 5.71938 76.9088C7.74197 69.3202 10.6073 62.069 14.3154 55.3236L93.5334 101.023L14.3154 146.723C10.6073 139.978 7.74197 132.895 5.71938 125.138ZM67.5769 157.853L68.4196 152.12L64.0373 155.661C55.1042 162.744 43.98 167.128 31.0017 168.814C25.4396 163.249 20.7202 157.179 16.6751 150.602L95.8931 104.733V196.302C88.1399 196.133 80.5552 195.121 72.9705 192.929C67.5769 180.956 65.8914 169.152 67.5769 157.853ZM164.998 168.814C151.851 167.297 140.896 162.912 131.963 155.661L127.58 152.12L128.423 157.853C130.109 169.152 128.423 180.956 123.198 193.098C115.613 195.121 107.86 196.302 100.275 196.47V104.902L179.493 150.77C175.28 157.347 170.56 163.249 164.998 168.814ZM181.516 146.723L102.298 101.023L181.516 55.3236C185.224 62.069 188.09 69.1516 190.112 76.9088C182.19 87.5327 172.92 94.9526 162.301 98.9998L156.908 101.023L162.301 103.047C172.92 107.094 182.359 114.683 190.112 125.138C188.258 132.727 185.224 139.978 181.516 146.723Z" stroke="#A6B720" stroke-miterlimit="10"/>
</svg>
