<svg width="266" height="298" viewBox="0 0 266 298" fill="none" xmlns="http://www.w3.org/2000/svg">
<path d="M246.494 196.147C245.089 192.159 244.386 187.937 243.683 183.481C242.746 177.617 241.809 171.519 239.232 165.655C236.187 159.323 232.205 153.693 227.051 149.002C232.205 144.312 236.187 138.682 239.232 132.35C242.043 126.486 242.98 120.388 243.683 114.524C244.386 110.067 245.089 105.846 246.26 101.858C249.305 92.7109 257.27 82.8598 265 78.4034L261.018 71.6015C253.287 76.0579 240.638 77.9343 231.034 76.0579C226.817 75.1197 222.835 73.7124 218.618 72.0706C212.996 69.9596 207.14 67.6141 200.815 67.145C193.788 66.4414 186.76 67.1451 179.967 69.0215C178.327 62.2196 175.516 55.8868 171.3 50.2576C167.552 45.0975 162.633 41.1102 157.948 37.592C154.434 34.7774 150.92 32.1974 148.109 28.9137C141.55 21.6427 136.865 9.91528 136.865 1.00244H129.135C129.135 9.91528 124.45 21.6427 117.891 28.9137C115.08 32.1974 111.8 34.7774 108.052 37.592C103.367 41.3448 98.4481 45.0975 94.7001 50.2576C90.7178 55.8868 87.6726 62.2196 86.0329 69.0215C79.2396 67.1451 72.4463 66.4414 65.1845 67.145C58.6255 67.8487 53.0036 69.9596 47.3816 72.0706C43.1651 73.7124 39.1828 75.3543 34.9663 76.0579C25.362 77.9343 12.7125 76.0579 4.98228 71.6015L1 78.4034C8.73026 82.8598 16.6948 92.7109 19.74 101.858C21.1455 105.846 21.8483 110.067 22.551 114.524C23.488 120.388 24.425 126.486 27.0018 132.35C30.047 138.682 34.0293 144.312 39.1828 149.002C34.0293 153.693 30.047 159.323 27.0018 165.655C24.1908 171.519 23.2538 177.617 22.551 183.481C21.8483 187.937 21.1455 192.159 19.74 196.147C16.6948 205.294 8.73026 215.145 1 219.601L4.98228 226.403C12.7125 221.947 25.362 220.071 34.9663 221.947C39.1828 222.885 43.1651 224.292 47.3816 225.934C53.0036 228.045 58.8598 230.391 65.1845 230.86C72.212 231.563 79.2396 230.86 86.0329 228.983C87.6726 235.785 90.4836 242.118 94.7001 247.747C98.4481 252.907 103.367 256.895 108.052 260.413C111.566 263.228 115.08 265.808 117.891 269.091C124.45 276.362 129.135 288.09 129.135 297.002H136.865C136.865 288.09 141.55 276.362 148.109 269.091C150.92 265.808 154.2 263.228 157.948 260.413C162.633 256.66 167.552 252.907 171.3 247.747C175.282 242.118 178.327 235.785 179.967 228.983C186.76 230.86 193.554 231.563 200.815 230.86C207.374 230.156 212.996 228.045 218.618 225.934C222.835 224.292 226.817 222.651 231.034 221.947C240.638 220.071 253.287 221.947 261.018 226.403L265 219.601C257.504 215.145 249.539 205.294 246.494 196.147ZM231.971 168.939C234.313 173.865 235.016 179.025 235.953 184.654C236.656 189.345 237.358 194.036 238.998 198.727C239.935 201.776 241.575 204.59 243.215 207.64L146.938 152.521H219.321C224.709 156.977 229.16 162.372 231.971 168.939ZM238.998 99.0436C237.358 103.735 236.656 108.426 235.953 113.117C235.016 118.746 234.313 123.906 231.971 128.831C228.925 135.164 224.709 140.793 219.087 145.25H146.704L242.98 90.1308C241.575 93.18 239.935 96.2291 238.998 99.0436ZM142.721 33.6047C146.001 37.3574 149.749 40.4066 153.497 43.2211C157.948 46.7394 162.164 50.023 165.209 54.4794C169.426 60.3432 172.237 67.1451 173.408 74.4161L174.111 79.107L178.562 77.4652C185.589 74.8852 192.617 73.7124 200.113 74.4161C205.5 74.8852 210.42 76.7615 215.807 78.8725C220.258 80.5143 224.709 82.3907 229.628 83.3289C232.673 84.0326 236.187 84.2671 239.467 84.2671L136.865 142.904V25.63C138.739 28.4446 140.613 31.2592 142.721 33.6047ZM37.543 83.3289C42.4623 82.3907 46.913 80.5143 51.3638 78.8725C56.7515 76.7615 61.6708 74.8852 67.0586 74.4161C74.5546 73.7124 81.8163 74.6506 88.6096 77.4652L93.0604 79.107L93.7631 74.4161C94.9343 67.1451 97.7453 60.3432 101.962 54.4794C105.007 50.023 109.224 46.7394 113.674 43.2211C117.422 40.4066 121.17 37.3574 124.45 33.6047C126.558 31.2592 128.432 28.4446 130.072 25.3955V142.67L27.4703 84.0326C30.9841 84.2671 34.2635 84.0326 37.543 83.3289ZM35.2005 128.831C32.858 123.906 32.1553 118.746 31.2183 113.117C30.5155 108.426 29.8128 103.735 28.173 99.0436C27.236 95.9945 25.5963 93.18 23.9566 90.1308L120.233 145.25H47.85C42.4623 140.793 38.2458 135.164 35.2005 128.831ZM28.173 198.492C29.8128 193.801 30.5155 189.11 31.2183 184.419C32.1553 178.79 32.858 173.63 35.2005 168.705C38.2458 162.372 42.4623 156.743 48.0843 152.286H120.468L24.1908 207.405C25.8305 204.59 27.236 201.541 28.173 198.492ZM124.45 264.166C121.17 260.413 117.422 257.364 113.674 254.549C109.224 251.031 105.007 247.747 101.962 243.291C97.7453 237.427 94.9343 230.625 93.7631 223.354L93.0604 218.663L88.6096 220.305C81.5821 222.885 74.3203 224.058 67.0586 223.354C61.6708 222.885 56.7515 221.009 51.3638 218.898C46.913 217.256 42.4623 215.38 37.543 214.441C34.4978 213.738 30.984 213.503 27.7045 213.503L130.306 154.866V272.14C128.432 269.326 126.558 266.511 124.45 264.166ZM229.862 214.441C224.943 215.38 220.492 217.256 216.042 218.898C210.654 221.009 205.735 222.885 200.347 223.354C192.851 224.058 185.589 223.12 178.796 220.305L174.345 218.663L173.642 223.354C172.471 230.625 169.66 237.427 165.444 243.291C162.398 247.513 158.182 251.031 153.731 254.549C149.983 257.364 146.235 260.413 142.956 264.166C140.847 266.511 138.973 269.326 137.334 272.375V155.101L239.935 213.738C236.187 213.503 232.908 213.738 229.862 214.441Z" stroke="#9EB01C" stroke-miterlimit="10"/>
</svg>
