<svg width="315" height="317" viewBox="0 0 315 317" fill="none" xmlns="http://www.w3.org/2000/svg">
<path opacity="0.7" d="M314.252 155.071H171.365L295.148 82.8749L291.485 76.597L167.702 148.793L239.145 24.0191L232.864 20.357L161.159 144.87V1H154.093V144.87L82.388 20.357L76.1073 24.0191L147.812 148.793L23.7677 76.597L20.1039 82.8749L144.149 155.071H1V162.396H144.149L20.1039 234.33L23.7677 240.87L147.812 168.673L76.1073 293.448L82.388 297.11L154.093 172.336V316.467H161.159V172.336L232.864 297.11L239.145 293.448L167.702 168.673L291.485 240.87L295.148 234.33L171.365 162.396H314.252V155.071Z" stroke="#9EB01C" stroke-miterlimit="10"/>
</svg>
