<svg width="268" height="235" viewBox="0 0 268 235" fill="none" xmlns="http://www.w3.org/2000/svg">
<path d="M265.075 112.947C252.002 92.0446 228.27 79.1818 201.118 77.9759C213.386 53.6571 213.99 26.5246 202.325 4.81865L200.313 1L195.889 1.20098C171.352 2.00491 148.222 16.0736 133.742 39.1865C119.06 16.2746 95.9303 2.40687 71.3932 1.60294L66.9685 1.40196L64.9573 5.22061C53.4932 27.1276 54.2977 54.2601 66.7674 78.3778C39.6157 79.9857 16.0843 93.2505 3.21236 114.354L1 118.172L3.41348 121.991C16.2854 142.692 40.018 155.555 67.1696 156.761C54.9011 181.079 54.2977 208.212 65.9629 229.918L67.9741 233.736L72.3989 233.535C96.9359 232.531 119.864 218.462 134.546 195.349C149.228 218.261 172.357 232.33 196.894 232.933L201.319 233.133L203.33 229.315C214.794 207.408 213.99 180.275 201.52 156.158C228.672 154.751 252.203 141.687 265.075 120.584L267.288 116.765L265.075 112.947ZM195.285 78.9808L193.475 82.3975H197.297C224.046 82.3975 247.577 94.4563 260.449 114.354L137.965 114.956L198.704 8.03435C209.766 29.1374 208.358 55.6669 195.285 78.9808ZM131.73 44.8139L133.742 48.2306L135.753 44.8139C149.228 21.5001 171.15 7.02944 194.883 5.62257L134.144 112.746L72.3989 6.22552C96.1314 7.4314 118.255 21.7011 131.73 44.8139ZM70.5887 83.2014H74.4101L72.3989 79.7847C59.1247 56.4709 57.5157 30.1423 68.3764 8.83827L130.121 115.358L7.8382 115.76C20.509 95.6622 43.8393 83.4024 70.5887 83.2014ZM73.0022 155.756L74.8123 152.339H70.991C44.2416 152.339 20.7101 140.28 7.8382 120.383L130.322 119.78L69.5831 226.903C58.5213 205.599 59.9292 179.07 73.0022 155.756ZM136.557 189.922L134.546 186.506L132.535 189.922C119.059 213.236 97.137 227.707 73.4045 229.114L134.144 121.991L195.889 228.511C172.156 227.305 150.033 213.035 136.557 189.922ZM197.699 151.535H193.877L195.889 154.952C209.163 178.266 210.772 204.594 199.911 225.898L138.166 119.378L260.65 118.775C247.779 139.074 224.448 151.334 197.699 151.535Z" stroke="#9EB01C" stroke-miterlimit="10"/>
</svg>
