<svg width="168" height="303" viewBox="0 0 168 303" fill="none" xmlns="http://www.w3.org/2000/svg">
<g opacity="0.7">
<path opacity="0.7" d="M128.912 189.54C149.899 189.54 167 172.188 167 151.21C167 130.233 149.899 112.881 128.912 112.881C111.812 112.881 97.3024 124.017 92.3795 140.333H43.669L78.1291 105.629C93.1568 113.917 111.035 111.068 123.212 98.8956C130.467 91.6441 134.354 82.0617 134.354 71.7024C134.354 61.3431 130.467 51.7607 123.212 44.5092C108.444 29.4882 84.0884 29.4882 69.3197 44.5092C57.1421 56.6814 54.5511 74.8102 62.8423 90.0902L28.3822 124.794V76.1051C44.7054 71.1844 55.5875 56.4224 55.5875 39.3295C55.5875 18.0929 38.487 1 17.5 1C-3.487 1 -20.5876 18.3519 -20.5876 39.3295C-20.5876 56.4224 -9.7054 71.1844 6.61782 76.1051V125.053L-27.8423 90.3492C-19.5511 75.3282 -22.1421 56.9404 -34.3198 44.7682C-41.5745 37.5166 -51.1612 33.6319 -61.266 33.6319C-71.3709 33.6319 -80.9575 37.5166 -88.2123 44.7682C-102.981 59.7892 -102.981 84.1336 -88.2123 99.1546C-76.0346 111.327 -58.1568 113.917 -43.1291 105.629L-8.66899 140.333H-57.3795C-62.0433 123.758 -76.8119 112.881 -93.9125 112.881C-114.899 112.881 -132 130.233 -132 151.21C-132 172.188 -114.899 189.54 -93.9125 189.54C-76.8119 189.54 -62.3024 178.403 -57.3795 162.088H-8.66899L-43.1291 196.791C-58.1568 188.504 -76.2937 191.094 -88.2123 203.266C-102.981 218.287 -102.981 242.631 -88.2123 257.652C-73.4436 272.673 -49.0884 272.673 -34.3198 257.652C-22.1421 245.48 -19.5511 227.351 -27.8423 212.33L6.61782 177.627V227.092C-9.7054 232.013 -20.5876 246.775 -20.5876 263.868C-20.5876 285.105 -3.487 302.197 17.5 302.197C38.487 302.197 55.5875 284.846 55.5875 263.868C55.5875 246.516 44.7054 232.013 28.3822 227.092V177.886L62.8423 212.589C54.8102 227.61 57.4012 245.739 69.3197 257.911C84.0884 272.932 108.444 272.932 123.212 257.911C137.981 242.89 137.981 218.546 123.212 203.525C111.035 191.353 92.8977 188.763 78.1291 197.05L43.669 162.347H92.3795C97.3024 178.662 111.812 189.54 128.912 189.54ZM69.3197 213.625L70.6152 211.553L23.2002 163.9L22.1637 162.864V231.754L24.4957 232.272C39.2643 235.639 49.3691 248.588 49.3691 263.609C49.3691 281.479 35.1187 295.982 17.2409 295.982C-0.377835 295.982 -14.8873 281.479 -14.8873 263.609C-14.8873 248.588 -4.78248 235.639 9.98615 232.272L12.318 231.754V162.864L-35.6152 211.294L-35.8744 211.553L-34.5789 213.625C-26.5468 226.574 -28.3604 242.89 -38.9835 253.509C-51.4202 266.199 -71.889 266.199 -84.3258 253.509C-96.7625 240.818 -96.7625 220.359 -84.3258 207.928C-73.7027 197.309 -57.3795 195.496 -44.6837 203.525L-42.6109 204.82L4.54506 157.167L5.58144 156.131H-62.5615L-63.0797 158.462C-66.448 173.224 -79.1438 183.583 -94.1716 183.583C-111.79 183.583 -126.3 169.08 -126.3 151.21C-126.3 133.34 -112.049 118.837 -94.1716 118.837C-79.1438 118.837 -66.1889 129.197 -63.0797 143.959L-62.5615 146.29H5.58144L-42.3518 98.1187L-42.6109 97.8597L-44.6837 99.1546C-57.3795 107.183 -73.7027 105.37 -84.3258 94.7519C-90.285 88.5363 -93.6533 80.5078 -93.6533 71.9614C-93.6533 63.415 -90.285 55.1275 -84.3258 49.1709C-78.3665 42.9553 -70.3345 39.5885 -61.7842 39.5885C-53.234 39.5885 -45.2019 42.9553 -39.2426 49.1709C-28.6196 59.7892 -26.8059 76.3641 -34.838 89.0543L-36.1335 91.1261L11.0225 138.779L12.0589 139.815V71.1844L9.72703 70.6665C-5.04159 67.2997 -15.1465 54.3505 -15.1465 39.3295C-15.1465 21.4597 -0.896048 6.95661 16.9818 6.95661C34.6005 6.95661 49.1101 21.4597 49.1101 39.3295C49.1101 54.6095 38.7461 67.2997 24.2366 70.6665L21.9047 71.1844V139.556L69.838 91.3851L70.097 91.1261L68.8015 89.0543C60.7694 76.1051 62.5832 59.7892 73.2062 49.1709C79.1655 43.2143 87.1976 39.8475 95.7478 39.8475C104.298 39.8475 112.33 43.2143 118.289 49.1709C124.249 55.3865 127.617 63.415 127.617 71.9614C127.617 80.5078 124.249 88.7953 118.289 94.7519C107.666 105.37 91.3431 107.183 78.6473 99.1546L76.5745 97.8597L29.1594 145.513L28.1231 146.549H96.5251L97.0433 144.218C100.412 129.456 113.107 119.096 128.135 119.096C145.754 119.096 160.263 133.599 160.263 151.469C160.263 169.339 146.013 183.842 128.135 183.842C113.107 183.842 100.412 173.483 97.0433 158.721L96.5251 156.39H28.3822L77.0927 204.561L77.3518 204.82L79.4246 203.525C92.1204 195.496 108.444 197.309 119.067 207.928C131.503 220.618 131.503 241.077 119.067 253.509C106.63 266.199 86.1612 266.199 73.7244 253.509C63.1014 242.89 61.2877 226.315 69.3197 213.625Z" stroke="#9EB01C" stroke-miterlimit="10"/>
</g>
</svg>
