<svg width="202" height="198" viewBox="0 0 202 198" fill="none" xmlns="http://www.w3.org/2000/svg">
<g opacity="0.7">
<path opacity="0.7" d="M199.498 92.202C196.619 81.7053 191.199 73.0708 183.577 66.1295C184.424 55.2941 182.222 44.7974 176.632 34.8086C169.349 22.2802 158.509 13.9844 144.281 9.75183C134.119 7.043 123.956 7.3816 114.132 10.5983C105.324 4.33416 95.1617 1.11742 83.644 0.94812C69.2469 1.11742 56.5436 6.36579 46.0421 16.5239C38.4201 24.3118 33.6776 33.2848 31.4756 43.443C21.8211 48.0141 13.8604 55.2941 8.10154 65.1136C0.987674 77.8113 -0.706124 91.3555 2.68143 105.746C5.56085 116.243 10.981 124.877 18.603 131.819C17.7561 142.654 19.958 153.151 25.5474 163.14C32.8307 175.668 43.6708 183.964 57.8986 188.196C62.6412 189.381 67.3837 190.059 71.9569 190.059C77.5464 190.059 82.9665 189.212 88.2172 187.35C97.0248 193.614 107.187 196.831 118.705 197C133.102 196.831 145.806 191.582 156.307 181.424C163.929 173.636 168.672 164.663 170.874 154.505C180.528 149.934 188.489 142.654 194.248 132.835C201.192 120.306 203.055 106.593 199.498 92.202ZM22.3293 135.035C24.023 136.221 25.7168 137.406 27.4106 138.591C35.8795 143.331 44.8565 145.871 54.0029 145.871C57.7292 145.871 61.2861 145.532 65.0124 144.686C65.5206 158.738 70.7713 171.097 80.4258 181.424C81.6115 182.609 82.7971 183.625 83.9827 184.641C75.8526 186.842 67.3837 186.842 58.9149 184.641C45.7034 180.916 35.5407 173.128 28.7656 161.447C24.3618 152.981 22.1599 144.178 22.3293 135.035ZM179.851 62.9127C178.157 61.7276 176.463 60.5425 174.769 59.3574C162.913 52.5853 150.209 50.723 136.998 53.2625C136.49 39.0411 131.409 26.682 121.585 16.5239C120.399 15.3388 119.213 14.323 118.028 13.3072C126.158 11.1063 134.457 11.1063 143.096 13.3072C156.307 17.0318 166.47 24.8197 173.245 36.5016C177.987 44.9667 180.189 53.7704 179.851 62.9127ZM83.4746 108.286C83.644 108.286 91.266 107.947 94.8229 107.101C94.9923 110.825 95.3311 114.55 96.178 118.444C89.7416 128.602 80.7646 135.543 69.4163 139.268C70.4325 127.417 75.0057 117.089 83.4746 108.286ZM100.751 101.344C100.074 100.836 99.5655 100.328 99.0574 99.8206C99.2267 98.9741 99.3961 98.2969 99.3961 97.4504C100.074 97.1118 100.921 96.9424 101.598 96.6038C102.276 97.1118 102.784 97.6197 103.292 98.1276C103.122 98.9741 103.122 99.6513 102.953 100.498C102.276 100.836 101.429 101.006 100.751 101.344ZM108.543 97.4504C108.204 97.1118 107.696 96.7731 107.357 96.4345C107.357 95.9266 107.526 95.4187 107.526 94.9108C109.559 94.4029 111.761 94.0643 113.963 93.895C112.269 95.2494 110.406 96.4345 108.543 97.4504ZM103.631 91.6941C103.122 91.8634 102.614 92.0327 102.106 92.202C101.598 91.8634 101.259 91.5248 100.751 91.3555C101.429 89.3239 102.106 87.1229 103.122 85.0913C103.461 87.2922 103.631 89.4932 103.631 91.6941ZM93.6373 100.498C93.976 100.836 94.4842 101.175 94.8229 101.514C94.8229 102.022 94.6535 102.529 94.6535 103.037C92.621 103.545 90.4191 103.884 88.2172 104.053C90.0803 102.699 91.7741 101.514 93.6373 100.498ZM98.7186 106.254C99.2268 106.085 99.7349 105.915 100.243 105.746C100.751 106.085 101.09 106.423 101.598 106.593C100.921 108.624 100.243 110.825 99.2267 112.857C98.888 110.656 98.7186 108.455 98.7186 106.254ZM107.526 90.6783C107.357 86.9536 107.018 83.229 106.171 79.335C112.608 69.1769 121.585 62.2355 132.933 58.5109C131.917 70.362 127.174 80.8587 118.875 89.4932C118.875 89.6625 111.083 90.0011 107.526 90.6783ZM101.767 78.9964C99.9042 82.3825 98.3799 85.7685 97.3636 89.1545C94.1454 87.4615 90.5885 85.9378 87.0315 84.7527C81.6115 74.0867 80.0871 62.7434 82.4583 51.0616C92.1129 57.8336 98.7186 67.1453 102.106 78.6578C101.937 78.8271 101.767 78.9964 101.767 78.9964ZM96.178 93.2178C96.0086 93.7257 96.0086 94.2336 95.8392 94.9108C95.331 95.0801 94.8229 95.4187 94.3148 95.588C92.7904 93.895 91.4354 92.202 90.0803 90.3397C92.2823 91.0169 94.1454 92.0327 96.178 93.2178ZM84.3215 88.4773C86.1847 91.6941 88.3866 94.7415 90.9272 97.4504C87.8784 99.3127 84.8296 101.683 81.9502 104.222C70.0938 103.715 59.423 99.3127 50.6153 91.3555C61.2861 86.2764 72.6344 85.2606 84.1521 87.9694C84.1521 88.308 84.3215 88.308 84.3215 88.4773ZM100.582 118.952C102.445 115.566 103.969 112.18 104.986 108.794C108.204 110.487 111.591 112.01 115.318 113.195C120.738 123.861 122.262 135.205 119.891 147.056C110.236 140.284 103.631 130.972 100.243 119.46C100.412 119.121 100.412 118.952 100.582 118.952ZM106.171 104.9C106.341 104.392 106.341 103.715 106.51 103.207C107.018 103.037 107.526 102.699 107.865 102.529C109.389 104.222 110.744 105.915 112.099 107.778C110.067 106.931 108.034 105.915 106.171 104.9ZM118.028 109.471C116.165 106.254 113.963 103.207 111.422 100.498C114.471 98.6355 117.52 96.2652 120.399 93.7257C132.425 94.2336 142.926 98.6355 151.734 106.593C141.063 111.672 129.715 112.857 118.197 109.979C118.197 109.809 118.028 109.64 118.028 109.471ZM178.326 74.4253C174.769 87.4615 166.978 97.6197 155.46 104.73C146.483 96.2652 135.812 91.1862 123.787 90.0011C131.747 80.6894 135.982 69.8541 136.829 57.6643C149.193 54.9555 161.219 56.6485 172.398 62.9127C174.939 64.4364 177.14 66.1295 179.342 67.9918C179.342 70.0234 179.004 72.055 178.326 74.4253ZM133.102 54.4476C121.415 58.0029 111.761 64.775 104.647 74.5946C100.582 63.082 93.4679 53.9397 83.3052 46.9983C87.2009 34.8086 94.6535 25.3276 105.663 18.5555C108.204 17.0318 110.914 16.016 113.454 15.0002C115.148 16.3546 116.842 17.709 118.536 19.2328C128.021 28.883 132.933 40.7341 133.102 54.4476ZM41.2996 43.9509C54.3416 40.5648 66.8756 42.0885 78.732 48.6913C75.8526 60.7118 76.8689 72.3936 81.7808 83.5676C69.9244 81.3666 58.4067 82.8904 47.3972 88.4773C38.9283 78.9964 34.3551 67.8225 34.1857 54.7862C34.1857 51.9081 34.5245 49.0299 35.0326 46.1518C37.0651 45.3053 39.0976 44.6281 41.2996 43.9509ZM23.8536 123.692C27.4106 110.656 35.202 100.498 46.7196 93.3871C55.6967 101.852 66.3675 106.762 78.3933 108.116C70.4325 117.428 66.1981 128.263 65.3512 140.453C52.9866 143.162 40.9608 141.469 29.7819 135.205C27.2412 133.681 25.0393 131.988 22.8374 130.126C23.0068 128.094 23.3455 125.893 23.8536 123.692ZM69.0775 143.67C80.7646 140.115 90.4191 133.342 97.533 123.523C101.598 135.035 108.712 144.178 118.875 151.119C114.979 163.309 107.526 172.79 96.5167 179.562C93.976 181.086 91.266 182.101 88.7253 183.117C87.0315 181.763 85.3378 180.408 83.644 178.885C74.3282 169.065 69.4163 157.214 69.0775 143.67ZM161.05 153.997C148.008 157.383 135.474 155.86 123.617 149.257C126.497 137.236 125.48 125.555 120.568 114.381C123.956 115.058 127.343 115.396 130.731 115.396C139.031 115.396 146.991 113.365 154.783 109.471C163.252 118.952 167.825 130.126 167.994 143.162C167.994 146.04 167.655 148.918 167.147 151.796C165.284 152.643 163.082 153.32 161.05 153.997ZM103.969 15.0002C92.2822 21.9416 84.1521 32.0997 79.9177 44.7974C67.5531 38.1946 54.3417 36.5016 40.6221 39.8876C39.0977 40.3955 37.5733 40.9034 36.0489 41.4113C38.2508 33.2848 42.3158 25.8355 48.5828 19.4021C58.4067 9.75183 70.2631 4.84207 83.644 4.67277C93.1291 4.84207 101.937 7.3816 109.559 12.1221C107.696 13.1379 105.832 13.9844 103.969 15.0002ZM44.0096 90.509C32.1532 97.9583 24.023 108.624 20.1273 122.338C19.7886 123.861 19.4498 125.555 19.1111 127.078C13.1829 121.153 8.94841 113.703 6.57712 105.238C3.18957 91.8634 4.88335 79.1657 11.3197 67.3146C16.2317 59.0188 22.668 52.7546 30.6288 48.3527C30.4594 50.3844 30.29 52.416 30.1206 54.4476C30.4594 68.1611 35.202 80.3508 44.0096 90.509ZM98.3798 182.948C110.067 176.007 118.197 165.848 122.432 153.151C130.562 157.553 139.031 159.754 147.838 159.754C152.411 159.754 156.985 159.246 161.727 158.061C163.252 157.553 164.776 157.045 166.3 156.537C164.098 164.663 160.033 172.113 153.766 178.546C143.942 188.196 132.086 193.106 118.705 193.275C109.22 193.106 100.412 190.567 92.7904 185.826C94.6536 184.81 96.5167 183.964 98.3798 182.948ZM158.34 107.439C170.196 99.9899 178.326 89.3238 182.222 75.6104C182.561 74.0867 182.899 72.5629 183.238 70.8699C189.166 76.7955 193.401 84.2448 195.941 92.7099C199.329 106.085 197.635 118.782 191.199 130.634C186.287 138.929 179.851 145.194 171.89 149.595C172.059 147.564 172.229 145.532 172.398 143.331C171.72 129.787 167.147 117.597 158.34 107.439Z" stroke="#9EB01C" stroke-miterlimit="10"/>
</g>
</svg>
