<svg width="315" height="303" viewBox="0 0 315 303" fill="none" xmlns="http://www.w3.org/2000/svg">
<path opacity="0.7" d="M311.764 114.529C307.293 112.537 302.821 110.296 298.35 108.304C284.19 101.582 269.534 94.6113 253.139 89.6319C237.986 85.1506 221.839 90.8768 207.679 105.566C197.743 116.022 188.552 127.475 179.609 138.678C176.379 142.911 173.15 146.894 169.672 151.127C172.405 146.645 175.386 142.164 178.367 137.682C186.067 125.732 194.265 113.284 200.972 100.586C210.66 82.4119 210.909 65.2332 201.966 52.038C192.029 37.598 181.099 25.8966 170.417 14.4442C167.188 10.9587 163.71 7.22415 160.232 3.48966L157.997 1L155.761 3.48966C152.532 7.22415 149.054 10.7097 145.576 14.4442C134.894 25.8966 123.964 37.847 114.028 52.038C105.085 65.2332 105.333 82.4119 115.021 100.586C121.729 113.284 129.926 125.732 137.627 137.682C140.608 142.164 143.34 146.645 146.321 151.127C142.844 146.894 139.614 142.911 136.385 138.678C127.442 127.475 118.499 116.022 108.314 105.566C94.1547 90.6278 78.0079 85.1506 62.8547 89.6319C46.2111 94.6113 31.8031 101.582 17.6436 108.304C13.1722 110.296 8.70076 112.537 4.22933 114.529L1 116.022L2.73884 119.01C5.22297 123.491 7.45867 127.724 9.9428 131.956C17.3952 145.649 25.096 160.089 35.7778 173.782C43.2302 183.741 55.1539 188.969 69.5618 188.969C73.5365 188.969 77.5111 188.471 81.7341 187.725C95.8937 185.235 110.053 181.251 123.716 177.517C128.684 176.023 133.901 174.778 138.869 173.285C133.901 175.276 128.932 177.019 124.213 179.011C111.047 183.99 97.1357 189.218 84.2183 195.691C65.8357 204.654 55.6508 218.347 55.1539 234.281C54.6571 251.709 56.6444 267.892 58.6317 283.576C59.1285 288.556 59.8738 293.286 60.3706 298.266L60.8674 301.751L64.3452 301.004C69.3135 300.008 74.0333 299.012 78.7531 298.266C94.1547 295.278 109.805 292.29 126.2 286.564C141.105 281.336 150.793 267.145 153.525 246.73C155.513 232.289 156.258 217.6 156.755 203.16C157.003 197.932 157.252 192.704 157.5 187.227C157.748 192.455 157.997 197.932 158.245 203.16C158.99 217.352 159.487 232.289 161.475 246.73C164.207 267.145 174.144 281.336 188.8 286.564C205.195 292.29 220.845 295.527 236.247 298.266C240.967 299.261 245.935 300.008 250.655 301.253L254.133 302L254.629 298.515C255.126 293.535 255.871 288.556 256.368 283.576C258.356 267.892 260.343 251.709 259.846 234.281C259.349 218.347 249.164 204.654 230.782 195.691C217.864 189.218 204.202 184.239 190.787 179.011C185.819 177.268 180.851 175.276 176.131 173.285C181.348 174.529 186.316 176.023 191.284 177.517C204.947 181.251 219.106 185.235 233.266 187.725C237.489 188.471 241.712 188.969 245.438 188.969C259.846 188.969 271.521 183.741 279.222 173.782C289.656 159.84 297.605 145.649 305.057 131.707C307.293 127.475 309.777 122.993 312.261 118.761L314 115.773L311.764 114.529ZM122.474 171.791C109.06 175.525 94.9 179.509 80.9888 181.998C70.8039 183.741 51.9245 184.737 40.9944 170.297C30.8095 156.853 23.3571 143.409 15.6563 129.218C13.9174 125.981 11.9301 122.495 10.1912 119.01C13.669 117.516 17.1468 115.773 20.6246 114.031C35.2809 107.06 48.9436 100.586 65.0904 95.8561C82.2309 90.6278 96.8873 102.578 104.091 110.047C113.779 120.255 122.971 131.707 131.665 142.911C137.379 150.131 143.34 157.6 149.302 164.571C140.359 166.811 131.417 169.301 122.474 171.791ZM151.29 203.16C150.544 217.352 150.048 232.041 148.06 245.983C146.57 256.439 141.602 274.614 124.709 280.589C108.811 286.315 93.9063 289.054 78.2563 292.041C74.5301 292.788 70.8039 293.535 67.0777 294.282C66.5809 290.548 66.0841 286.564 65.5873 282.83C63.6 266.647 61.6126 251.46 62.1095 234.53C62.6063 216.356 78.2563 206.148 87.696 201.418C100.365 195.194 114.028 189.965 126.945 184.986C135.64 181.749 144.334 178.264 153.029 174.778C152.035 184.239 151.538 193.949 151.29 203.16ZM158.245 158.098C153.525 150.131 148.309 142.164 143.34 134.446C135.64 122.495 127.69 110.296 120.983 97.8478C116.015 88.6361 109.308 70.9595 119.493 56.0215C128.932 42.0794 139.366 30.8759 150.544 19.1745C153.029 16.4359 155.761 13.6973 158.245 10.7097C160.729 13.4483 163.462 16.4359 165.946 19.1745C176.876 30.8759 187.31 42.0794 196.998 56.0215C207.183 70.9595 200.475 88.6361 195.507 97.8478C188.8 110.296 180.851 122.744 173.15 134.446C168.182 142.164 162.965 150.131 158.245 158.098ZM189.794 185.235C202.96 190.214 216.622 195.443 229.291 201.667C238.731 206.148 254.381 216.605 254.878 234.779C255.375 251.709 253.387 266.896 251.4 283.079C250.903 286.813 250.406 290.797 249.909 294.531C246.183 293.784 242.457 293.037 238.731 292.29C222.833 289.303 208.176 286.315 192.278 280.838C175.386 274.863 170.417 256.439 168.927 246.232C166.94 232.041 166.194 217.601 165.698 203.409C165.201 194.198 164.952 184.737 163.959 175.276C172.156 178.762 181.099 181.998 189.794 185.235ZM300.586 128.969C292.885 143.16 285.433 156.604 275.248 170.048C264.317 184.488 245.686 183.492 235.253 181.749C221.342 179.26 207.431 175.276 193.768 171.542C184.825 169.052 175.882 166.562 166.691 164.322C172.653 157.351 178.615 149.882 184.329 142.662C193.023 131.707 202.214 120.255 211.902 109.798C219.106 102.329 233.763 90.3788 250.903 95.6071C267.05 100.586 280.713 107.06 295.369 114.031C298.847 115.773 302.325 117.267 305.802 119.01C304.312 122.247 302.325 125.732 300.586 128.969Z" stroke="#9EB01C" stroke-miterlimit="10"/>
</svg>
