<svg width="132" height="268" viewBox="0 0 132 268" fill="none" xmlns="http://www.w3.org/2000/svg">
<path d="M231.658 167.47C250.188 167.47 265.287 152.149 265.287 133.627C265.287 115.105 250.188 99.7843 231.658 99.7843C216.559 99.7843 203.748 109.617 199.401 124.023H156.393L186.819 93.3816C200.088 100.699 215.873 98.1836 226.625 87.4363C233.031 81.0336 236.462 72.5729 236.462 63.4262C236.462 54.2795 233.031 45.8188 226.625 39.4161C213.585 26.1534 192.081 26.1534 179.041 39.4161C168.289 50.1635 166.001 66.1702 173.322 79.6616L142.895 110.303V67.3135C157.308 62.9689 166.916 49.9348 166.916 34.8428C166.916 16.092 151.817 1 133.287 1C114.757 1 99.658 16.3207 99.658 34.8428C99.658 49.9348 109.266 62.9689 123.679 67.3135V110.532L93.2525 79.8903C100.573 66.6275 98.2854 50.3922 87.5332 39.6448C81.1277 33.2421 72.6632 29.8121 63.7412 29.8121C54.8192 29.8121 46.3547 33.2421 39.9492 39.6448C26.9093 52.9075 26.9093 74.4022 39.9492 87.6649C50.7014 98.4123 66.4864 100.699 79.7551 93.3816L110.181 124.023H67.1728C63.0549 109.388 50.015 99.7843 34.9162 99.7843C16.3859 99.7843 1.28711 115.105 1.28711 133.627C1.28711 152.149 16.3859 167.47 34.9162 167.47C50.015 167.47 62.8261 157.637 67.1728 143.231H110.181L79.7551 173.873C66.4864 166.555 50.4726 168.842 39.9492 179.589C26.9093 192.852 26.9093 214.347 39.9492 227.609C52.9891 240.872 74.4934 240.872 87.5332 227.609C98.2854 216.862 100.573 200.855 93.2525 187.593L123.679 156.951V200.627C109.266 204.971 99.658 218.005 99.658 233.097C99.658 251.848 114.757 266.94 133.287 266.94C151.817 266.94 166.916 251.619 166.916 233.097C166.916 217.777 157.308 204.971 142.895 200.627V157.18L173.322 187.821C166.23 201.084 168.518 217.091 179.041 227.838C192.081 241.101 213.585 241.101 226.625 227.838C239.665 214.575 239.665 193.081 226.625 179.818C215.873 169.071 199.859 166.784 186.819 174.101L156.393 143.46H199.401C203.748 157.866 216.559 167.47 231.658 167.47ZM179.041 188.736L180.185 186.907L138.32 144.832L137.405 143.917V204.743L139.464 205.2C152.504 208.173 161.426 219.606 161.426 232.869C161.426 248.647 148.843 261.452 133.058 261.452C117.502 261.452 104.691 248.647 104.691 232.869C104.691 219.606 113.613 208.173 126.653 205.2L128.712 204.743V143.917L86.3894 186.678L86.1606 186.907L87.3044 188.736C94.3963 200.169 92.7949 214.575 83.4154 223.951C72.4345 235.155 54.3617 235.155 43.3807 223.951C32.3998 212.746 32.3998 194.681 43.3807 183.705C52.7603 174.33 67.1727 172.729 78.3824 179.818L80.2126 180.961L121.849 138.886L122.764 137.972H62.5974L62.1398 140.03C59.1658 153.064 47.9561 162.211 34.6875 162.211C19.1311 162.211 6.32007 149.405 6.32007 133.627C6.32007 117.849 18.9024 105.044 34.6875 105.044C47.9561 105.044 59.3946 114.19 62.1398 127.224L62.5974 129.282H122.764L80.4414 86.7503L80.2126 86.5216L78.3824 87.6649C67.1727 94.7536 52.7603 93.153 43.3807 83.7776C38.119 78.2896 35.145 71.2009 35.145 63.6549C35.145 56.1088 38.119 48.7915 43.3807 43.5321C48.6424 38.0441 55.7343 35.0714 63.2836 35.0714C70.833 35.0714 77.9249 38.0441 83.1866 43.5321C92.5662 52.9075 94.1675 67.5422 87.0757 78.7469L85.9318 80.5763L127.568 122.651L128.483 123.566V62.9689L126.424 62.5115C113.384 59.5389 104.462 48.1055 104.462 34.8428C104.462 19.0647 117.044 6.25935 132.83 6.25935C148.386 6.25935 161.197 19.0647 161.197 34.8428C161.197 48.3342 152.046 59.5389 139.235 62.5115L137.176 62.9689V123.337L179.499 80.8049L179.727 80.5763L178.583 78.7469C171.492 67.3135 173.093 52.9075 182.473 43.5321C187.734 38.2728 194.826 35.3001 202.376 35.3001C209.925 35.3001 217.017 38.2728 222.278 43.5321C227.54 49.0202 230.514 56.1088 230.514 63.6549C230.514 71.2009 227.54 78.5183 222.278 83.7776C212.899 93.153 198.486 94.7536 187.277 87.6649L185.447 86.5216L143.582 128.596L142.667 129.511H203.062L203.519 127.453C206.493 114.419 217.703 105.272 230.972 105.272C246.528 105.272 259.339 118.078 259.339 133.856C259.339 149.634 246.757 162.439 230.972 162.439C217.703 162.439 206.493 153.292 203.519 140.258L203.062 138.2H142.895L185.904 180.733L186.133 180.961L187.963 179.818C199.173 172.729 213.585 174.33 222.965 183.705C233.946 194.91 233.946 212.975 222.965 223.951C211.984 235.155 193.911 235.155 182.93 223.951C173.551 214.575 171.949 199.941 179.041 188.736Z" stroke="#9EB01C" stroke-miterlimit="10"/>
</svg>
