<svg width="266" height="268" viewBox="0 0 266 268" fill="none" xmlns="http://www.w3.org/2000/svg">
<path d="M231.371 167.47C249.901 167.47 265 152.149 265 133.627C265 115.105 249.901 99.7843 231.371 99.7843C216.272 99.7843 203.461 109.617 199.114 124.023H156.106L186.532 93.3816C199.801 100.699 215.586 98.1836 226.338 87.4363C232.743 81.0336 236.175 72.5729 236.175 63.4262C236.175 54.2795 232.743 45.8188 226.338 39.4161C213.298 26.1534 191.794 26.1534 178.754 39.4161C168.002 50.1635 165.714 66.1702 173.035 79.6616L142.608 110.303V67.3135C157.021 62.9689 166.629 49.9348 166.629 34.8428C166.629 16.092 151.53 1 133 1C114.47 1 99.3709 16.3207 99.3709 34.8428C99.3709 49.9348 108.979 62.9689 123.392 67.3135V110.532L92.9653 79.8903C100.286 66.6275 97.9983 50.3922 87.2461 39.6448C80.8406 33.2421 72.3761 29.8121 63.4541 29.8121C54.5321 29.8121 46.0676 33.2421 39.6621 39.6448C26.6222 52.9075 26.6222 74.4022 39.6621 87.6649C50.4143 98.4123 66.1993 100.699 79.468 93.3816L109.894 124.023H66.8856C62.7678 109.388 49.7279 99.7843 34.6291 99.7843C16.0988 99.7843 1 115.105 1 133.627C1 152.149 16.0988 167.47 34.6291 167.47C49.7279 167.47 62.539 157.637 66.8856 143.231H109.894L79.468 173.873C66.1993 166.555 50.1855 168.842 39.6621 179.589C26.6222 192.852 26.6222 214.347 39.6621 227.609C52.702 240.872 74.2063 240.872 87.2461 227.609C97.9983 216.862 100.286 200.855 92.9653 187.593L123.392 156.951V200.627C108.979 204.971 99.3709 218.005 99.3709 233.097C99.3709 251.848 114.47 266.94 133 266.94C151.53 266.94 166.629 251.619 166.629 233.097C166.629 217.777 157.021 204.971 142.608 200.627V157.18L173.035 187.821C165.943 201.084 168.23 217.091 178.754 227.838C191.794 241.101 213.298 241.101 226.338 227.838C239.378 214.575 239.378 193.081 226.338 179.818C215.586 169.071 199.572 166.784 186.532 174.101L156.106 143.46H199.114C203.461 157.866 216.272 167.47 231.371 167.47ZM178.754 188.736L179.898 186.907L138.033 144.832L137.118 143.917V204.743L139.177 205.2C152.217 208.173 161.139 219.606 161.139 232.869C161.139 248.647 148.556 261.452 132.771 261.452C117.215 261.452 104.404 248.647 104.404 232.869C104.404 219.606 113.326 208.173 126.366 205.2L128.425 204.743V143.917L86.1023 186.678L85.8735 186.907L87.0173 188.736C94.1092 200.169 92.5078 214.575 83.1283 223.951C72.1474 235.155 54.0746 235.155 43.0936 223.951C32.1127 212.746 32.1127 194.681 43.0936 183.705C52.4732 174.33 66.8856 172.729 78.0953 179.818L79.9255 180.961L121.562 138.886L122.477 137.972H62.3103L61.8527 140.03C58.8787 153.064 47.669 162.211 34.4004 162.211C18.844 162.211 6.03296 149.405 6.03296 133.627C6.03296 117.849 18.6153 105.044 34.4004 105.044C47.669 105.044 59.1075 114.19 61.8527 127.224L62.3103 129.282H122.477L80.1542 86.7503L79.9255 86.5216L78.0953 87.6649C66.8856 94.7536 52.4732 93.153 43.0936 83.7776C37.8319 78.2896 34.8579 71.2009 34.8579 63.6549C34.8579 56.1088 37.8319 48.7915 43.0936 43.5321C48.3553 38.0441 55.4471 35.0714 62.9965 35.0714C70.5459 35.0714 77.6378 38.0441 82.8995 43.5321C92.2791 52.9075 93.8804 67.5422 86.7885 78.7469L85.6447 80.5763L127.281 122.651L128.196 123.566V62.9689L126.137 62.5115C113.097 59.5389 104.175 48.1055 104.175 34.8428C104.175 19.0647 116.757 6.25935 132.542 6.25935C148.099 6.25935 160.91 19.0647 160.91 34.8428C160.91 48.3342 151.759 59.5389 138.948 62.5115L136.889 62.9689V123.337L179.211 80.8049L179.44 80.5763L178.296 78.7469C171.204 67.3135 172.806 52.9075 182.185 43.5321C187.447 38.2728 194.539 35.3001 202.088 35.3001C209.638 35.3001 216.73 38.2728 221.991 43.5321C227.253 49.0202 230.227 56.1088 230.227 63.6549C230.227 71.2009 227.253 78.5183 221.991 83.7776C212.612 93.153 198.199 94.7536 186.99 87.6649L185.159 86.5216L143.295 128.596L142.38 129.511H202.775L203.232 127.453C206.206 114.419 217.416 105.272 230.685 105.272C246.241 105.272 259.052 118.078 259.052 133.856C259.052 149.634 246.47 162.439 230.685 162.439C217.416 162.439 206.206 153.292 203.232 140.258L202.775 138.2H142.608L185.617 180.733L185.846 180.961L187.676 179.818C198.886 172.729 213.298 174.33 222.678 183.705C233.659 194.91 233.659 212.975 222.678 223.951C211.697 235.155 193.624 235.155 182.643 223.951C173.263 214.575 171.662 199.941 178.754 188.736Z" stroke="#9EB01C" stroke-miterlimit="10"/>
</svg>
