<svg width="196" height="202" viewBox="0 0 196 202" fill="none" xmlns="http://www.w3.org/2000/svg">
<path d="M168.706 101C178.314 105.722 186.91 113.31 194.326 123.428L195 124.44L194.663 125.452C192.472 134.558 188.932 143.159 184.381 151.084C179.831 159.01 174.268 166.261 167.358 172.838L166.684 173.513L165.672 173.344C153.368 171.995 142.413 168.285 133.48 162.214C134.154 173.007 131.963 184.305 126.906 195.772L126.401 196.784L125.389 197.121C116.456 199.651 107.186 201 98.0843 201C88.6455 201 79.7124 199.82 70.6108 197.121L69.5995 196.784L69.0938 195.772C64.0373 184.305 61.8462 173.007 62.5204 162.214C53.5873 168.285 42.8002 171.995 30.3275 173.344L29.3163 173.513L28.642 172.838C21.9001 166.43 16.1694 159.01 11.6186 151.084C7.06777 142.99 3.69678 134.558 1.33709 125.283L1 124.271L1.67419 123.26C8.9218 113.142 17.5178 105.553 27.2937 100.831C17.6864 96.1096 9.09035 88.5211 1.67419 78.403L1 77.5599L1.33709 76.5481C3.52823 67.4418 7.06777 58.8415 11.6186 50.9157C16.1694 42.9899 21.7315 35.7386 28.642 29.1619L29.3163 28.4874L30.3275 28.656C42.6316 30.0051 53.5873 33.715 62.5204 39.7858C61.8462 28.9933 64.0373 17.6948 69.0938 6.22767L69.5995 5.21585L70.6108 4.87859C79.5439 2.34908 88.8141 1 97.9157 1C107.354 1 116.288 2.18044 125.389 4.87859L126.401 5.21585L126.906 6.22767C131.963 17.6948 134.154 28.9933 133.48 39.7858C142.413 33.715 153.2 30.0051 165.672 28.656L166.684 28.4874L167.358 29.1619C174.1 35.57 179.831 42.9899 184.381 50.9157C188.932 59.0101 192.303 67.4418 194.663 76.7167L195 77.7285L194.326 78.5717C187.078 88.6897 178.482 96.2782 168.706 101Z" fill="white" stroke="#A6B720" stroke-miterlimit="10"/>
<path d="M194.326 123.428C186.91 113.31 178.314 105.722 168.706 101C178.482 96.2782 187.078 88.6897 194.326 78.5717L195 77.7285L194.663 76.7167C192.303 67.4418 188.932 59.0101 184.381 50.9157C179.831 42.9899 174.1 35.57 167.358 29.1619L166.684 28.4874L165.672 28.656C153.2 30.0051 142.413 33.715 133.48 39.7858C134.154 28.9933 131.963 17.6948 126.906 6.22767L126.401 5.21585L125.389 4.87859C116.288 2.18044 107.354 1 97.9157 1C88.8141 1 79.5439 2.34908 70.6108 4.87859L69.5995 5.21585L69.0938 6.22767C64.0373 17.6948 61.8462 28.9933 62.5204 39.7858C53.5873 33.715 42.6316 30.0051 30.3275 28.656L29.3163 28.4874L28.642 29.1619C21.7315 35.7386 16.1694 42.9899 11.6186 50.9157C7.06777 58.8415 3.52823 67.4418 1.33709 76.5481L1 77.5599L1.67419 78.403C9.09035 88.5211 17.6864 96.1096 27.2937 100.831C17.5178 105.553 8.9218 113.142 1.67419 123.26L1 124.272L1.33709 125.283C3.69678 134.558 7.06777 142.99 11.6186 151.084C16.1694 159.01 21.9001 166.43 28.642 172.838L29.3163 173.513L30.3275 173.344C42.8002 171.995 53.5873 168.285 62.5204 162.214C61.8462 173.007 64.0373 184.305 69.0938 195.772L69.5995 196.784L70.6108 197.121C79.7124 199.82 88.6455 201 98.0843 201C107.186 201 116.456 199.651 125.389 197.121L126.401 196.784L126.906 195.772C131.963 184.305 134.154 173.007 133.48 162.214C142.413 168.285 153.368 171.995 165.672 173.344L166.684 173.513L167.358 172.838C174.268 166.261 179.831 159.01 184.381 151.084C188.932 143.159 192.472 134.558 194.663 125.452L195 124.44L194.326 123.428ZM128.423 44.1703L127.58 49.9039L131.963 46.3626C140.896 39.2799 152.02 34.8955 164.998 33.2091C170.56 38.774 175.28 44.8449 179.325 51.4216L100.107 97.2901V5.72176C107.86 5.89039 115.445 6.9022 123.03 9.09444C128.423 21.0675 130.109 32.8718 128.423 44.1703ZM31.0017 33.0405C44.1486 34.5582 55.1042 38.9427 64.0373 46.1939L68.4196 49.7353L67.5769 44.0017C65.8914 32.7032 67.5769 20.8988 72.8019 8.75718C80.3866 6.73357 88.1399 5.55313 95.7246 5.3845V96.9528L16.5065 51.0843C20.5517 44.6762 25.2711 38.6054 31.0017 33.0405ZM5.71938 125.115C13.6412 114.491 22.9114 107.071 33.53 103.024L38.9235 101L33.53 98.9764C22.9114 94.9292 13.4726 87.3406 5.71938 76.8853C7.74197 69.2968 10.6073 62.0456 14.3154 55.3002L93.5334 101L14.3154 146.7C10.6073 139.954 7.74197 132.872 5.71938 125.115ZM67.5769 157.83L68.4196 152.096L64.0373 155.637C55.1042 162.72 43.98 167.105 31.0017 168.791C25.4396 163.226 20.7202 157.155 16.6751 150.578L95.8931 104.71V196.278C88.1399 196.11 80.5552 195.098 72.9705 192.906C67.5769 180.933 65.8914 169.128 67.5769 157.83ZM164.998 168.791C151.851 167.273 140.896 162.889 131.963 155.637L127.58 152.096L128.423 157.83C130.109 169.128 128.423 180.933 123.198 193.074C115.613 195.098 107.86 196.278 100.275 196.447V104.879L179.493 150.747C175.28 157.324 170.56 163.226 164.998 168.791ZM181.516 146.7L102.298 101L181.516 55.3002C185.224 62.0456 188.09 69.1282 190.112 76.8853C182.19 87.5093 172.92 94.9292 162.301 98.9764L156.908 101L162.301 103.024C172.92 107.071 182.359 114.659 190.112 125.115C188.258 132.703 185.224 139.954 181.516 146.7Z" stroke="#A6B720" stroke-miterlimit="10"/>
</svg>
