<svg width="168" height="295" viewBox="0 0 168 295" fill="none" xmlns="http://www.w3.org/2000/svg">
<g opacity="0.7">
<path opacity="0.7" d="M164.219 141.712C147.787 115.439 117.956 99.2712 83.8276 97.7555C99.2486 67.1878 100.007 33.0834 85.3444 5.79988L82.8164 1L77.2547 1.25263C46.4126 2.26313 17.3401 19.9469 -0.861767 48.9988C-19.3165 20.1995 -48.3889 2.76838 -79.231 1.75788L-84.7927 1.50525L-87.3207 6.30513C-101.731 33.8413 -100.719 67.9457 -85.0455 98.2607C-119.174 100.282 -148.752 116.955 -164.932 143.481L-167.712 148.281L-164.679 153.08C-148.499 179.101 -118.668 195.269 -84.5399 196.785C-99.9609 227.352 -100.719 261.457 -86.0567 288.74L-83.5287 293.54L-77.967 293.287C-47.1249 292.024 -18.3053 274.341 0.149434 245.289C18.6041 274.088 47.6766 291.772 78.5187 292.53L84.0804 292.782L86.6084 287.982C101.018 260.446 100.007 226.342 84.3332 196.027C118.462 194.258 148.04 177.838 164.219 151.312L167 146.512L164.219 141.712ZM76.4963 99.0186L74.221 103.313H79.0243C112.647 103.313 142.225 118.471 158.405 143.481L4.44711 144.239L80.7939 9.84189C94.6981 36.3675 92.9285 69.7141 76.4963 99.0186ZM-3.38981 56.0723L-0.861767 60.367L1.66627 56.0723C18.6041 26.7678 46.1598 8.57876 75.9906 6.81038L-0.356167 141.46L-77.967 7.56826C-48.1361 9.08401 -20.3277 27.0204 -3.38981 56.0723ZM-80.2422 104.324H-75.4389L-77.967 100.029C-94.652 70.7246 -96.6745 37.6307 -83.0231 10.8524L-5.41225 144.744L-159.117 145.249C-143.19 119.987 -113.865 104.576 -80.2422 104.324ZM-77.2086 195.521L-74.9333 191.227H-79.7366C-113.36 191.227 -142.938 176.069 -159.117 151.059L-5.15945 150.302L-81.5062 284.951C-95.4105 258.173 -93.6408 224.826 -77.2086 195.521ZM2.67747 238.468L0.149434 234.173L-2.37861 238.468C-19.3165 267.772 -46.8721 285.961 -76.703 287.73L-0.356167 153.08L77.2547 286.972C47.4238 285.456 19.6153 267.52 2.67747 238.468ZM79.5299 190.216H74.7266L77.2547 194.511C93.9397 223.816 95.9621 256.909 82.3107 283.688L4.69991 149.796L158.658 149.038C142.478 174.554 113.153 189.964 79.5299 190.216Z" stroke="#9EB01C" stroke-miterlimit="10"/>
</g>
</svg>
