<svg width="168" height="335" viewBox="0 0 168 335" fill="none" xmlns="http://www.w3.org/2000/svg">
<path opacity="0.7" d="M132.834 198.411C122.82 185.692 112.806 175.043 103.086 166.465C112.511 157.886 122.526 147.238 132.245 134.518C132.54 134.223 162.287 92.8106 162.287 92.8106C143.732 99.0224 115.457 93.6979 114.868 93.6979C98.963 91.9231 84.5309 91.6273 71.866 92.5147C72.7496 79.7954 72.1605 65.3012 70.0988 49.6238C70.0988 49.328 64.5026 20.9312 70.3933 2C70.3933 2 29.7478 32.7632 29.4533 33.059C17.0829 43.1162 6.77424 52.8776 -1.47267 62.6389C-10.0141 53.1734 -20.3227 43.1162 -32.9877 33.3548C-33.2822 33.059 -74.2222 2.88745 -74.2222 2.88745C-68.037 21.5228 -73.3386 50.2154 -73.3386 50.807C-75.1058 66.7801 -75.4003 81.2744 -74.5167 93.9937C-86.8871 93.4021 -101.025 93.9938 -116.635 95.7686C-116.929 95.7686 -167 103.755 -167 103.755C-149.623 112.629 -133.423 136.589 -132.834 137.181C-123.115 149.308 -113.395 159.957 -103.97 168.239C-113.395 176.818 -122.82 187.171 -132.54 199.89C-132.834 200.186 -148.739 224.441 -165.822 233.315C-165.822 233.315 -115.751 240.71 -115.162 240.71C-99.8466 242.485 -85.709 242.781 -73.0441 241.894C-73.9277 254.613 -73.3386 269.107 -71.2769 285.376C-71.2769 285.672 -65.6808 314.069 -71.5714 333C-71.5714 333 -30.9259 302.237 -30.6314 301.941C-18.261 291.884 -7.95237 282.122 0.294544 272.361C8.54146 281.827 19.1446 291.588 31.8095 301.645C32.1041 301.941 73.0441 332.113 73.0441 332.113C66.8589 313.477 72.1605 284.785 72.1605 284.193C73.9277 268.516 74.2222 254.021 73.3386 241.302C86.0035 242.189 100.436 241.598 116.635 239.527C116.929 239.527 167 231.541 167 231.541C166.411 231.541 132.834 198.707 132.834 198.411ZM125.176 129.49C114.573 143.392 103.97 154.633 93.3669 163.211L89.2434 166.761L93.3669 170.31C103.675 178.888 114.573 190.129 125.471 203.735C126.355 204.919 131.067 212.018 138.136 219.709L11.1922 167.352L137.547 113.221C130.183 121.799 125.471 129.194 125.176 129.49ZM113.69 102.572C114.279 102.572 123.704 104.347 135.19 104.938L7.06878 159.661L58.9065 30.3968C59.4956 41.933 61.2628 50.807 61.2628 51.1028C63.3245 68.2592 63.6191 83.9366 62.4409 97.2476L61.8518 102.572L67.1534 101.98C80.9965 100.501 96.6067 100.797 113.69 102.572ZM-5.00705 72.4004L-1.47267 76.5416L1.76721 72.4004C10.3087 61.7516 21.2064 51.1028 34.4603 40.1582C35.0494 39.8624 42.4127 34.538 50.9541 26.8473L-0.883591 156.112L-54.4885 27.7346C-46.2416 35.4254 -38.5838 40.454 -38.2892 40.7498C-24.7407 51.3986 -13.5485 62.0474 -5.00705 72.4004ZM-115.457 104.938C-98.6684 102.868 -83.3527 102.276 -70.3933 103.459L-65.0917 104.051L-65.3862 98.7266C-66.8589 85.1198 -66.5644 69.4424 -64.7972 52.5818C-64.7972 51.9902 -63.03 42.8204 -62.4409 31.2842L-8.83597 159.366L-135.19 107.601C-124.293 106.713 -115.751 104.938 -115.457 104.938ZM-125.765 205.214C-115.162 191.608 -104.854 180.367 -94.545 171.789L-90.4215 168.239L-94.545 164.986C-104.854 156.407 -115.457 145.463 -126.06 132.152C-126.354 131.56 -131.656 123.574 -139.608 114.996L-11.7813 167.648L-139.019 222.075C-131.067 213.497 -126.06 205.51 -125.765 205.214ZM-113.984 232.132C-114.573 232.132 -123.409 230.357 -134.601 229.766L-8.83597 175.93L-60.3792 304.603C-60.9682 293.067 -62.7354 284.193 -62.7354 283.897C-64.7972 266.445 -65.3862 251.063 -63.9136 237.457L-63.3245 232.132L-68.6261 232.724C-82.1746 234.203 -97.4903 233.907 -113.984 232.132ZM3.23987 262.6L-0.294534 258.458L-3.53439 262.6C-11.7813 273.248 -22.9735 283.897 -36.2275 294.546C-36.8166 294.842 -44.1799 300.166 -52.7213 307.857L-0.589062 179.184L53.0159 307.561C44.769 299.87 37.1111 294.842 36.8166 294.546C22.9735 283.897 11.7813 272.953 3.23987 262.6ZM114.868 230.949C97.4903 233.02 81.8801 233.611 68.6261 232.132L63.3245 231.541L63.9136 236.865C65.3863 250.176 65.0917 265.853 63.3245 282.714C63.3245 283.306 61.5573 292.475 60.9683 304.012L7.36331 175.339L136.074 228.287C124.587 228.878 115.457 230.653 114.868 230.949Z" stroke="#9EB01C" stroke-miterlimit="10"/>
</svg>
