<svg width="266" height="274" viewBox="0 0 266 274" fill="none" xmlns="http://www.w3.org/2000/svg">
<path d="M264.083 167.445C253.99 153.69 242.293 143.373 229.219 136.953C242.522 130.534 254.22 120.217 264.083 106.461L265 105.315L264.541 103.939C261.33 91.3298 256.743 79.8667 250.55 68.862C244.357 58.0866 236.559 47.999 227.384 39.287L226.467 38.37L225.09 38.5992C208.117 40.4333 193.438 45.4771 181.281 53.7306C182.199 39.0577 179.217 23.6971 172.336 8.10718L171.648 6.73159L170.272 6.27307C157.886 2.60485 145.73 1 132.885 1C120.5 1 107.884 2.83412 95.7281 6.27307L94.3519 6.73159L93.6638 8.10718C86.7828 23.6971 83.801 39.0577 84.7185 53.7306C72.5621 45.4771 57.6533 40.4333 40.9096 38.5992L39.5335 38.37L38.616 39.287C29.212 48.2283 21.6429 58.0866 15.45 68.862C9.25717 79.6374 4.44048 91.3298 1.45872 103.71L1 105.086L1.91745 106.232C12.0095 119.988 23.7072 130.305 36.7811 136.724C23.4779 143.143 11.7802 153.46 1.91745 167.216L1 168.592L1.45872 169.967C4.66985 182.577 9.25717 194.04 15.45 205.045C21.6429 215.82 29.4413 225.908 38.616 234.62L39.5335 235.537L40.9096 235.307C57.8827 233.473 72.5621 228.429 84.7185 220.176C83.801 234.849 86.7828 250.209 93.6638 265.799L94.3519 267.175L95.7281 267.633C108.114 271.302 120.27 272.907 133.115 272.907C145.5 272.907 158.116 271.072 170.272 267.633L171.648 267.175L172.336 265.799C179.217 250.209 182.199 234.849 181.281 220.176C193.438 228.429 208.347 233.473 225.09 235.307L226.467 235.537L227.384 234.62C236.788 225.678 244.357 215.82 250.55 205.045C256.743 194.269 261.559 182.577 264.541 170.196L265 168.821L264.083 167.445ZM174.401 59.6915L173.254 67.4864L179.217 62.6719C191.374 53.0428 206.512 47.082 224.173 44.7893C231.742 52.355 238.164 60.6085 243.669 69.5498L135.867 131.909V7.41939C146.418 7.64865 156.739 9.02423 167.061 12.0047C174.4 28.2824 176.694 44.3308 174.401 59.6915ZM41.8271 44.5601C59.7176 46.6234 74.6264 52.5843 86.7828 62.4426L92.7463 67.2572L91.5995 59.4622C89.3058 44.1015 91.5995 28.0531 98.7098 11.5461C109.031 8.79497 119.582 7.19013 129.904 6.96087V131.451L22.1016 69.0913C27.6064 60.3793 34.0287 52.1258 41.8271 44.5601ZM7.42225 169.738C18.2024 155.294 30.8176 145.207 45.2676 139.704L52.6073 136.953L45.2676 134.202C30.8176 128.7 17.9731 118.383 7.42225 104.169C10.1746 93.8517 14.0738 83.9934 19.1199 74.8229L126.922 136.953L19.1199 199.084C14.0738 189.913 10.1746 180.284 7.42225 169.738ZM91.5995 214.215L92.7463 206.42L86.7828 211.235C74.6264 220.864 59.4883 226.825 41.8271 229.117C34.258 221.552 27.8358 213.298 22.331 204.357L130.133 141.997V266.487C119.582 266.258 109.261 264.882 98.9392 261.902C91.5995 245.624 89.3058 229.576 91.5995 214.215ZM224.173 229.117C206.282 227.054 191.374 221.093 179.217 211.235L173.254 206.42L174.401 214.215C176.694 229.576 174.401 245.624 167.29 262.131C156.969 264.882 146.418 266.487 136.096 266.716V142.226L243.898 204.586C238.164 213.527 231.742 221.552 224.173 229.117ZM246.651 199.084L138.849 136.953L246.651 74.8229C251.697 83.9934 255.596 93.6225 258.348 104.169C247.568 118.612 234.953 128.7 220.503 134.202L213.163 136.953L220.503 139.704C234.953 145.207 247.798 155.524 258.348 169.738C255.825 180.055 251.697 189.913 246.651 199.084Z" stroke="#A6B720" stroke-miterlimit="10"/>
</svg>
