<svg width="266" height="298" viewBox="0 0 266 298" fill="none" xmlns="http://www.w3.org/2000/svg">
<path d="M246.494 196.168C245.089 192.18 244.386 187.958 243.683 183.502C242.746 177.638 241.809 171.54 239.232 165.676C236.187 159.344 232.205 153.714 227.051 149.023C232.205 144.333 236.187 138.703 239.232 132.371C242.043 126.507 242.98 120.409 243.683 114.545C244.386 110.088 245.089 105.867 246.26 101.879C249.305 92.7319 257.27 82.8808 265 78.4244L261.018 71.6225C253.287 76.0789 240.638 77.9553 231.034 76.0789C226.817 75.1407 222.835 73.7334 218.618 72.0916C212.996 69.9806 207.14 67.6351 200.815 67.166C193.788 66.4624 186.76 67.1661 179.967 69.0425C178.327 62.2406 175.516 55.9078 171.3 50.2786C167.552 45.1185 162.633 41.1312 157.948 37.613C154.434 34.7984 150.92 32.2184 148.109 28.9347C141.55 21.6637 136.865 9.93628 136.865 1.02344H129.135C129.135 9.93628 124.45 21.6637 117.891 28.9347C115.08 32.2184 111.8 34.7984 108.052 37.613C103.367 41.3658 98.4481 45.1185 94.7001 50.2786C90.7178 55.9078 87.6726 62.2406 86.0329 69.0425C79.2396 67.1661 72.4463 66.4624 65.1845 67.166C58.6255 67.8697 53.0036 69.9806 47.3816 72.0916C43.1651 73.7334 39.1828 75.3753 34.9663 76.0789C25.362 77.9553 12.7125 76.0789 4.98228 71.6225L1 78.4244C8.73026 82.8808 16.6948 92.7319 19.74 101.879C21.1455 105.867 21.8483 110.088 22.551 114.545C23.488 120.409 24.425 126.507 27.0018 132.371C30.047 138.703 34.0293 144.333 39.1828 149.023C34.0293 153.714 30.047 159.344 27.0018 165.676C24.1908 171.54 23.2538 177.638 22.551 183.502C21.8483 187.958 21.1455 192.18 19.74 196.168C16.6948 205.315 8.73026 215.166 1 219.622L4.98228 226.424C12.7125 221.968 25.362 220.092 34.9663 221.968C39.1828 222.906 43.1651 224.313 47.3816 225.955C53.0036 228.066 58.8598 230.412 65.1845 230.881C72.212 231.584 79.2396 230.881 86.0329 229.004C87.6726 235.806 90.4836 242.139 94.7001 247.768C98.4481 252.928 103.367 256.916 108.052 260.434C111.566 263.249 115.08 265.829 117.891 269.112C124.45 276.383 129.135 288.111 129.135 297.023H136.865C136.865 288.111 141.55 276.383 148.109 269.112C150.92 265.829 154.2 263.249 157.948 260.434C162.633 256.681 167.552 252.928 171.3 247.768C175.282 242.139 178.327 235.806 179.967 229.004C186.76 230.881 193.554 231.584 200.815 230.881C207.374 230.177 212.996 228.066 218.618 225.955C222.835 224.313 226.817 222.672 231.034 221.968C240.638 220.092 253.287 221.968 261.018 226.424L265 219.622C257.504 215.166 249.539 205.315 246.494 196.168ZM231.971 168.96C234.313 173.886 235.016 179.046 235.953 184.675C236.656 189.366 237.358 194.057 238.998 198.748C239.935 201.797 241.575 204.611 243.215 207.661L146.938 152.542H219.321C224.709 156.998 229.16 162.393 231.971 168.96ZM238.998 99.0646C237.358 103.756 236.656 108.447 235.953 113.138C235.016 118.767 234.313 123.927 231.971 128.852C228.925 135.185 224.709 140.814 219.087 145.271H146.704L242.98 90.1518C241.575 93.2009 239.935 96.2501 238.998 99.0646ZM142.721 33.6256C146.001 37.3784 149.749 40.4276 153.497 43.2421C157.948 46.7604 162.164 50.044 165.209 54.5004C169.426 60.3641 172.237 67.1661 173.408 74.4371L174.111 79.128L178.562 77.4862C185.589 74.9062 192.617 73.7334 200.113 74.4371C205.5 74.9061 210.42 76.7825 215.807 78.8935C220.258 80.5353 224.709 82.4117 229.628 83.3499C232.673 84.0536 236.187 84.2881 239.467 84.2881L136.865 142.925V25.651C138.739 28.4656 140.613 31.2802 142.721 33.6256ZM37.543 83.3499C42.4623 82.4117 46.913 80.5353 51.3638 78.8935C56.7515 76.7825 61.6708 74.9061 67.0586 74.4371C74.5546 73.7334 81.8163 74.6716 88.6096 77.4862L93.0604 79.128L93.7631 74.4371C94.9343 67.1661 97.7453 60.3641 101.962 54.5004C105.007 50.044 109.224 46.7604 113.674 43.2421C117.422 40.4276 121.17 37.3784 124.45 33.6256C126.558 31.2802 128.432 28.4656 130.072 25.4165V142.691L27.4703 84.0535C30.9841 84.2881 34.2635 84.0536 37.543 83.3499ZM35.2005 128.852C32.858 123.927 32.1553 118.767 31.2183 113.138C30.5155 108.447 29.8128 103.756 28.173 99.0646C27.236 96.0155 25.5963 93.2009 23.9566 90.1518L120.233 145.271H47.85C42.4623 140.814 38.2458 135.185 35.2005 128.852ZM28.173 198.513C29.8128 193.822 30.5155 189.131 31.2183 184.44C32.1553 178.811 32.858 173.651 35.2005 168.726C38.2458 162.393 42.4623 156.764 48.0843 152.307H120.468L24.1908 207.426C25.8305 204.611 27.236 201.562 28.173 198.513ZM124.45 264.187C121.17 260.434 117.422 257.385 113.674 254.57C109.224 251.052 105.007 247.768 101.962 243.312C97.7453 237.448 94.9343 230.646 93.7631 223.375L93.0604 218.684L88.6096 220.326C81.5821 222.906 74.3203 224.079 67.0586 223.375C61.6708 222.906 56.7515 221.03 51.3638 218.919C46.913 217.277 42.4623 215.401 37.543 214.462C34.4978 213.759 30.984 213.524 27.7045 213.524L130.306 154.887V272.161C128.432 269.347 126.558 266.532 124.45 264.187ZM229.862 214.462C224.943 215.401 220.492 217.277 216.042 218.919C210.654 221.03 205.735 222.906 200.347 223.375C192.851 224.079 185.589 223.141 178.796 220.326L174.345 218.684L173.642 223.375C172.471 230.646 169.66 237.448 165.444 243.312C162.398 247.534 158.182 251.052 153.731 254.57C149.983 257.385 146.235 260.434 142.956 264.187C140.847 266.532 138.973 269.347 137.334 272.396V155.122L239.935 213.759C236.187 213.524 232.908 213.759 229.862 214.462Z" stroke="#9EB01C" stroke-miterlimit="10"/>
</svg>
