<svg width="264" height="198" viewBox="0 0 264 198" fill="none" xmlns="http://www.w3.org/2000/svg">
<g clip-path="url(#clip0_1518_29360)">
<path d="M245.494 196.168C244.089 192.18 243.386 187.958 242.683 183.502C241.746 177.638 240.809 171.54 238.232 165.676C235.187 159.344 231.205 153.714 226.051 149.023C231.205 144.333 235.187 138.703 238.232 132.371C241.043 126.507 241.98 120.409 242.683 114.545C243.386 110.088 244.089 105.867 245.26 101.879C248.305 92.7319 256.27 82.8808 264 78.4244L260.018 71.6225C252.287 76.0789 239.638 77.9553 230.034 76.0789C225.817 75.1407 221.835 73.7334 217.618 72.0916C211.996 69.9806 206.14 67.6351 199.815 67.166C192.788 66.4624 185.76 67.1661 178.967 69.0425C177.327 62.2406 174.516 55.9078 170.3 50.2786C166.552 45.1185 161.633 41.1312 156.948 37.613C153.434 34.7984 149.92 32.2184 147.109 28.9347C140.55 21.6637 135.865 9.93628 135.865 1.02344H128.135C128.135 9.93628 123.45 21.6637 116.891 28.9347C114.08 32.2184 110.8 34.7984 107.052 37.613C102.367 41.3658 97.4481 45.1185 93.7001 50.2786C89.7178 55.9078 86.6726 62.2406 85.0329 69.0425C78.2396 67.1661 71.4463 66.4624 64.1845 67.166C57.6255 67.8697 52.0036 69.9806 46.3816 72.0916C42.1651 73.7334 38.1828 75.3753 33.9663 76.0789C24.362 77.9553 11.7125 76.0789 3.98228 71.6225L0 78.4244C7.73026 82.8808 15.6948 92.7319 18.74 101.879C20.1455 105.867 20.8483 110.088 21.551 114.545C22.488 120.409 23.425 126.507 26.0018 132.371C29.047 138.703 33.0293 144.333 38.1828 149.023C33.0293 153.714 29.047 159.344 26.0018 165.676C23.1908 171.54 22.2538 177.638 21.551 183.502C20.8483 187.958 20.1455 192.18 18.74 196.168C15.6948 205.315 7.73026 215.166 0 219.622L3.98228 226.424C11.7125 221.968 24.362 220.092 33.9663 221.968C38.1828 222.906 42.1651 224.313 46.3816 225.955C52.0036 228.066 57.8598 230.412 64.1845 230.881C71.212 231.584 78.2396 230.881 85.0329 229.004C86.6726 235.806 89.4836 242.139 93.7001 247.768C97.4481 252.928 102.367 256.916 107.052 260.434C110.566 263.249 114.08 265.829 116.891 269.112C123.45 276.383 128.135 288.111 128.135 297.023H135.865C135.865 288.111 140.55 276.383 147.109 269.112C149.92 265.829 153.2 263.249 156.948 260.434C161.633 256.681 166.552 252.928 170.3 247.768C174.282 242.139 177.327 235.806 178.967 229.004C185.76 230.881 192.554 231.584 199.815 230.881C206.374 230.177 211.996 228.066 217.618 225.955C221.835 224.313 225.817 222.672 230.034 221.968C239.638 220.092 252.287 221.968 260.018 226.424L264 219.622C256.504 215.166 248.539 205.315 245.494 196.168ZM230.971 168.96C233.313 173.886 234.016 179.046 234.953 184.675C235.656 189.366 236.358 194.057 237.998 198.748C238.935 201.797 240.575 204.611 242.215 207.661L145.938 152.542H218.321C223.709 156.998 228.16 162.393 230.971 168.96ZM237.998 99.0646C236.358 103.756 235.656 108.447 234.953 113.138C234.016 118.767 233.313 123.927 230.971 128.852C227.925 135.185 223.709 140.814 218.087 145.271H145.704L241.98 90.1518C240.575 93.2009 238.935 96.2501 237.998 99.0646ZM141.721 33.6256C145.001 37.3784 148.749 40.4276 152.497 43.2421C156.948 46.7604 161.164 50.044 164.209 54.5004C168.426 60.3641 171.237 67.1661 172.408 74.4371L173.111 79.128L177.562 77.4862C184.589 74.9062 191.617 73.7334 199.113 74.4371C204.5 74.9061 209.42 76.7825 214.807 78.8935C219.258 80.5353 223.709 82.4117 228.628 83.3499C231.673 84.0536 235.187 84.2881 238.467 84.2881L135.865 142.925V25.651C137.739 28.4656 139.613 31.2802 141.721 33.6256ZM36.543 83.3499C41.4623 82.4117 45.913 80.5353 50.3638 78.8935C55.7515 76.7825 60.6708 74.9061 66.0586 74.4371C73.5546 73.7334 80.8163 74.6716 87.6096 77.4862L92.0604 79.128L92.7631 74.4371C93.9343 67.1661 96.7453 60.3641 100.962 54.5004C104.007 50.044 108.224 46.7604 112.674 43.2421C116.422 40.4276 120.17 37.3784 123.45 33.6256C125.558 31.2802 127.432 28.4656 129.072 25.4165V142.691L26.4703 84.0535C29.9841 84.2881 33.2635 84.0536 36.543 83.3499ZM34.2005 128.852C31.858 123.927 31.1553 118.767 30.2183 113.138C29.5155 108.447 28.8128 103.756 27.173 99.0646C26.236 96.0155 24.5963 93.2009 22.9566 90.1518L119.233 145.271H46.85C41.4623 140.814 37.2458 135.185 34.2005 128.852ZM27.173 198.513C28.8128 193.822 29.5155 189.131 30.2183 184.44C31.1553 178.811 31.858 173.651 34.2005 168.726C37.2458 162.393 41.4623 156.764 47.0843 152.307H119.468L23.1908 207.426C24.8305 204.611 26.236 201.562 27.173 198.513ZM123.45 264.187C120.17 260.434 116.422 257.385 112.674 254.57C108.224 251.052 104.007 247.768 100.962 243.312C96.7453 237.448 93.9343 230.646 92.7631 223.375L92.0604 218.684L87.6096 220.326C80.5821 222.906 73.3203 224.079 66.0586 223.375C60.6708 222.906 55.7515 221.03 50.3638 218.919C45.913 217.277 41.4623 215.401 36.543 214.462C33.4978 213.759 29.984 213.524 26.7045 213.524L129.306 154.887V272.161C127.432 269.347 125.558 266.532 123.45 264.187ZM228.862 214.462C223.943 215.401 219.492 217.277 215.042 218.919C209.654 221.03 204.735 222.906 199.347 223.375C191.851 224.079 184.589 223.141 177.796 220.326L173.345 218.684L172.642 223.375C171.471 230.646 168.66 237.448 164.444 243.312C161.398 247.534 157.182 251.052 152.731 254.57C148.983 257.385 145.235 260.434 141.956 264.187C139.847 266.532 137.973 269.347 136.334 272.396V155.122L238.935 213.759C235.187 213.524 231.908 213.759 228.862 214.462Z" stroke="#9EB01C" stroke-miterlimit="10"/>
</g>
<defs>
<clipPath id="clip0_1518_29360">
<rect width="264" height="197" fill="white" transform="translate(0 0.0234375)"/>
</clipPath>
</defs>
</svg>
