<svg width="36" height="36" viewBox="0 0 36 36" fill="none" xmlns="http://www.w3.org/2000/svg">
<rect width="36" height="36" rx="18" fill="#2799C1"/>
<path fill-rule="evenodd" clip-rule="evenodd" d="M14.5653 15.9358L15.8337 14.4712C16.0222 14.2539 16.0344 13.9443 15.8643 13.7121L14.0582 11.2504C13.9038 11.0393 13.6465 10.952 13.3954 11.0258C11.5951 11.5536 10.4517 13.1276 11.2684 15.3635C12.7609 19.451 16.5482 23.2388 20.6366 24.7318C22.8729 25.548 24.4464 24.4051 24.9742 22.6048C25.048 22.3537 24.9607 22.0963 24.7496 21.942L22.2879 20.1358C22.0557 19.9657 21.7462 19.9779 21.5288 20.1664L20.0642 21.4349C17.9571 20.5696 15.431 18.0435 14.5657 15.9363L14.5653 15.9358Z" stroke="white"/>
</svg>
