<svg width="208" height="208" viewBox="0 0 208 208" fill="none" xmlns="http://www.w3.org/2000/svg">
<g filter="url(#filter0_d)">
<path d="M104 204C159.228 204 204 159.228 204 104C204 48.7715 159.228 4 104 4C48.7715 4 4 48.7715 4 104C4 159.228 48.7715 204 104 204Z" fill="white"/>
</g>
<path d="M45.543 134.875H42.9355V143.191H45.2964C46.7763 143.191 47.9039 142.839 48.6791 142.099C49.4543 141.359 49.8419 140.337 49.8419 138.963C49.8419 137.694 49.4543 136.673 48.7143 135.968C47.9391 135.228 46.882 134.875 45.543 134.875ZM45.4373 141.711H44.6974V136.32H45.6488C47.2344 136.32 48.0096 137.201 48.0096 138.998C48.0096 140.795 47.1639 141.711 45.4373 141.711Z" fill="#405174"/>
<path d="M55.0205 143.156H59.8126V141.711H56.7823V139.562H59.6012V138.117H56.7823V136.32H59.8126V134.875H55.0205V143.156Z" fill="#405174"/>
<path d="M68.198 139.809C67.9514 140.69 67.8104 141.289 67.7752 141.641C67.7399 141.5 67.7047 141.218 67.599 140.831C67.4933 140.443 67.4228 140.091 67.3171 139.809L65.7667 134.875H64.0049L66.8238 143.191H68.7266L71.5455 134.875H69.7837L68.198 139.809Z" fill="#405174"/>
<path d="M76.0508 143.156H80.8429V141.711H77.8126V139.562H80.6315V138.117H77.8126V136.32H80.8429V134.875H76.0508V143.156Z" fill="#405174"/>
<path d="M87.8175 134.875H86.0557V143.156H91.2002V141.711H87.8175V134.875Z" fill="#405174"/>
<path d="M99.7353 134.734C98.4667 134.734 97.4801 135.086 96.8106 135.826C96.1411 136.566 95.7888 137.623 95.7888 138.997C95.7888 140.372 96.1411 141.429 96.8106 142.169C97.4801 142.909 98.4667 143.261 99.7353 143.261C101.004 143.261 101.99 142.873 102.66 142.169C103.329 141.429 103.682 140.372 103.682 138.997C103.682 137.623 103.329 136.566 102.66 135.826C101.955 135.086 101.004 134.734 99.7353 134.734ZM99.7 141.816C98.9953 141.816 98.4667 141.57 98.1144 141.112C97.762 140.654 97.5858 139.949 97.5858 139.033C97.5858 138.117 97.762 137.412 98.1144 136.919C98.4667 136.46 98.9953 136.214 99.7 136.214C101.109 136.214 101.779 137.165 101.779 139.033C101.814 140.865 101.109 141.816 99.7 141.816Z" fill="#405174"/>
<path d="M111.506 134.875H108.863V143.191H110.625V140.232H111.365C112.387 140.232 113.197 139.985 113.761 139.527C114.325 139.069 114.607 138.364 114.607 137.483C114.607 136.637 114.36 135.968 113.832 135.545C113.303 135.087 112.528 134.875 111.506 134.875ZM112.422 138.434C112.14 138.646 111.753 138.752 111.224 138.752H110.625V136.285H111.436C111.929 136.285 112.281 136.391 112.493 136.567C112.704 136.778 112.845 137.06 112.845 137.483C112.81 137.941 112.704 138.223 112.422 138.434Z" fill="#405174"/>
<path d="M124.044 141.218L122.036 134.875H119.64V143.191H121.225V139.315C121.225 138.857 121.19 137.976 121.12 136.673H121.155L123.163 143.191H124.784L126.934 136.708H126.969C126.934 137.765 126.898 138.399 126.898 138.646C126.898 138.893 126.898 139.104 126.898 139.28V143.191H128.555V134.875H126.123L124.044 141.218Z" fill="#405174"/>
<path d="M134.093 143.156H138.885V141.711H135.855V139.562H138.674V138.117H135.855V136.32H138.885V134.875H134.093V143.156Z" fill="#405174"/>
<path d="M149.876 138.787C149.876 139.245 149.912 139.985 149.947 141.077H149.912L146.318 134.875H144.098V143.191H145.683V139.28C145.683 138.822 145.648 138.012 145.578 136.919H145.613L149.207 143.191H151.427V134.875H149.841V138.787H149.876Z" fill="#405174"/>
<path d="M156.223 136.32H158.478V143.156H160.24V136.32H162.495V134.875H156.223V136.32Z" fill="#405174"/>
<path d="M189.41 117.293L177.006 89.6671L185.287 71.3794L184.829 71.168L176.725 89.0329L172.214 78.9552H171.968H167.035H166.788L149.592 117.257H154.772L159.776 106.158H169.008L160.163 125.714L160.622 125.925L174.434 95.3754L184.265 117.222H189.41V117.293ZM171.122 101.436H161.89L169.501 84.4874L174.117 94.8117L171.122 101.436Z" fill="#405174"/>
<path d="M124.468 96.7497L135.955 71.3794L135.497 71.168L131.41 80.1533C130.987 79.9419 130.529 79.7304 130.071 79.5543C127.569 78.5676 124.891 78.0391 122.072 78.0391C116.505 78.0391 111.783 79.9771 107.907 83.8179C104.031 87.6939 102.128 92.4156 102.128 98.0887C102.128 103.727 104.066 108.483 107.907 112.359C109.951 114.403 112.241 115.883 114.778 116.87L110.761 125.785L111.219 125.996L115.271 117.046C117.386 117.786 119.641 118.173 122.072 118.173C127.886 118.173 132.608 116.271 136.167 112.5C139.338 109.329 140.924 105.066 140.924 99.6743C140.924 98.7582 140.818 97.7715 140.642 96.7849H124.468V96.7497ZM111.501 109.082C108.647 106.158 107.202 102.493 107.202 98.0887C107.202 93.6841 108.647 90.0195 111.501 87.0949C114.391 84.2055 117.949 82.7608 122.107 82.7608C124.257 82.7608 126.265 83.1484 128.133 83.9588C128.591 84.135 129.014 84.3817 129.401 84.5931L116.787 112.465C114.849 111.796 113.052 110.668 111.501 109.082ZM131.656 110.21C129.119 112.359 125.948 113.417 122.107 113.417C120.381 113.417 118.76 113.17 117.28 112.677L122.389 101.366H136.026C135.638 105.101 134.193 108.061 131.656 110.21Z" fill="#405174"/>
<path d="M43.1107 99.992C41.7013 98.3711 39.4814 96.9617 36.451 95.7636L46.9515 72.6133L46.4934 72.4019L42.1594 82.0214C41.5956 81.4224 40.9261 80.8234 40.1861 80.3301C38.0367 78.8149 35.4997 78.0749 32.575 78.0749C29.2628 78.0749 26.4439 79.0615 24.1535 81.07C21.8984 83.0785 20.7708 85.4746 20.7708 88.2935C20.7708 92.3457 22.8145 95.376 26.8667 97.455C27.6067 97.8426 29.5447 98.5825 32.6103 99.7101C33.0683 99.851 33.4912 100.027 33.914 100.168L28.5228 112.078C28.1352 111.831 27.7829 111.585 27.4305 111.303C26.6553 110.633 25.9858 109.858 25.422 108.907C24.8582 107.991 24.4001 106.934 24.083 105.806L19.3613 107.744C20.2775 110.951 21.9688 113.488 24.4002 115.355C25.0696 115.848 25.7391 116.271 26.4439 116.659L21.7574 126.983L22.2155 127.195L26.9019 116.87C28.699 117.716 30.6723 118.139 32.7864 118.139C36.3453 118.139 39.4109 117.152 41.9127 115.144C44.3793 113.1 45.6125 110.422 45.6125 107.039C45.5773 104.256 44.7669 101.895 43.1107 99.992ZM34.7597 95.1294C30.9189 93.8256 28.4524 92.6628 27.3248 91.7114C26.3029 90.76 25.7744 89.5972 25.7744 88.2935C25.7744 86.6726 26.4439 85.3689 27.7476 84.3822C29.0866 83.3252 30.7075 82.7614 32.6103 82.7614C34.4426 82.7614 35.993 83.2194 37.2615 84.1708C38.4243 85.0517 39.1995 86.1088 39.6576 87.3773L35.9577 95.5522C35.5701 95.4465 35.1825 95.2703 34.7597 95.1294ZM38.389 111.69C36.9444 112.853 35.1121 113.417 32.8569 113.417C31.8351 113.417 30.8484 113.241 29.897 112.853C29.5447 112.712 29.2276 112.536 28.8752 112.36L34.3016 100.38C36.3806 101.225 37.8605 102.071 38.7414 102.917C39.9395 104.044 40.5032 105.418 40.5032 107.039C40.5385 108.977 39.8337 110.528 38.389 111.69Z" fill="#405174"/>
<path d="M90.1183 71.3794L89.6602 71.168L81.5911 89.0328L77.1513 79.1314L80.675 71.3794L80.2169 71.168L76.6932 78.9905H72.1477L75.6009 71.3794L75.1428 71.168L50.4421 125.749L50.9001 125.961L54.8466 117.292H59.3921L55.5514 125.749L56.0094 125.961L64.9595 106.193H73.8743L65.03 125.749L65.488 125.961L79.336 95.4106L89.1669 117.292H94.3467L81.8377 89.6319L90.1183 71.3794ZM75.918 101.436H67.0032L74.5086 84.8749L78.9484 94.7764L75.918 101.436Z" fill="#405174"/>
<defs>
<filter id="filter0_d" x="0.517217" y="0.517217" width="206.966" height="206.966" filterUnits="userSpaceOnUse" color-interpolation-filters="sRGB">
<feFlood flood-opacity="0" result="BackgroundImageFix"/>
<feColorMatrix in="SourceAlpha" type="matrix" values="0 0 0 0 0 0 0 0 0 0 0 0 0 0 0 0 0 0 127 0"/>
<feOffset/>
<feGaussianBlur stdDeviation="1.74139"/>
<feColorMatrix type="matrix" values="0 0 0 0 0 0 0 0 0 0 0 0 0 0 0 0 0 0 0.1 0"/>
<feBlend mode="normal" in2="BackgroundImageFix" result="effect1_dropShadow"/>
<feBlend mode="normal" in="SourceGraphic" in2="effect1_dropShadow" result="shape"/>
</filter>
</defs>
</svg>
