<svg width="100" height="138" viewBox="0 0 100 138" fill="none" xmlns="http://www.w3.org/2000/svg">
<path fill-rule="evenodd" clip-rule="evenodd" d="M79.8957 13.2661L97.0975 36.4361L97.1447 65.4043L79.8957 13.2661ZM79.1878 90.8704L50.4709 100.101L96.7436 67.0511L79.1878 90.8704ZM50.4709 52.1379L96.3189 66.5176L50.4709 99.2663V52.1379ZM79.0226 12.8255L96.5548 65.8682L50.6833 51.4884L79.0226 12.8255ZM50.117 51.0942L21.636 12.3616H78.4799L50.117 51.0942ZM49.763 99.3823L3.74991 66.5176L49.763 52.1379V99.3823ZM20.9989 90.9864L3.20719 66.9815L49.4799 100.032L21.0225 90.9864H20.9989ZM21.0697 12.7791L49.5507 51.4884L3.51394 65.8682L21.0697 12.7791ZM2.94763 36.6216L20.2202 13.1733L2.99482 65.2884L2.94763 36.6216ZM49.9754 2.92197L77.5597 11.689H22.6979L49.9754 2.92197ZM99.9055 36.4593V35.5779L99.3628 34.859L81.3351 10.5525L80.7924 9.83353L79.9429 9.55521L50.8249 0.301145L49.9518 0.0228271L49.1023 0.301145L20.0315 9.64799L19.1584 9.92631L18.6157 10.6453L0.682367 34.9981L0.139648 35.7171V36.5984L0.186841 66.6568V67.5381L0.72956 68.2571L18.7573 92.5635L19.3 93.2825L20.1731 93.5608L49.2911 102.815L50.1642 103.093L51.0372 102.815L80.1081 93.4681L80.9812 93.1897L81.5239 92.4708L99.4572 68.1179L99.9999 67.3989V66.5176L99.9527 36.4593H99.9055Z" fill="url(#paint0_linear_1518_27181)"/>
<path fill-rule="evenodd" clip-rule="evenodd" d="M97.0759 66.6571L79.874 89.8271L97.1231 37.6889L97.0759 66.6571ZM50.6616 51.628L96.5331 37.2482L79.001 90.291L50.6616 51.628ZM21.6144 90.7548L50.0953 52.0223L78.4583 90.7548H21.6144ZM49.9301 100.194L22.6526 91.4274H77.5144L49.9301 100.194ZM3.49228 37.2482L49.529 51.628L21.048 90.3373L3.49228 37.2482ZM2.90237 66.4948L2.94956 37.828L20.175 89.9431L2.90237 66.4948ZM49.7178 3.7341V50.9786L3.70465 36.5988L49.7178 3.7341ZM20.9537 12.13L49.411 3.08469L3.13833 36.1349L20.9301 12.13H20.9537ZM50.4021 3.85006L96.25 36.5988L50.4021 50.9786V3.85006ZM79.119 12.2228L96.6747 36.0422L50.4021 2.99192L79.119 12.2228ZM81.3842 10.6225L80.8415 9.90348L79.9684 9.62516L50.8976 0.278318L50.0245 0L49.1514 0.278318L20.0334 9.53239L19.1603 9.81071L18.6176 10.5297L0.589912 34.8361L0.0471929 35.5551V36.4365L0 66.4948V67.3761L0.542719 68.0951L18.476 92.4479L19.0188 93.1669L19.8918 93.4452L48.9627 102.792L49.8121 103.07L50.6852 102.792L79.8033 93.538L80.6527 93.2597L81.1954 92.5407L99.2231 68.2343L99.7659 67.5153V66.6339L99.8131 36.5756V35.6943L99.2703 34.9753L81.337 10.6225H81.3842Z" fill="url(#paint1_linear_1518_27181)"/>
<path d="M69.4993 117.102C69.4993 115.85 69.0509 114.783 68.2959 114.041C67.3048 113.067 65.771 112.51 63.8597 112.51H57.1583V127.841H58.9281V125.846V119.746V114.134H63.7417C66.2666 114.134 67.7295 115.27 67.7295 117.149C67.7295 119.166 66.0542 120.349 63.7181 120.349H62.1844L63.3642 121.903L64.0485 122.808L66.3845 125.869H66.361L67.8711 127.864H70.042L65.2519 121.602C67.706 121.161 69.4757 119.677 69.4757 117.125L69.4993 117.102ZM80.684 112.394H79.0323L71.9297 127.841H73.723L79.8345 114.412L83.374 122.228H78.0884L77.3805 123.782H84.0819L85.9224 127.841H87.8101L80.7076 112.394H80.684ZM27.6155 127.841H29.3853V121.161H37.8328V119.584H29.3853V114.11H38.8239V112.51H27.6155V127.841ZM18.932 119.352C15.5106 118.633 14.7083 117.821 14.7083 116.383C14.7083 114.968 16.0061 113.855 18.0354 113.855C19.6399 113.855 21.0793 114.365 22.5423 115.525L23.557 114.203C21.976 112.951 20.3478 112.324 18.0826 112.324C15.1094 112.324 12.9621 114.11 12.9621 116.499C12.9621 119.05 14.6139 120.21 18.2006 120.976C21.4805 121.648 22.2591 122.46 22.2591 123.898C22.2591 125.452 20.867 126.542 18.7905 126.542C16.6196 126.542 15.0622 125.823 13.4341 124.385L12.3486 125.661C14.2128 127.307 16.2421 128.119 18.7197 128.119C21.8108 128.119 24.0525 126.403 24.0525 123.782C24.0525 121.393 22.4479 120.141 18.9792 119.398L18.932 119.352ZM43.9915 120.906H52.5098V119.329H43.9915V114.087H53.5009V112.51H42.2218V127.841H53.5953V126.264H43.9679V120.906H43.9915Z" fill="#4D4D4C"/>
<path d="M28.7568 136.957H29.2524V132.295H28.7568V136.957Z" fill="#1698D4"/>
<path d="M30.4865 133.639H30.982V136.955H30.4865V133.639ZM30.4629 132.363H31.0292V132.896H30.4629V132.363Z" fill="#1698D4"/>
<path d="M31.8467 133.64H32.3894L33.522 136.4L34.6783 133.64H35.221L33.7344 136.98H33.2861L31.8467 133.64Z" fill="#1698D4"/>
<path d="M36.0636 133.639H36.5592V136.955H36.0636V133.639ZM36.04 132.363H36.6064V132.896H36.04V132.363Z" fill="#1698D4"/>
<path d="M37.791 133.639H38.2865V134.218C38.4989 133.87 38.8529 133.569 39.4428 133.569C40.2686 133.569 40.7406 134.102 40.7406 134.891V136.955H40.245V135.007C40.245 134.381 39.9147 134.01 39.3012 134.01C38.7113 134.01 38.2865 134.427 38.2865 135.053V136.955H37.791V133.639Z" fill="#1698D4"/>
<path d="M44.6123 135.146V135.123C44.6123 134.451 44.0224 134.01 43.3617 134.01C42.7246 134.01 42.1819 134.451 42.1819 135.123V135.146C42.1819 135.819 42.7246 136.283 43.3617 136.283C43.9988 136.283 44.6123 135.819 44.6123 135.17V135.146ZM41.8515 137.535L42.0875 137.141C42.465 137.419 42.9134 137.558 43.3853 137.558C44.1404 137.558 44.6123 137.164 44.6123 136.376V135.981C44.3292 136.376 43.9044 136.677 43.2909 136.677C42.4886 136.677 41.71 136.074 41.71 135.123V135.1C41.71 134.126 42.4886 133.546 43.2909 133.546C43.928 133.546 44.3292 133.848 44.6123 134.219V133.616H45.1079V136.352C45.1079 136.863 44.9427 137.257 44.6831 137.535C44.3764 137.837 43.928 137.976 43.4089 137.976C42.8426 137.976 42.3235 137.814 41.8751 137.512L41.8515 137.535Z" fill="#1698D4"/>
<path d="M47.8867 136.538L48.1463 136.19C48.5002 136.468 48.925 136.607 49.3261 136.607C49.7272 136.607 50.034 136.399 50.034 136.074V136.051C50.034 135.726 49.6329 135.587 49.1845 135.471C48.6654 135.332 48.0755 135.146 48.0755 134.543V134.52C48.0755 133.94 48.5474 133.569 49.2317 133.569C49.6329 133.569 50.1048 133.708 50.4351 133.94L50.1992 134.311C49.8924 134.102 49.5385 133.986 49.2081 133.986C48.807 133.986 48.5474 134.195 48.5474 134.474V134.497C48.5474 134.821 48.9722 134.937 49.4205 135.077C49.9396 135.239 50.5059 135.424 50.5059 136.027V136.051C50.5059 136.677 49.9868 137.048 49.3025 137.048C48.8306 137.048 48.2879 136.862 47.9103 136.561L47.8867 136.538Z" fill="#1698D4"/>
<path d="M54.0292 133.64H54.5719L53.1561 137.072C52.8729 137.745 52.5426 138 52.0471 138H51.9999C51.7403 138 51.5279 137.931 51.3156 137.838L51.4807 137.443C51.6459 137.536 51.7875 137.559 51.9999 137.559C52.3066 137.559 52.4954 137.397 52.6842 136.933L51.1504 133.64H51.7167L52.9437 136.4L54.0292 133.64Z" fill="#1698D4"/>
<path d="M55.0713 136.538L55.3308 136.19C55.6848 136.468 56.1095 136.607 56.4871 136.607C56.8882 136.607 57.195 136.399 57.195 136.074V136.051C57.195 135.726 56.7938 135.587 56.3455 135.471C55.8264 135.332 55.2365 135.146 55.2365 134.543V134.52C55.2365 133.94 55.7084 133.569 56.3927 133.569C56.7938 133.569 57.2658 133.708 57.5961 133.94L57.3601 134.311C57.0534 134.102 56.6994 133.986 56.3691 133.986C55.968 133.986 55.7084 134.195 55.7084 134.474V134.497C55.7084 134.821 56.1331 134.937 56.5815 135.077C57.1006 135.239 57.6669 135.424 57.6669 136.027V136.051C57.6669 136.677 57.1478 137.048 56.4635 137.048C55.9916 137.048 55.4488 136.862 55.0713 136.561V136.538Z" fill="#1698D4"/>
<path d="M58.8176 136.073V134.078H58.3457V133.638H58.8176V132.641H59.3132V133.638H60.375V134.078H59.3132V136.027C59.3132 136.421 59.5491 136.583 59.8795 136.583C60.0446 136.583 60.1862 136.56 60.375 136.467V136.885C60.2098 136.978 60.0211 137.024 59.7615 137.024C59.2188 137.024 58.8176 136.769 58.8176 136.096V136.073Z" fill="#1698D4"/>
<path d="M63.7027 135.123C63.6555 134.52 63.3016 133.986 62.6173 133.986C62.0273 133.986 61.579 134.474 61.5318 135.123H63.7027ZM61.0127 135.308V135.285C61.0127 134.334 61.697 133.569 62.6409 133.569C63.6319 133.569 64.2218 134.358 64.2218 135.332C64.2218 135.401 64.2218 135.424 64.2218 135.494H61.5554C61.6262 136.213 62.1453 136.607 62.7352 136.607C63.2072 136.607 63.5139 136.422 63.7971 136.143L64.1038 136.422C63.7735 136.793 63.3487 137.048 62.7116 137.048C61.7914 137.048 61.0363 136.352 61.0363 135.332L61.0127 135.308Z" fill="#1698D4"/>
<path d="M65.1847 133.639H65.6803V134.195C65.8926 133.87 66.1994 133.569 66.7657 133.569C67.3084 133.569 67.6624 133.847 67.8511 134.242C68.0871 133.87 68.441 133.569 69.031 133.569C69.8096 133.569 70.2816 134.079 70.2816 134.914V136.978H69.786V135.03C69.786 134.381 69.4557 134.033 68.913 134.033C68.3939 134.033 67.9691 134.404 67.9691 135.053V136.955H67.4736V135.007C67.4736 134.381 67.1432 134.01 66.6005 134.01C66.0578 134.01 65.6567 134.45 65.6567 135.053V136.955H65.1611V133.639H65.1847Z" fill="#1698D4"/>
<defs>
<linearGradient id="paint0_linear_1518_27181" x1="0.139741" y1="51.5501" x2="99.9168" y2="51.5501" gradientUnits="userSpaceOnUse">
<stop stop-color="#DAF1FC"/>
<stop offset="1" stop-color="#B1D7F2"/>
</linearGradient>
<linearGradient id="paint1_linear_1518_27181" x1="0.141672" y1="51.5505" x2="99.9188" y2="51.5505" gradientUnits="userSpaceOnUse">
<stop stop-color="#96D1F2"/>
<stop offset="1" stop-color="#1698D4"/>
</linearGradient>
</defs>
</svg>
