<svg width="100" height="141" viewBox="0 0 100 141" fill="none" xmlns="http://www.w3.org/2000/svg">
<path fill-rule="evenodd" clip-rule="evenodd" d="M79.896 13.5529L97.098 37.2254L97.1452 66.8218L79.896 13.5529ZM79.1881 92.8402L50.4709 102.271L96.7441 68.5043L79.1881 92.8402ZM50.4709 53.2676L96.3193 67.9592L50.4709 101.418V53.2676ZM79.0229 13.1027L96.5553 67.2958L50.6833 52.6042L79.0229 13.1027ZM50.117 52.2013L21.6358 12.6288H78.4802L50.117 52.2013ZM49.763 101.537L3.74946 67.9592L49.763 53.2676V101.537ZM20.9986 92.9587L3.20673 68.4332L49.4799 102.2L21.0222 92.9587H20.9986ZM21.0694 13.0553L49.5507 52.6042L3.51349 67.2958L21.0694 13.0553ZM2.94717 37.4149L20.22 13.4582L2.99436 66.7034L2.94717 37.4149ZM49.9754 2.98448L77.56 11.9416H22.6976L49.9754 2.98448ZM99.906 37.2491V36.3486L99.3633 35.614L81.3354 10.7805L80.7927 10.0459L79.9432 9.76157L50.8249 0.306814L49.9518 0.0224609L49.1023 0.306814L20.0312 9.85635L19.1581 10.1407L18.6154 10.8753L0.681884 35.7562L0.13916 36.4908V37.3912L0.186354 68.1014V69.0019L0.729078 69.7365L18.757 94.57L19.2997 95.3046L20.1728 95.5889L49.2911 105.044L50.1642 105.328L51.0373 105.044L80.1084 95.4941L80.9815 95.2098L81.5242 94.4752L99.4577 69.5943L100 68.8597V67.9592L99.9532 37.2491H99.906Z" fill="white"/>
<path fill-rule="evenodd" clip-rule="evenodd" d="M97.0769 68.1027L79.8749 91.7751L97.124 38.5062L97.0769 68.1027ZM50.6621 52.7476L96.5341 38.056L79.0018 92.249L50.6621 52.7476ZM21.6146 92.7229L50.0958 53.1504L78.4591 92.7229H21.6146ZM49.9306 102.367L22.6528 93.4101H77.5152L49.9306 102.367ZM3.49231 38.056L49.5295 52.7476L21.0483 92.2964L3.49231 38.056ZM2.9024 67.9368L2.94959 38.6484L20.1752 91.8936L2.9024 67.9368ZM49.7183 3.81508V52.0841L3.70468 37.3925L49.7183 3.81508ZM20.9539 12.3931L49.4115 3.15158L3.13836 36.9186L20.9303 12.3931H20.9539ZM50.4026 3.93356L96.251 37.3925L50.4026 52.0841V3.93356ZM79.1198 12.4879L96.6757 36.8238L50.4026 3.0568L79.1198 12.4879ZM81.385 10.8528L80.8423 10.1182L79.9692 9.83389L50.8981 0.284353L50.025 0L49.1519 0.284353L20.0336 9.73911L19.1605 10.0235L18.6178 10.758L0.589918 35.5916L0.0471934 36.3262V37.2266L0 67.9368V68.8372L0.542724 69.5718L18.4762 94.4527L19.0189 95.1873L19.892 95.4717L48.9632 105.021L49.8126 105.306L50.6857 105.021L79.8041 95.5665L80.6535 95.2821L81.1963 94.5475L99.2242 69.714L99.7669 68.9794V68.079L99.8141 37.3688V36.4683L99.2713 35.7338L81.3379 10.8528H81.385Z" fill="white"/>
<path d="M69.5243 119.63C69.5243 118.351 69.0759 117.261 68.3208 116.503C67.3298 115.507 65.796 114.939 63.8847 114.939H57.1832V130.602H58.9529V128.564V122.332V116.597H63.7667C66.2915 116.597 67.7545 117.758 67.7545 119.678C67.7545 121.739 66.0792 122.948 63.7431 122.948H62.2093L63.3891 124.536L64.0734 125.46L66.4095 128.588H66.3859L67.8961 130.625H70.067L65.2769 124.227C67.7309 123.777 69.5007 122.261 69.5007 119.654L69.5243 119.63ZM80.7091 114.82H79.0573L71.9547 130.602H73.7481L79.8596 116.882L83.3991 124.867H78.1135L77.4056 126.455H84.107L85.9476 130.602H87.8353L80.7327 114.82H80.7091ZM27.6401 130.602H29.4099V123.777H37.8575V122.166H29.4099V116.574H38.8486V114.939H27.6401V130.602ZM18.9565 121.929C15.535 121.194 14.7327 120.365 14.7327 118.896C14.7327 117.45 16.0305 116.313 18.0599 116.313C19.6644 116.313 21.1038 116.834 22.5668 118.019L23.5815 116.668C22.0005 115.389 20.3723 114.749 18.107 114.749C15.1339 114.749 12.9866 116.574 12.9866 119.014C12.9866 121.621 14.6383 122.806 18.225 123.588C21.505 124.275 22.2837 125.104 22.2837 126.573C22.2837 128.161 20.8915 129.275 18.8149 129.275C16.6441 129.275 15.0867 128.54 13.4585 127.071L12.373 128.374C14.2372 130.057 16.2665 130.886 18.7442 130.886C21.8353 130.886 24.077 129.133 24.077 126.455C24.077 124.014 22.4724 122.735 19.0037 121.976L18.9565 121.929ZM44.0162 123.517H52.5346V121.905H44.0162V116.55H53.5257V114.939H42.2465V130.602H53.6201V128.99H43.9926V123.517H44.0162Z" fill="white"/>
<path d="M28.7354 139.922H29.2309V135.159H28.7354V139.922Z" fill="white"/>
<path d="M30.4865 136.531H30.982V139.919H30.4865V136.531ZM30.4629 135.228H31.0292V135.773H30.4629V135.228Z" fill="white"/>
<path d="M31.8457 136.545H32.3884L33.5211 139.365L34.6773 136.545H35.22L33.7334 139.957H33.2851L31.8457 136.545Z" fill="white"/>
<path d="M36.0841 136.531H36.5797V139.919H36.0841V136.531ZM36.0605 135.228H36.6269V135.773H36.0605V135.228Z" fill="white"/>
<path d="M37.8115 136.547H38.3071V137.139C38.5194 136.784 38.8734 136.476 39.4633 136.476C40.2892 136.476 40.7611 137.021 40.7611 137.826V139.935H40.2656V137.945C40.2656 137.305 39.9352 136.926 39.3217 136.926C38.7318 136.926 38.3071 137.352 38.3071 137.992V139.935H37.8115V136.547Z" fill="white"/>
<path d="M44.6309 138.066V138.042C44.6309 137.355 44.041 136.905 43.3803 136.905C42.7432 136.905 42.2004 137.355 42.2004 138.042V138.066C42.2004 138.753 42.7432 139.227 43.3803 139.227C44.0174 139.227 44.6309 138.753 44.6309 138.089V138.066ZM41.8701 140.506L42.1061 140.104C42.4836 140.388 42.9319 140.53 43.4039 140.53C44.159 140.53 44.6309 140.127 44.6309 139.322V138.919C44.3478 139.322 43.923 139.63 43.3095 139.63C42.5072 139.63 41.7285 139.014 41.7285 138.042V138.018C41.7285 137.023 42.5072 136.431 43.3095 136.431C43.9466 136.431 44.3478 136.739 44.6309 137.118V136.502H45.1264V139.298C45.1264 139.819 44.9613 140.222 44.7017 140.506C44.3949 140.814 43.9466 140.957 43.4275 140.957C42.8612 140.957 42.342 140.791 41.8937 140.483L41.8701 140.506Z" fill="white"/>
<path d="M47.9033 139.509L48.1629 139.153C48.5168 139.438 48.9416 139.58 49.3427 139.58C49.7439 139.58 50.0506 139.366 50.0506 139.035V139.011C50.0506 138.679 49.6495 138.537 49.2011 138.419C48.682 138.276 48.0921 138.087 48.0921 137.471V137.447C48.0921 136.855 48.564 136.476 49.2483 136.476C49.6495 136.476 50.1214 136.618 50.4518 136.855L50.2158 137.234C49.909 137.021 49.5551 136.902 49.2247 136.902C48.8236 136.902 48.564 137.115 48.564 137.4V137.423C48.564 137.755 48.9888 137.874 49.4371 138.016C49.9562 138.182 50.5226 138.371 50.5226 138.987V139.011C50.5226 139.651 50.0034 140.03 49.3191 140.03C48.8472 140.03 48.3045 139.84 47.9269 139.532L47.9033 139.509Z" fill="white"/>
<path d="M54.0106 136.545H54.5534L53.1376 140.052C52.8544 140.739 52.524 141 52.0285 141H51.9813C51.7218 141 51.5094 140.929 51.297 140.834L51.4622 140.431C51.6274 140.526 51.7689 140.55 51.9813 140.55C52.2881 140.55 52.4768 140.384 52.6656 139.91L51.1318 136.545H51.6982L52.9252 139.365L54.0106 136.545Z" fill="white"/>
<path d="M55.0488 139.509L55.3084 139.153C55.6623 139.438 56.0871 139.58 56.4646 139.58C56.8658 139.58 57.1725 139.366 57.1725 139.035V139.011C57.1725 138.679 56.7714 138.537 56.3231 138.419C55.8039 138.276 55.214 138.087 55.214 137.471V137.447C55.214 136.855 55.6859 136.476 56.3702 136.476C56.7714 136.476 57.2433 136.618 57.5737 136.855L57.3377 137.234C57.031 137.021 56.677 136.902 56.3466 136.902C55.9455 136.902 55.6859 137.115 55.6859 137.4V137.423C55.6859 137.755 56.1107 137.874 56.559 138.016C57.0781 138.182 57.6445 138.371 57.6445 138.987V139.011C57.6445 139.651 57.1253 140.03 56.441 140.03C55.9691 140.03 55.4264 139.84 55.0488 139.532V139.509Z" fill="white"/>
<path d="M58.8176 139.036V136.998H58.3457V136.548H58.8176V135.529H59.3132V136.548H60.375V136.998H59.3132V138.989C59.3132 139.392 59.5491 139.558 59.8795 139.558C60.0447 139.558 60.1862 139.534 60.375 139.439V139.866C60.2098 139.96 60.0211 140.008 59.7615 140.008C59.2188 140.008 58.8176 139.747 58.8176 139.06V139.036Z" fill="white"/>
<path d="M63.6842 138.063C63.637 137.447 63.283 136.902 62.5987 136.902C62.0088 136.902 61.5605 137.4 61.5133 138.063H63.6842ZM60.9941 138.253V138.229C60.9941 137.258 61.6784 136.476 62.6223 136.476C63.6134 136.476 64.2033 137.281 64.2033 138.276C64.2033 138.348 64.2033 138.371 64.2033 138.442H61.5369C61.6077 139.177 62.1268 139.58 62.7167 139.58C63.1886 139.58 63.4954 139.39 63.7785 139.106L64.0853 139.39C63.755 139.769 63.3302 140.03 62.6931 140.03C61.7728 140.03 61.0177 139.319 61.0177 138.276L60.9941 138.253Z" fill="white"/>
<path d="M65.1652 136.547H65.6607V137.115C65.8731 136.784 66.1799 136.476 66.7462 136.476C67.2889 136.476 67.6429 136.76 67.8316 137.163C68.0676 136.784 68.4215 136.476 69.0115 136.476C69.7902 136.476 70.2621 136.997 70.2621 137.85V139.959H69.7666V137.968C69.7666 137.305 69.4362 136.95 68.8935 136.95C68.3744 136.95 67.9496 137.329 67.9496 137.992V139.935H67.4541V137.945C67.4541 137.305 67.1237 136.926 66.581 136.926C66.0383 136.926 65.6371 137.376 65.6371 137.992V139.935H65.1416V136.547H65.1652Z" fill="white"/>
</svg>
