<svg width="25" height="25" viewBox="0 0 25 25" fill="none" xmlns="http://www.w3.org/2000/svg">
<path d="M-1.52588e-05 0L25 25V0H-1.52588e-05Z" fill="#A6B720"/>
<path d="M18.1915 2.74516C18.1915 2.60152 18.3467 2.45787 18.657 2.31423C18.9837 2.17058 19.3104 2.07482 19.6371 2.02693C19.9638 1.97905 20.1108 1.99501 20.0781 2.07482L18.3875 5.8096C18.3712 5.85749 18.3222 5.88143 18.2405 5.88143C18.1751 5.88143 18.1425 5.85749 18.1425 5.8096L18.1915 2.74516ZM14.6142 5.25896C14.4182 5.19512 14.3202 4.85995 14.3202 4.25344C14.3202 3.98211 14.3447 3.7427 14.3937 3.53521C14.4427 3.31177 14.4917 3.22398 14.5407 3.27186L17.6769 6.02507C17.7259 6.04103 17.7341 6.08891 17.7014 6.16872C17.6688 6.23256 17.6361 6.2565 17.6034 6.24054L14.6142 5.25896ZM18.755 6.43207C18.7224 6.43207 18.6897 6.40015 18.657 6.3363C18.6407 6.2565 18.6488 6.20862 18.6815 6.19266L21.6953 5.2829C21.8423 5.23502 22.0301 5.33877 22.2588 5.59413C22.5038 5.84951 22.6999 6.12084 22.8469 6.40813C23.0102 6.69542 23.0429 6.83906 22.9449 6.83906L18.755 6.43207ZM15.9618 9.30498C15.9128 9.38478 15.7984 9.42469 15.6188 9.42469C15.4228 9.42469 15.1859 9.38478 14.9082 9.30498C14.6305 9.20922 14.3937 9.10547 14.1976 8.99375C14.018 8.88202 13.9608 8.8102 14.0261 8.77828L17.6524 6.71936L17.7014 6.69542C17.7341 6.69542 17.7668 6.71936 17.7994 6.76724C17.8485 6.81512 17.8648 6.84704 17.8485 6.86301L15.9618 9.30498ZM18.314 6.95877C18.2977 6.92685 18.3222 6.88695 18.3875 6.83906C18.4528 6.77522 18.4937 6.75926 18.51 6.79118L20.3477 9.32892C20.4293 9.44065 20.3803 9.64813 20.2006 9.95139C20.021 10.2546 19.8086 10.526 19.5636 10.7654C19.3349 10.9888 19.2124 11.0527 19.1961 10.9569L18.314 6.95877Z" fill="white"/>
</svg>
