<svg width="103" height="30" viewBox="0 0 103 30" fill="none" xmlns="http://www.w3.org/2000/svg">
<g clip-path="url(#clip0_1518_26857)">
<path d="M18.806 29.1509C18.6115 29.0607 18.4594 28.9357 18.3481 28.7759C18.2369 28.616 18.1816 28.4357 18.1816 28.2342C18.1816 28.0327 18.2369 27.8524 18.3481 27.6926C18.4594 27.5327 18.6115 27.4077 18.806 27.3176C19.0006 27.2274 19.2189 27.1824 19.461 27.1824C19.6649 27.1824 19.8501 27.2129 20.0149 27.275C20.1797 27.3371 20.3182 27.4264 20.4304 27.542L20.0804 27.8209C19.9206 27.6619 19.7235 27.5829 19.4874 27.5829C19.3412 27.5829 19.2113 27.6109 19.0966 27.6654C18.9819 27.7206 18.8926 27.7972 18.8289 27.8967C18.7652 27.9962 18.733 28.1075 18.733 28.2334C18.733 28.3592 18.7652 28.4714 18.8289 28.5701C18.8926 28.6687 18.9819 28.7462 19.0966 28.8014C19.2113 28.8567 19.3412 28.8839 19.4874 28.8839C19.7226 28.8839 19.9206 28.8039 20.0804 28.6424L20.4304 28.9213C20.3182 29.0395 20.1789 29.1297 20.0132 29.1917C19.8467 29.2538 19.6615 29.2844 19.4576 29.2844C19.2172 29.2861 19.0006 29.241 18.806 29.1509Z" fill="#4D4D4C"/>
<path d="M24.9942 29.2504L24.5397 28.6841H24.5125H24.0376V29.2504H23.4922V27.2164H24.5125C24.7215 27.2164 24.9024 27.2462 25.0562 27.3066C25.21 27.3669 25.328 27.452 25.4113 27.5626C25.4945 27.6731 25.5362 27.804 25.5362 27.9546C25.5362 28.1059 25.4937 28.236 25.4096 28.3457C25.3255 28.4554 25.2057 28.5387 25.0511 28.5974L25.5795 29.2513H24.9942V29.2504ZM24.8565 27.6918C24.7716 27.6306 24.6467 27.5999 24.4828 27.5999H24.0385V28.3091H24.4828C24.6467 28.3091 24.7708 28.2785 24.8565 28.2164C24.9415 28.1544 24.9848 28.0676 24.9848 27.9546C24.984 27.8406 24.9415 27.753 24.8565 27.6918Z" fill="#4D4D4C"/>
<path d="M30.4869 28.8729V29.2504H28.6621V27.2164H30.4436V27.594H29.2041V28.0354H30.2983V28.4019H29.2041V28.8729H30.4869Z" fill="#4D4D4C"/>
<path d="M35.1668 28.8153H34.0726L33.8637 29.2515H33.3047L34.3555 27.2175H34.8941L35.9484 29.2515H35.3758L35.1668 28.8153ZM34.9953 28.4582L34.6215 27.6792L34.2477 28.4582H34.9953Z" fill="#4D4D4C"/>
<path d="M39.2583 27.601H38.5039V27.2175H40.558V27.601H39.8037V29.2515H39.2583V27.601Z" fill="#4D4D4C"/>
<path d="M43.5449 27.2164H44.0904V29.2504H43.5449V27.2164Z" fill="#4D4D4C"/>
<path d="M49.5953 27.2164L48.575 29.2504H48.0364L47.0195 27.2164H47.6091L48.3261 28.6689L49.0533 27.2164H49.5953Z" fill="#4D4D4C"/>
<path d="M54.31 28.8729V29.2504H52.4844V27.2164H54.2659V27.594H53.0264V28.0354H54.1206V28.4019H53.0264V28.8729H54.31Z" fill="#4D4D4C"/>
<path d="M63.2452 27.2164V29.2504H62.6998V28.4163H61.6294V29.2504H61.084V27.2164H61.6294V28.0183H62.6998V27.2164H63.2452Z" fill="#4D4D4C"/>
<path d="M66.9793 29.1494C66.7831 29.0585 66.6293 28.9335 66.5181 28.7735C66.4068 28.6137 66.3516 28.4343 66.3516 28.2345C66.3516 28.0346 66.4068 27.8552 66.5181 27.6953C66.6293 27.5355 66.7831 27.4105 66.9793 27.3195C67.1756 27.2285 67.3965 27.1826 67.6411 27.1826C67.8858 27.1826 68.1058 27.2285 68.3012 27.3195C68.4966 27.4105 68.6504 27.5363 68.7626 27.6953C68.8747 27.8552 68.9308 28.0346 68.9308 28.2345C68.9308 28.4343 68.8747 28.6137 68.7626 28.7735C68.6504 28.9335 68.4966 29.0585 68.3012 29.1494C68.1058 29.2404 67.8858 29.2863 67.6411 29.2863C67.3956 29.2855 67.1756 29.2404 66.9793 29.1494ZM68.0175 28.8016C68.1296 28.7464 68.218 28.6698 68.2817 28.5703C68.3454 28.4717 68.3777 28.3595 68.3777 28.2336C68.3777 28.1078 68.3454 27.9955 68.2817 27.8969C68.218 27.7983 68.1296 27.7208 68.0175 27.6656C67.9053 27.6103 67.7796 27.5831 67.6403 27.5831C67.501 27.5831 67.3753 27.6112 67.2631 27.6656C67.151 27.7208 67.0626 27.7974 66.9989 27.8969C66.9352 27.9964 66.9029 28.1078 66.9029 28.2336C66.9029 28.3595 66.9352 28.4717 66.9989 28.5703C67.0626 28.669 67.151 28.7464 67.2631 28.8016C67.3753 28.8569 67.501 28.8841 67.6403 28.8841C67.7796 28.885 67.9053 28.8569 68.0175 28.8016Z" fill="#4D4D4C"/>
<path d="M72.2944 29.0449C72.1072 28.8842 72.0137 28.6546 72.0137 28.3561V27.2175H72.5587V28.3391C72.5587 28.7031 72.7337 28.885 73.0837 28.885C73.2544 28.885 73.3844 28.8408 73.4751 28.7532C73.5651 28.6648 73.6101 28.527 73.6101 28.3391V27.2175H74.1487V28.3561C74.1487 28.6546 74.0551 28.8842 73.8672 29.0449C73.6794 29.2056 73.418 29.2864 73.0815 29.2864C72.7444 29.2855 72.4822 29.2056 72.2944 29.0449Z" fill="#4D4D4C"/>
<path d="M77.6166 29.221C77.4423 29.1776 77.303 29.1207 77.1973 29.051L77.3823 28.6963C77.4837 28.7601 77.603 28.812 77.7423 28.8502C77.8816 28.8894 78.0208 28.9081 78.1601 28.9081C78.3151 28.9081 78.4294 28.8885 78.5037 28.8485C78.5773 28.8086 78.6151 28.7559 78.6151 28.6904C78.6151 28.6419 78.593 28.602 78.5494 28.5696C78.5058 28.5373 78.4494 28.5118 78.3816 28.4922C78.3123 28.4727 78.2201 28.4515 78.1037 28.4285C77.9237 28.3919 77.7773 28.3545 77.6623 28.318C77.548 28.2814 77.4501 28.2218 77.368 28.141C77.2851 28.0602 77.2444 27.9515 77.2444 27.8154C77.2444 27.6972 77.2823 27.59 77.3558 27.494C77.4301 27.3979 77.5423 27.3222 77.6908 27.266C77.8401 27.21 78.0223 27.1819 78.238 27.1819C78.388 27.1819 78.5351 27.1972 78.6787 27.2287C78.8223 27.2601 78.948 27.3043 79.0558 27.3622L78.888 27.7193C78.6701 27.613 78.4516 27.5595 78.2344 27.5595C78.0816 27.5595 77.9687 27.5807 77.8966 27.6232C77.8237 27.6657 77.7866 27.7218 77.7866 27.7916C77.7866 27.8613 77.8294 27.9132 77.913 27.9472C77.9973 27.9812 78.1258 28.0144 78.2987 28.0475C78.478 28.0841 78.6251 28.1215 78.7401 28.1581C78.8544 28.1946 78.9523 28.2533 79.0344 28.3324C79.1158 28.4115 79.158 28.5195 79.158 28.6547C79.158 28.7712 79.1201 28.8766 79.0451 28.9727C78.9694 29.0688 78.8573 29.1445 78.7066 29.2006C78.5566 29.2567 78.3737 29.2847 78.158 29.2847C77.9708 29.2856 77.7901 29.2644 77.6166 29.221Z" fill="#4D4D4C"/>
<path d="M84.0496 28.8729V29.2504H82.2246V27.2164H84.006V27.594H82.7668V28.0354H83.861V28.4019H82.7668V28.8729H84.0496Z" fill="#4D4D4C"/>
<path d="M12.0566 6.94133C13.2264 7.59436 14.1431 8.50679 14.8049 9.67772C15.4666 10.8495 15.7979 12.2032 15.7979 13.7389C15.7979 15.2755 15.4666 16.6335 14.8049 17.8146C14.1431 18.9958 13.2264 19.9124 12.0566 20.5655C10.8859 21.2186 9.56236 21.5451 8.08586 21.5451C6.95344 21.5451 5.91785 21.3249 4.97827 20.8826C4.03784 20.4414 3.26136 19.7985 2.64715 18.9532V21.3724H0V0H2.76269V8.41071C3.37605 7.60457 4.14403 6.9949 5.06492 6.58164C5.98582 6.16922 6.99251 5.96259 8.08671 5.96259C9.56322 5.96259 10.8868 6.28911 12.0566 6.94133ZM10.4884 18.4481C11.2656 17.9974 11.879 17.3639 12.3301 16.5468C12.7804 15.7304 13.0064 14.7951 13.0064 13.7389C13.0064 12.6829 12.7804 11.7474 12.3301 10.9303C11.879 10.1148 11.2656 9.48557 10.4884 9.04336C9.711 8.60207 8.83343 8.38093 7.85564 8.38093C6.89651 8.38093 6.02319 8.60207 5.23738 9.04336C4.45071 9.48557 3.83649 10.1139 3.39559 10.9303C2.95383 11.7466 2.7338 12.6829 2.7338 13.7389C2.7338 14.7951 2.95383 15.7313 3.39559 16.5468C3.83649 17.3631 4.45071 17.9966 5.23738 18.4481C6.02404 18.8996 6.89651 19.125 7.85564 19.125C8.83429 19.125 9.71186 18.8996 10.4884 18.4481Z" fill="#4D4D4C"/>
<path d="M23.5095 20.5367C22.3006 19.865 21.3559 18.9381 20.6754 17.757C19.9942 16.5759 19.6543 15.2366 19.6543 13.7391C19.6543 12.2416 19.995 10.9024 20.6754 9.72129C21.3559 8.54014 22.3014 7.61836 23.5095 6.95596C24.7184 6.29355 26.0802 5.96191 27.5957 5.96191C29.1113 5.96191 30.468 6.29355 31.6676 6.95596C32.8663 7.61836 33.8067 8.54014 34.4872 9.72129C35.1677 10.9024 35.5083 12.2416 35.5083 13.7391C35.5083 15.2366 35.1677 16.5759 34.4872 17.757C33.8059 18.9381 32.8663 19.8641 31.6676 20.5367C30.468 21.2094 29.1113 21.5453 27.5957 21.5453C26.0802 21.5444 24.7184 21.2085 23.5095 20.5367ZM30.2284 18.4483C31.0058 17.9976 31.6141 17.3641 32.0558 16.5469C32.4967 15.7306 32.7176 14.7953 32.7176 13.7391C32.7176 12.683 32.4967 11.7476 32.0558 10.9304C31.6141 10.115 31.0058 9.48571 30.2284 9.04357C29.452 8.60221 28.5736 8.38114 27.5957 8.38114C26.6179 8.38114 25.7395 8.60221 24.9631 9.04357C24.1857 9.48571 23.5715 10.1141 23.1213 10.9304C22.6702 11.7468 22.445 12.683 22.445 13.7391C22.445 14.7953 22.6702 15.7315 23.1213 16.5469C23.5715 17.3633 24.1857 17.9968 24.9631 18.4483C25.7404 18.8999 26.6179 19.1252 27.5957 19.1252C28.5736 19.1252 29.452 18.8999 30.2284 18.4483Z" fill="#4D4D4C"/>
<path d="M41.5506 21.0398C40.3995 20.7039 39.4973 20.2762 38.8457 19.7583L39.9968 17.5695C40.6679 18.05 41.4835 18.4335 42.4426 18.7217C43.4017 19.01 44.3702 19.1537 45.3488 19.1537C47.7658 19.1537 48.9747 18.4624 48.9747 17.0797C48.9747 16.6189 48.8116 16.2541 48.4853 15.9854C48.1591 15.7167 47.7513 15.5202 47.262 15.3952C46.7727 15.2702 46.0769 15.1316 45.1756 14.9777C43.948 14.7864 42.9455 14.5653 42.1682 14.3153C41.3908 14.0662 40.7248 13.6435 40.1684 13.0483C39.6119 12.453 39.3341 11.618 39.3341 10.5423C39.3341 9.15966 39.9093 8.05088 41.0604 7.21581C42.2116 6.38078 43.7551 5.96326 45.6929 5.96326C46.7098 5.96326 47.7258 6.08826 48.7428 6.33741C49.7596 6.58741 50.5938 6.92329 51.2463 7.34588L50.0663 9.53466C48.8192 8.72859 47.3512 8.32466 45.6641 8.32466C44.4933 8.32466 43.6013 8.51681 42.988 8.90031C42.3738 9.28466 42.0671 9.79316 42.0671 10.4267C42.0671 10.9259 42.2396 11.3195 42.5853 11.6078C42.9302 11.8961 43.3576 12.1078 43.8656 12.2413C44.3736 12.3757 45.0889 12.5296 46.0098 12.7022C47.2373 12.9139 48.2296 13.1393 48.9883 13.3791C49.7461 13.6197 50.3934 14.027 50.9303 14.6036C51.4672 15.1792 51.7356 15.9862 51.7356 17.0228C51.7356 18.4054 51.1461 19.505 49.9661 20.3204C48.7861 21.1367 47.1796 21.5449 45.1458 21.5449C43.8996 21.544 42.7017 21.3757 41.5506 21.0398Z" fill="#4D4D4C"/>
<path d="M65.2044 20.4786C64.8017 20.8238 64.3021 21.0883 63.7084 21.2702C63.1136 21.4522 62.4994 21.5441 61.8666 21.5441C60.3314 21.5441 59.1421 21.1316 58.2985 20.3059C57.4541 19.4803 57.0327 18.3 57.0327 16.7634V8.38164H54.4434V6.10612H57.0327V2.76514H59.7954V6.10612H64.1696V8.38164H59.7954V16.6478C59.7954 17.4735 60.001 18.107 60.4139 18.5491C60.8259 18.9914 61.4163 19.2116 62.1834 19.2116C63.027 19.2116 63.7466 18.9718 64.3412 18.4914L65.2044 20.4786Z" fill="#4D4D4C"/>
<path d="M71.9096 20.5367C70.701 19.865 69.7563 18.9381 69.0758 17.757C68.3945 16.5759 68.0547 15.2366 68.0547 13.7391C68.0547 12.2416 68.3954 10.9024 69.0758 9.72129C69.7563 8.54014 70.7019 7.61836 71.9096 6.95596C73.1189 6.29355 74.4803 5.96191 75.996 5.96191C77.5118 5.96191 78.8682 6.29355 80.0682 6.95596C81.2668 7.61836 82.2068 8.54014 82.8875 9.72129C83.5682 10.9024 83.9089 12.2416 83.9089 13.7391C83.9089 15.2366 83.5682 16.5759 82.8875 17.757C82.206 18.9381 81.2668 19.8641 80.0682 20.5367C78.8682 21.2094 77.5118 21.5453 75.996 21.5453C74.4803 21.5444 73.1189 21.2085 71.9096 20.5367ZM78.6289 18.4483C79.406 17.9976 80.0146 17.3641 80.456 16.5469C80.8975 15.7306 81.1182 14.7953 81.1182 13.7391C81.1182 12.683 80.8975 11.7476 80.456 10.9304C80.0146 10.115 79.406 9.48571 78.6289 9.04357C77.8525 8.60221 76.9739 8.38114 75.996 8.38114C75.0182 8.38114 74.1396 8.60221 73.3632 9.04357C72.586 9.48571 71.9718 10.1141 71.5218 10.9304C71.0705 11.7468 70.8455 12.683 70.8455 13.7391C70.8455 14.7953 71.0705 15.7315 71.5218 16.5469C71.9718 17.3633 72.586 17.9968 73.3632 18.4483C74.141 18.8999 75.0182 19.1252 75.996 19.1252C76.9739 19.1252 77.8525 18.8999 78.6289 18.4483Z" fill="#4D4D4C"/>
<path d="M102.142 12.9678V12.9635H96.6452V6.10302L87.5059 6.10217V21.5563H90.2609V8.41255H93.9094V15.1447H99.503V21.5563H102.142V12.9678H102.142Z" fill="#4D4D4C"/>
<path d="M102.128 6.10449H99.5137V8.721H102.128V6.10449Z" fill="#4D4D4C"/>
</g>
<defs>
<clipPath id="clip0_1518_26857">
<rect width="102.143" height="30" fill="white"/>
</clipPath>
</defs>
</svg>
