<svg width="104" height="60" viewBox="0 0 104 60" fill="none" xmlns="http://www.w3.org/2000/svg">
<g clip-path="url(#clip0_1518_26936)">
<path d="M59.4429 0V2.88037H56.0275V0H52.8683V2.88037H49.7091V0H46.5926V2.88037H43.476V0H37.9688C37.9688 0 37.9688 26.9823 37.9688 26.8552C49.581 30.8369 54.1064 22.577 64.9929 26.8552C64.9929 26.4316 64.9929 0 64.9929 0H59.4429Z" fill="#4D4D4C"/>
<path d="M102.432 42.9938L100.425 42.0619L99.6994 44.1374L98.9737 42.0619L96.9671 42.9938L97.9064 41.0029L95.8145 40.2828L97.9064 39.5627L96.9671 37.5719L98.9737 38.5038L99.6994 36.4282L100.425 38.5038L102.432 37.5719L101.493 39.5627L103.584 40.2828L101.493 41.0029L102.432 42.9938Z" fill="#4D4D4C"/>
<path d="M7.57042 42.9938L5.56388 42.0619L4.83812 44.1374L4.11235 42.0619L2.10581 42.9938L3.04504 41.0029L0.953125 40.2828L3.04504 39.5627L2.10581 37.5719L4.11235 38.5038L4.83812 36.4282L5.56388 38.5038L7.57042 37.5719L6.63119 39.5627L8.72311 40.2828L6.63119 41.0029L7.57042 42.9938Z" fill="#4D4D4C"/>
<path d="M53.9338 21.6451C54.19 21.8993 54.6169 21.8993 54.873 21.6451C55.0011 21.5181 55.0865 21.3063 55.0865 21.1368C55.1292 21.1792 55.1719 21.2215 55.2146 21.2639C56.3246 20.925 57.4346 20.7556 58.3738 20.9674C58.4165 20.925 58.4165 20.925 58.4592 20.8827C58.3311 21.1368 58.3738 21.4757 58.63 21.7299C58.9288 22.0264 59.3984 22.0264 59.6973 21.7299C59.9961 21.4333 59.9961 20.9674 59.6973 20.6709C59.4838 20.4591 59.1423 20.4167 58.8861 20.5015C58.9288 20.4591 58.9715 20.4591 59.0142 20.4167C58.8007 19.5272 58.9288 18.4259 59.2703 17.3246C59.2276 17.2822 59.1849 17.2399 59.1423 17.1975C59.313 17.1975 59.4838 17.1551 59.6119 16.9857C59.868 16.7316 59.868 16.308 59.6119 16.0538C59.3557 15.7997 58.9288 15.7997 58.6726 16.0538C58.5446 16.1809 58.4592 16.3503 58.4592 16.5198C58.4165 16.4774 58.3738 16.4351 58.3311 16.3927C57.2211 16.7316 56.1965 16.7739 55.3 16.5621C55.2573 16.5621 55.2573 16.5621 55.2146 16.5621C55.3 16.5621 55.3427 16.5198 55.3853 16.4774C55.5134 16.3503 55.5134 16.1385 55.3853 16.0538C55.2573 15.9691 55.0438 15.9268 54.9584 16.0538C54.9157 16.0962 54.873 16.1809 54.873 16.2656L48.2984 9.78479L48.3838 9.48828L49.5365 9.19177L49.9634 8.76819L49.1096 7.92102L48.64 8.38696L48.2984 8.04809L48.7681 7.58215L48.1704 6.98913L47.7008 7.45508L47.4446 7.20093L47.9142 6.73499L47.1884 6.01489L46.8896 6.3114L46.6335 7.62451L46.1638 7.70923L45.865 7.41272L45.2246 8.04809L54.19 16.901C54.1046 16.901 54.0619 16.9434 53.9765 16.9857C53.8484 17.1128 53.8484 17.3246 53.9765 17.4093C54.1046 17.5364 54.318 17.5364 54.4034 17.4093C54.4461 17.3669 54.4888 17.2822 54.4888 17.1975L54.5315 17.2822C54.745 18.1717 54.7023 19.1883 54.3607 20.2897C54.4034 20.332 54.4461 20.3744 54.5315 20.4167C54.3607 20.4167 54.1473 20.4591 54.0192 20.6285C53.6777 20.9674 53.6777 21.391 53.9338 21.6451ZM46.8042 8.3446L47.4446 8.30224L47.5727 9.14941L46.8042 8.3446ZM55.428 20.2897C55.4707 20.1626 55.5134 20.0779 55.5561 20.0355C55.5988 19.9932 55.5988 19.9508 55.5988 19.9084C55.8976 19.1883 55.855 18.68 55.7269 17.96C56.4953 18.0447 56.965 18.087 57.6907 17.7905C57.7334 17.7905 57.7761 17.7482 57.8188 17.7482C57.8615 17.7058 57.9469 17.6634 58.075 17.6211C57.6053 18.5953 57.6053 19.1036 57.7334 19.9508C56.9223 19.8237 56.3673 19.8237 55.428 20.2897Z" fill="#4D4D4C"/>
<path d="M49.0252 20.7132C48.8972 20.5862 48.6837 20.5015 48.5129 20.5015C48.5556 20.4591 48.5983 20.4167 48.6837 20.3744C48.3422 19.2731 48.2995 18.2565 48.5129 17.3669L48.5556 17.2822C48.5556 17.3669 48.5983 17.4516 48.641 17.494C48.7691 17.6211 48.9826 17.6211 49.0679 17.494C49.196 17.3669 49.196 17.1551 49.0679 17.0704C49.0252 17.0281 48.9399 16.9857 48.8545 16.9857L57.8198 8.13281L57.1795 7.49744L56.8806 7.79394L56.411 7.70923L56.1548 6.39612L55.856 6.09961L55.1302 6.8197L55.5998 7.28564L55.3437 7.53979L54.8741 7.07385L54.2764 7.66687L54.746 8.13281L54.4045 8.47168L53.9348 8.00574L53.081 8.8529L53.5079 9.27649L54.6606 9.57299L54.746 9.8695L48.1714 16.2656C48.1714 16.1809 48.1287 16.1385 48.086 16.0538C47.9579 15.9267 47.7445 15.9267 47.6591 16.0538C47.531 16.1809 47.531 16.3927 47.6591 16.4774C47.7018 16.5198 47.7872 16.5621 47.8299 16.5621C47.8299 16.5621 47.7872 16.5621 47.7445 16.5621C46.8479 16.7739 45.8233 16.7316 44.7133 16.3927C44.6706 16.4351 44.6279 16.4774 44.5853 16.5198C44.5853 16.3503 44.5426 16.1809 44.3718 16.0538C44.1156 15.7997 43.6887 15.7997 43.4326 16.0538C43.1764 16.308 43.1764 16.7316 43.4326 16.9857C43.5606 17.1128 43.7314 17.1975 43.9022 17.1975C43.8595 17.2399 43.8168 17.2822 43.7741 17.3246C44.1156 18.4259 44.2437 19.4848 44.0303 20.4167C44.073 20.4591 44.1156 20.5015 44.1583 20.5015C43.9022 20.3744 43.5606 20.4591 43.3472 20.6709C43.0483 20.9674 43.0483 21.4333 43.3472 21.7298C43.646 22.0264 44.1156 22.0264 44.4145 21.7298C44.6279 21.5181 44.7133 21.1792 44.5853 20.8827C44.6279 20.925 44.6279 20.925 44.6706 20.9674C45.5672 20.7556 46.7199 20.925 47.8299 21.2639C47.8726 21.2215 47.9152 21.1792 47.9579 21.1368C47.9579 21.3063 48.0006 21.5181 48.1714 21.6451C48.4276 21.8993 48.8545 21.8993 49.1106 21.6451C49.2814 21.391 49.2814 20.9674 49.0252 20.7132ZM55.3864 9.14941L55.5145 8.30224L56.1548 8.3446L55.3864 9.14941ZM45.1829 19.9508C45.311 19.0613 45.311 18.553 44.8414 17.6211C44.9695 17.6634 45.0549 17.7058 45.0976 17.7482C45.1403 17.7905 45.1829 17.7905 45.2256 17.7905C45.9514 18.087 46.4637 18.0447 47.1895 17.96C47.0614 18.68 47.0614 19.1883 47.3176 19.9084C47.3176 19.9508 47.3602 19.9932 47.3602 20.0355C47.4029 20.0779 47.4456 20.1626 47.4883 20.2897C46.5918 19.8237 46.0795 19.8237 45.1829 19.9508Z" fill="#4D4D4C"/>
<path d="M17.3042 47.3141H11.1992V33.4205H16.6638C17.6031 33.4205 18.4142 33.5476 19.0973 33.7594C19.7804 33.9712 20.2927 34.3101 20.6342 34.6913C21.2746 35.4114 21.6161 36.2162 21.6161 37.1057C21.6161 38.207 21.2746 39.0118 20.5915 39.5201C20.3354 39.6896 20.1646 39.8166 20.0792 39.859C19.9938 39.9014 19.823 39.9861 19.5669 40.0708C20.4207 40.2402 21.1465 40.6638 21.6588 41.2145C22.1711 41.8075 22.4273 42.5276 22.4273 43.4171C22.4273 44.3913 22.0857 45.2385 21.4454 46.001C20.5488 46.8905 19.2254 47.3141 17.3042 47.3141ZM13.5473 39.1813H16.5357C18.2434 39.1813 19.0973 38.5883 19.0973 37.4446C19.0973 36.7668 18.8838 36.3009 18.4569 36.0044C18.03 35.7079 17.3896 35.5808 16.5357 35.5808H13.5046V39.1813H13.5473ZM13.5473 45.1538H17.2615C18.1154 45.1538 18.7984 45.0267 19.268 44.7302C19.7377 44.4761 19.9511 43.9254 19.9511 43.2053C19.9511 41.9769 18.9692 41.3415 16.9627 41.3415H13.5473V45.1538Z" fill="#4D4D4C"/>
<path d="M35.7052 37.953C35.7052 40.2403 34.6805 41.6805 32.674 42.2736L36.3455 47.3142H33.3571L30.0271 42.6548H26.9106V47.3142H24.5625V33.4207H29.7709C31.9056 33.4207 33.4425 33.7595 34.339 34.4796C35.2355 35.1997 35.7052 36.3434 35.7052 37.953ZM32.5459 39.9015C33.0156 39.4779 33.2717 38.8425 33.2717 37.9106C33.2717 37.0211 33.0156 36.3857 32.5459 36.0469C32.0336 35.708 31.1798 35.5386 29.899 35.5386H26.9106V40.4945H29.8136C31.1798 40.5369 32.0763 40.3251 32.5459 39.9015Z" fill="#4D4D4C"/>
<path d="M38.6914 33.4207H41.0395V47.3142H38.6914V33.4207Z" fill="#4D4D4C"/>
<path d="M48.8089 35.2421C48.1258 35.2421 47.5708 35.3691 47.1012 35.6656C46.6743 35.9622 46.4608 36.3857 46.4608 36.9364C46.4608 37.4871 46.6743 37.9106 47.1012 38.2495C47.5281 38.546 48.4674 38.8849 49.9189 39.2238C51.3704 39.5626 52.4377 40.0709 53.1635 40.6639C53.8893 41.2993 54.2735 42.1888 54.2735 43.4172C54.2735 44.6456 53.8039 45.6199 52.9074 46.3823C51.9681 47.1448 50.7727 47.526 49.2785 47.526C47.1012 47.526 45.1374 46.7635 43.4297 45.281L44.9239 43.5019C46.3328 44.7303 47.827 45.3234 49.3212 45.3234C50.0897 45.3234 50.6874 45.1539 51.1143 44.8574C51.5412 44.5185 51.7974 44.095 51.7974 43.5443C51.7974 42.9936 51.5839 42.5701 51.157 42.2736C50.73 41.977 50.0043 41.7229 48.9797 41.4687C47.9551 41.2146 47.1866 41.0028 46.6316 40.791C46.0766 40.5792 45.607 40.3251 45.2228 39.9862C44.4116 39.3508 43.9847 38.4189 43.9847 37.1058C43.9847 35.8351 44.4543 34.8185 45.3935 34.1407C46.3328 33.463 47.4854 33.0818 48.8943 33.0818C49.7908 33.0818 50.6874 33.2089 51.5412 33.5054C52.4377 33.8019 53.1635 34.2255 53.8039 34.7338L52.5231 36.5128C52.0962 36.1316 51.5412 35.8351 50.8581 35.5809C50.1751 35.3691 49.492 35.2421 48.8089 35.2421Z" fill="#4D4D4C"/>
<path d="M62.4708 35.5809V47.3142H60.1227V35.5809H55.8535V33.4207H66.6973V35.5809H62.4708Z" fill="#4D4D4C"/>
<path d="M80.1896 45.4081C78.7808 46.7635 77.0304 47.4836 74.9385 47.4836C72.8466 47.4836 71.0962 46.8059 69.6873 45.4081C68.2785 44.0103 67.5527 42.3159 67.5527 40.2827C67.5527 38.2495 68.2785 36.5128 69.6873 35.1573C71.0962 33.8019 72.8466 33.0818 74.9385 33.0818C77.0304 33.0818 78.7808 33.7595 80.1896 35.1573C81.5985 36.5128 82.3242 38.2495 82.3242 40.2827C82.3242 42.3159 81.5985 44.0526 80.1896 45.4081ZM78.4819 36.7246C77.5427 35.7504 76.3473 35.2421 74.9812 35.2421C73.5723 35.2421 72.4196 35.7504 71.4804 36.7246C70.5412 37.6989 70.0289 38.8849 70.0289 40.2827C70.0289 41.6805 70.4985 42.8666 71.4804 43.8408C72.4196 44.8151 73.615 45.3234 74.9812 45.3234C76.39 45.3234 77.5427 44.8151 78.4819 43.8408C79.4212 42.8666 79.9335 41.6805 79.9335 40.2827C79.8908 38.8849 79.4212 37.6989 78.4819 36.7246Z" fill="#4D4D4C"/>
<path d="M84.502 47.3142V33.4207H86.85V45.0692H93.2539V47.3142H84.502Z" fill="#4D4D4C"/>
<path d="M17.9447 60.2338C16.237 60.2338 14.8281 58.8359 14.8281 57.1416C14.8281 55.4472 16.237 54.0494 17.9447 54.0494C17.9447 54.0494 18.8839 54.0071 19.7377 54.6424V55.4896C19.7377 55.4896 19.0973 54.6848 17.9447 54.6848C16.5785 54.6848 15.5112 55.8285 15.5112 57.1839C15.5112 58.5394 16.5785 59.6831 17.9447 59.6831C19.0547 59.6831 19.6523 58.963 19.7377 58.8783V59.7255C18.8412 60.2761 17.9447 60.2338 17.9447 60.2338Z" fill="#4D4D4C"/>
<path d="M20.8906 57.1837C20.8906 55.4894 22.2995 54.0916 24.0072 54.0916C25.7148 54.0916 27.1237 55.4894 27.1237 57.1837C27.1237 58.8781 25.7148 60.2759 24.0072 60.2759C22.2995 60.2335 20.8906 58.8781 20.8906 57.1837ZM26.4406 57.1837C26.4406 55.8282 25.3733 54.6846 24.0072 54.6846C22.641 54.6846 21.5737 55.8282 21.5737 57.1837C21.5737 58.5392 22.641 59.6829 24.0072 59.6829C25.3733 59.6829 26.4406 58.5392 26.4406 57.1837Z" fill="#4D4D4C"/>
<path d="M33.9551 54.134L35.1505 60.1066H34.5101L33.7417 55.9131L31.6924 59.9371L29.6859 55.9131L28.8748 60.1066H28.2344L29.4298 54.134L31.6924 58.497L33.9551 54.134Z" fill="#4D4D4C"/>
<path d="M39.6341 56.9298L39.4206 57.5228H37.158V60.1491H36.5176V54.2612H40.1464L39.933 54.8542H37.158V56.9722H39.6341V56.9298Z" fill="#4D4D4C"/>
<path d="M40.957 57.1837C40.957 55.4894 42.3659 54.0916 44.0736 54.0916C45.7813 54.0916 47.1901 55.4894 47.1901 57.1837C47.1901 58.8781 45.7813 60.2759 44.0736 60.2759C42.3659 60.2335 40.957 58.8781 40.957 57.1837ZM46.507 57.1837C46.507 55.8282 45.4397 54.6846 44.0736 54.6846C42.7074 54.6846 41.6401 55.8282 41.6401 57.1837C41.6401 58.5392 42.7074 59.6829 44.0736 59.6829C45.4397 59.6829 46.507 58.5392 46.507 57.1837Z" fill="#4D4D4C"/>
<path d="M52.44 55.8706C52.44 56.8872 51.885 57.2684 51.1592 57.4379L52.7815 59.8099L52.2692 60.2335L50.4761 57.5649C50.4334 57.5649 50.3907 57.5649 50.348 57.5649H49.238V60.1488H48.5977V54.2186H50.348C51.458 54.2186 52.44 54.5575 52.44 55.8706ZM49.238 56.9296H50.348C51.1592 56.9296 51.7996 56.6754 51.7996 55.8706C51.7996 55.0234 51.1592 54.8116 50.348 54.8116H49.238V56.9296Z" fill="#4D4D4C"/>
<path d="M56.1974 54.8116V60.1065H55.557V54.8116H53.5078L53.7213 54.2186H58.2466L58.0332 54.8116H56.1974Z" fill="#4D4D4C"/>
<path d="M65.7173 54.3458L66.3577 54.134V60.1066H65.7173V57.4803H62.2166V60.1066H61.5762V54.3458L62.2166 54.134V56.8873H65.7173V54.3458Z" fill="#4D4D4C"/>
<path d="M67.7676 57.1837C67.7676 55.4894 69.1764 54.0916 70.8841 54.0916C72.5918 54.0916 74.0006 55.4894 74.0006 57.1837C74.0006 58.8781 72.5918 60.2759 70.8841 60.2759C69.1337 60.2335 67.7676 58.8781 67.7676 57.1837ZM73.2749 57.1837C73.2749 55.8282 72.2076 54.6846 70.8414 54.6846C69.4753 54.6846 68.408 55.8282 68.408 57.1837C68.408 58.5392 69.4753 59.6829 70.8414 59.6829C72.2076 59.6829 73.2749 58.5392 73.2749 57.1837Z" fill="#4D4D4C"/>
<path d="M75.3678 54.3458L76.0082 54.134V57.6921C76.0082 58.5393 76.2217 59.683 77.6732 59.683C79.1247 59.683 79.2955 58.5393 79.2955 57.6921V54.3458L79.9359 54.134V57.6921C79.9359 59.0476 79.5517 60.276 77.6732 60.276C75.7948 60.276 75.3251 59.0476 75.3678 57.6921V54.3458Z" fill="#4D4D4C"/>
<path d="M83.3924 56.7603C84.1609 57.0144 85.3136 57.3956 85.3136 58.497C85.3136 59.6406 84.5878 60.2336 83.1363 60.2336C82.2824 60.2336 81.5994 59.8948 81.2578 59.5983V58.8782C81.642 59.217 82.5386 59.6406 83.1363 59.6406C84.2036 59.6406 84.6305 59.1747 84.6305 58.5393C84.6305 57.9039 83.7767 57.6498 83.0509 57.3956C82.3678 57.1838 81.2578 56.7603 81.2578 55.7437C81.2578 54.5576 82.2397 54.134 83.1363 54.134C83.9901 54.134 84.5451 54.4305 84.844 54.6847V55.4048C84.5878 55.1083 83.9474 54.7694 83.1363 54.7694C82.3678 54.7694 81.9409 55.0659 81.9409 55.7437C81.9836 56.252 82.7094 56.5061 83.3924 56.7603Z" fill="#4D4D4C"/>
<path d="M90.3105 59.5558L90.097 60.1488H86.6816V54.2186H90.3105L90.097 54.8116H87.322V56.9296H89.7982L89.5847 57.5226H87.322V59.5982H90.3105V59.5558Z" fill="#4D4D4C"/>
</g>
<defs>
<clipPath id="clip0_1518_26936">
<rect width="102.632" height="60" fill="white" transform="translate(0.953125)"/>
</clipPath>
</defs>
</svg>
