<svg width="168" height="36" viewBox="0 0 168 36" fill="none" xmlns="http://www.w3.org/2000/svg">
<path d="M8.58183 7.46968C7.02387 7.46968 5.75154 7.96127 4.73887 8.97033V0.587402H0.921875V21.6999H4.73887V13.6016C4.73887 12.7996 4.99853 12.1527 5.49188 11.6353C5.98523 11.1437 6.63438 10.8849 7.38739 10.8849C8.16637 10.8849 8.78956 11.1437 9.25694 11.6353C9.72433 12.1269 9.98399 12.7737 9.98399 13.6016V21.6999H13.775V13.0583C13.775 11.3765 13.3076 10.0053 12.3729 8.9962C11.4121 7.96127 10.1658 7.46968 8.58183 7.46968ZM23.1747 7.46968C20.7339 7.46968 18.6826 8.42699 17.0727 10.3416L19.0461 12.6702C20.2665 11.4024 21.5129 10.7556 22.7592 10.7556C23.6161 10.7556 24.2393 10.9626 24.6807 11.4024C25.1221 11.8423 25.3558 12.4373 25.3558 13.2135V13.8345H21.8504C20.2405 13.8345 18.9422 14.1967 18.0075 14.9212C17.0467 15.6456 16.5793 16.6288 16.5793 17.8966C16.5793 19.1126 17.0208 20.1217 17.8776 20.8979C18.7345 21.6741 19.9289 22.0622 21.409 22.0622C23.1747 22.0622 24.6028 21.493 25.6674 20.3804V21.7258H29.1728V13.4464C29.1728 11.5059 28.6275 10.0311 27.537 9.02207C26.4464 7.96127 24.9923 7.46968 23.1747 7.46968ZM25.3558 16.4994C25.3558 17.3015 25.0702 17.9742 24.499 18.4917C23.9277 19.0091 23.2266 19.2679 22.4217 19.2679C21.8245 19.2679 21.3311 19.1385 20.9676 18.8539C20.6041 18.5952 20.4223 18.2071 20.4223 17.7413C20.4223 16.8099 21.0714 16.3442 22.3697 16.3442H25.3558V16.4994ZM40.8315 7.46968C38.8322 7.46968 37.3521 8.14238 36.3394 9.51366V7.78016H32.834V26.7711H36.651V20.3545C37.6897 21.493 39.0918 22.0363 40.8315 22.0363C42.8049 22.0363 44.4408 21.3377 45.7131 19.9664C46.9855 18.5693 47.6086 16.8358 47.6086 14.7401C47.6086 12.6443 46.9595 10.9108 45.7131 9.53954C44.4408 8.14238 42.8049 7.46968 40.8315 7.46968ZM42.7011 17.5085C42 18.2071 41.1431 18.5693 40.1305 18.5693C39.1437 18.5693 38.3128 18.2329 37.6377 17.5602C36.9366 16.8875 36.5991 15.9302 36.5991 14.7142C36.5991 13.4464 36.9366 12.515 37.6377 11.8681C38.3388 11.2213 39.1697 10.8849 40.1305 10.8849C41.1691 10.8849 42.026 11.2472 42.727 11.9457C43.4022 12.6443 43.7657 13.5758 43.7657 14.7401C43.7397 15.9043 43.4022 16.8099 42.7011 17.5085ZM58.5922 7.46968C56.5929 7.46968 55.1128 8.14238 54.1001 9.51366V7.78016H50.5947V26.7711H54.4117V20.3545C55.4504 21.493 56.8525 22.0363 58.5922 22.0363C60.5657 22.0363 62.2015 21.3377 63.4738 19.9664C64.7462 18.5693 65.3693 16.8358 65.3693 14.7401C65.3693 12.6443 64.7462 10.9108 63.4738 9.53954C62.2015 8.14238 60.5657 7.46968 58.5922 7.46968ZM60.4618 17.5085C59.7607 18.2071 58.9038 18.5693 57.8912 18.5693C56.9045 18.5693 56.0735 18.2329 55.3984 17.5602C54.7233 16.8875 54.3598 15.9302 54.3598 14.7142C54.3598 13.4464 54.6973 12.515 55.3984 11.8681C56.0995 11.2213 56.9304 10.8849 57.8912 10.8849C58.9298 10.8849 59.7867 11.2472 60.4878 11.9457C61.1629 12.6443 61.5264 13.5758 61.5264 14.7401C61.5004 15.9043 61.1629 16.8099 60.4618 17.5085ZM73.9641 16.9134L70.5366 7.75428H66.4859L71.8608 20.872L71.4454 21.8034C71.1338 22.5279 70.7183 23.0454 70.2509 23.3041C69.7836 23.5628 69.2123 23.6922 68.5372 23.6922C68.3035 23.6922 67.7582 23.6663 66.9013 23.5887V26.7711C67.7582 27.004 68.5631 27.1075 69.3681 27.1075C70.6664 27.1075 71.757 26.7711 72.6398 26.0984C73.5227 25.4257 74.3016 24.3649 74.9248 22.916L81.624 7.78016H77.6253L73.9641 16.9134ZM104.604 21.6999V13.0583C104.604 11.3765 104.137 10.0053 103.202 8.9962C102.267 7.96127 100.995 7.46968 99.4107 7.46968C97.8527 7.46968 96.5804 7.96127 95.5677 8.97033V0.587402H91.7507V21.6999H95.5677V13.6016C95.5677 12.7996 95.8274 12.1527 96.3208 11.6353C96.8141 11.1437 97.4632 10.8849 98.2163 10.8849C98.9952 10.8849 99.6184 11.1437 100.086 11.6353C100.553 12.1269 100.813 12.7737 100.813 13.6016V21.6999H104.604ZM120.287 9.56541C118.807 8.16826 117.042 7.46968 114.964 7.46968C112.887 7.46968 111.095 8.16826 109.667 9.56541C108.213 10.9626 107.486 12.6961 107.486 14.7401C107.486 16.8099 108.213 18.5434 109.641 19.9406C111.069 21.3377 112.835 22.0363 114.938 22.0363C117.016 22.0363 118.807 21.3377 120.287 19.9147C121.767 18.5175 122.494 16.784 122.494 14.7401C122.494 12.6702 121.767 10.9626 120.287 9.56541ZM117.561 17.4567C116.86 18.1812 116.003 18.5175 114.964 18.5175C113.9 18.5175 113.043 18.1553 112.368 17.4567C111.693 16.7582 111.355 15.8526 111.355 14.7401C111.355 13.6275 111.693 12.7219 112.368 11.9975C113.043 11.273 113.9 10.9108 114.964 10.9108C116.003 10.9108 116.86 11.273 117.561 11.9975C118.236 12.7219 118.6 13.6275 118.6 14.7401C118.6 15.8267 118.262 16.7323 117.561 17.4567ZM147.681 18.621C147.344 18.828 146.928 18.9056 146.409 18.9056C145.007 18.9056 143.709 18.2847 142.488 17.0169L140.567 19.3196C141.943 21.1307 143.864 22.0104 146.357 22.0104C147.941 22.0104 149.239 21.6223 150.278 20.8203C151.317 20.0441 151.81 18.9315 151.81 17.5602C151.81 16.5253 151.498 15.6974 150.849 15.0764C150.226 14.4554 149.239 13.8604 147.863 13.317L146.513 12.7478C145.968 12.5408 145.578 12.3597 145.37 12.1786C145.163 11.9975 145.059 11.7905 145.059 11.5059C145.059 10.8591 145.552 10.5227 146.565 10.5227C147.707 10.5227 148.746 10.9626 149.707 11.8423L151.628 9.51366C150.356 8.11651 148.694 7.39206 146.591 7.39206C145.059 7.39206 143.838 7.75428 142.878 8.50461C141.917 9.25493 141.45 10.264 141.45 11.5835C141.45 12.6184 141.761 13.4464 142.384 14.0932C143.008 14.7401 143.968 15.3093 145.241 15.8267L146.747 16.4477C147.266 16.6805 147.655 16.8617 147.863 17.0169C148.071 17.1721 148.201 17.405 148.201 17.7155C148.201 18.1294 148.045 18.4141 147.681 18.621ZM165.961 9.30668C164.741 8.06476 163.157 7.44381 161.21 7.44381C159.132 7.44381 157.393 8.14238 155.99 9.56541C154.588 10.9626 153.887 12.6961 153.887 14.7401C153.887 16.8099 154.614 18.5434 156.068 19.9406C157.522 21.3377 159.34 22.0363 161.547 22.0363C163.624 22.0363 165.494 21.3377 167.13 19.9664L165.546 17.3791C164.326 18.3106 163.027 18.7763 161.651 18.7763C160.638 18.7763 159.782 18.5434 159.106 18.0518C158.431 17.5861 157.964 16.8875 157.704 16.0078H167.545C167.727 15.2834 167.805 14.6107 167.805 13.938C167.805 12.101 167.182 10.5486 165.961 9.30668ZM157.73 13.3429C157.964 12.4891 158.379 11.7905 158.977 11.2989C159.574 10.7815 160.275 10.5486 161.106 10.5486C161.937 10.5486 162.638 10.8073 163.235 11.2989C163.806 11.8164 164.118 12.4891 164.144 13.3429H157.73ZM127.22 11.2472C128.285 11.2472 129.116 10.3934 129.116 9.35842C129.116 8.3235 128.259 7.46968 127.22 7.46968C126.156 7.46968 125.325 8.3235 125.325 9.35842C125.325 10.4192 126.182 11.2472 127.22 11.2472ZM136.256 14.0673C135.244 14.0673 134.413 14.8953 134.413 15.9043C134.309 17.2756 133.166 18.3623 131.738 18.3623C130.336 18.3623 129.194 17.2756 129.064 15.9043C129.064 14.8953 128.233 14.0673 127.22 14.0673C126.208 14.0673 125.377 14.8953 125.377 15.9043V16.1113C125.584 19.4231 128.337 22.0363 131.712 22.0363C135.088 22.0363 137.84 19.4231 138.048 16.1113V15.9043C138.126 14.8953 137.295 14.0673 136.256 14.0673ZM136.308 7.46968C135.244 7.46968 134.413 8.3235 134.413 9.35842C134.413 10.4192 135.27 11.2472 136.308 11.2472C137.373 11.2472 138.204 10.3934 138.204 9.35842C138.204 8.29762 137.347 7.46968 136.308 7.46968ZM102.916 32.0492L102.579 32.3597C102.345 32.1269 102.033 31.9975 101.67 31.9975C101.021 31.9975 100.501 32.4891 100.501 33.1877C100.501 33.8862 101.021 34.3778 101.67 34.3778C102.033 34.3778 102.345 34.2485 102.579 34.0156L102.916 34.3261C102.605 34.6624 102.163 34.8694 101.67 34.8694C100.761 34.8694 100.008 34.1191 100.008 33.2135C100.008 32.308 100.761 31.5576 101.67 31.5576C102.189 31.5059 102.63 31.7129 102.916 32.0492ZM105.643 32.9031V33.3688H104.137V34.3002H105.746V34.7659H103.617V31.5059H105.746V31.9716H104.137V32.8772H105.643V32.9031ZM110.55 35.3869V34.7918H108.109V35.3869H107.616V34.3002H108.057L109.2 31.5059H109.485L110.628 34.3002H111.043V35.3869H110.55ZM108.577 34.3261H110.083L109.33 32.4632L108.577 34.3261ZM111.926 34.7918H111.381L112.731 31.5318H113.017L114.341 34.7918H113.796L112.861 32.4632L111.926 34.7918ZM116.756 34.7918V33.938H116.237C115.899 33.938 115.795 34.0156 115.51 34.4296L115.276 34.7918H114.705L115.016 34.3261C115.224 34.0156 115.38 33.8604 115.536 33.7827C115.068 33.6275 114.757 33.2653 114.757 32.7478C114.757 32.0492 115.302 31.5576 116.185 31.5576H117.275V34.7918H116.756ZM116.133 31.9975C115.639 31.9975 115.25 32.2304 115.25 32.7219C115.25 33.2394 115.639 33.4464 116.133 33.4464H116.756V31.9975H116.133ZM122.365 32.0492L122.027 32.3597C121.793 32.1269 121.482 31.9975 121.118 31.9975C120.469 31.9975 119.95 32.4891 119.95 33.1877C119.95 33.8862 120.469 34.3778 121.118 34.3778C121.482 34.3778 121.793 34.2485 122.027 34.0156L122.365 34.3261C122.053 34.6624 121.612 34.8694 121.118 34.8694C120.209 34.8694 119.456 34.1191 119.456 33.2135C119.456 32.308 120.209 31.5576 121.118 31.5576C121.612 31.5059 122.053 31.7129 122.365 32.0492ZM124.338 34.3261V34.7918H123.066V34.3261H123.455V32.0234H123.066V31.5576H124.338V32.0234H123.949V34.3261H124.338ZM127.947 34.7918V32.4632L126.857 33.8345L125.74 32.4632V34.7918H125.247V31.5318H125.532L126.857 33.1877L128.181 31.5318H128.467V34.7918H127.947ZM131.427 32.9031V33.3688H129.921V34.3002H131.531V34.7659H129.401V31.5059H131.531V31.9716H129.921V32.8772H131.427V32.9031ZM134.231 34.7918V32.4891L132.491 34.7918H132.206V31.5318H132.699V33.8345L134.439 31.5318H134.724V34.7918H134.231ZM132.777 30.6521H133.114C133.114 30.8332 133.27 30.9884 133.478 30.9884C133.686 30.9884 133.842 30.8332 133.842 30.6521H134.179C134.179 31.0402 133.868 31.2989 133.478 31.2989C133.089 31.2989 132.777 31.0143 132.777 30.6521ZM137.607 34.7918V33.3946H136.101V34.7918H135.607V31.5318H136.101V32.9031H137.607V31.5318H138.1V34.7918H137.607ZM142.151 33.1618C142.151 34.0932 141.398 34.8177 140.489 34.8177C139.58 34.8177 138.827 34.0673 138.827 33.1618C138.827 32.2562 139.58 31.5059 140.489 31.5059C141.398 31.5059 142.151 32.2562 142.151 33.1618ZM139.32 33.1618C139.32 33.8604 139.84 34.352 140.489 34.352C141.138 34.352 141.657 33.8604 141.657 33.1618C141.657 32.4632 141.138 31.9716 140.489 31.9716C139.84 31.9716 139.32 32.4632 139.32 33.1618ZM143.397 34.7918H142.878V31.5318H144.955V31.9975H143.397V34.7918ZM148.668 33.1618C148.668 34.0932 147.915 34.8177 147.006 34.8177C146.097 34.8177 145.344 34.0673 145.344 33.1618C145.344 32.2562 146.097 31.5059 147.006 31.5059C147.915 31.5059 148.668 32.2562 148.668 33.1618ZM145.838 33.1618C145.838 33.8604 146.357 34.352 147.006 34.352C147.655 34.352 148.175 33.8604 148.175 33.1618C148.175 32.4632 147.655 31.9716 147.006 31.9716C146.357 31.9716 145.838 32.4632 145.838 33.1618ZM154.718 35.3869V34.7918H150.849V31.5318H151.343V34.3261H152.563V31.5318H153.056V34.3261H154.277V31.5318H154.77V34.3261H155.212V35.4128H154.718V35.3869ZM156.198 34.7918H155.653L157.003 31.5318H157.289L158.613 34.7918H158.068L157.782 34.0673H156.51L156.198 34.7918ZM156.666 33.5758H157.6L157.133 32.4373L156.666 33.5758ZM161.651 32.0492L161.314 32.3597C161.08 32.1269 160.768 31.9975 160.405 31.9975C159.756 31.9975 159.236 32.4891 159.236 33.1877C159.236 33.8862 159.756 34.3778 160.405 34.3778C160.768 34.3778 161.08 34.2485 161.314 34.0156L161.651 34.3261C161.339 34.6624 160.898 34.8694 160.405 34.8694C159.496 34.8694 158.743 34.1191 158.743 33.2135C158.743 32.308 159.496 31.5576 160.405 31.5576C160.898 31.5059 161.339 31.7129 161.651 32.0492ZM163.495 34.7918H163.001V31.9975H162.041V31.5318H164.455V31.9975H163.495V34.7918ZM166.844 34.7918V33.938H166.325C165.987 33.938 165.884 34.0156 165.598 34.4296L165.364 34.7918H164.793L165.105 34.3261C165.312 34.0156 165.468 33.8604 165.624 33.7827C165.156 33.6275 164.845 33.2653 164.845 32.7478C164.845 32.0492 165.39 31.5576 166.273 31.5576H167.364V34.7918H166.844ZM166.247 31.9975C165.754 31.9975 165.364 32.2304 165.364 32.7219C165.364 33.2394 165.754 33.4464 166.247 33.4464H166.87V31.9975H166.247Z" fill="#4D4D4C"/>
</svg>
