<svg width="123" height="40" viewBox="0 0 123 40" fill="none" xmlns="http://www.w3.org/2000/svg">
<g clip-path="url(#clip0_1518_26881)">
<path d="M13.7598 32.5543C13.7049 33.0259 13.5311 33.3903 13.2387 33.6462C12.9465 33.9028 12.5579 34.0306 12.073 34.0306C11.5474 34.0306 11.126 33.8417 10.8093 33.4638C10.4925 33.0858 10.334 32.5803 10.334 31.9477V31.5188C10.334 31.1046 10.4079 30.7396 10.5556 30.4254C10.7034 30.1111 10.9125 29.8693 11.1836 29.701C11.4546 29.5327 11.7683 29.4485 12.1248 29.4485C12.5974 29.4485 12.9762 29.5807 13.2614 29.8448C13.5467 30.1095 13.7127 30.4755 13.7596 30.9428H13.1697C13.1187 30.5866 13.0083 30.3284 12.8382 30.1687C12.6682 30.009 12.4303 29.9289 12.1248 29.9289C11.7499 29.9289 11.4559 30.068 11.2431 30.3458C11.0302 30.6238 10.9237 31.0194 10.9237 31.5323V31.9647C10.9237 32.4491 11.0245 32.8343 11.2263 33.1205C11.428 33.4066 11.7102 33.5494 12.0728 33.5494C12.3986 33.5494 12.6488 33.4753 12.823 33.3272C12.9973 33.1791 13.1126 32.9214 13.1697 32.5539L13.7598 32.5543Z" fill="#4D4D4C"/>
<path d="M22.6197 31.8822C22.6197 32.3193 22.5462 32.7007 22.3996 33.0264C22.2528 33.3522 22.0452 33.601 21.7763 33.7724C21.5073 33.9441 21.1936 34.0297 20.8351 34.0297C20.4847 34.0297 20.1739 33.9437 19.903 33.7711C19.6319 33.5985 19.4216 33.3524 19.2719 33.0326C19.1219 32.7131 19.0451 32.3428 19.041 31.9223V31.6002C19.041 31.1715 19.1155 30.7926 19.2642 30.4639C19.413 30.1351 19.6233 29.8833 19.8954 29.7088C20.1674 29.534 20.4784 29.447 20.8289 29.447C21.1852 29.447 21.4997 29.533 21.7716 29.7054C22.0437 29.8784 22.2528 30.1282 22.3996 30.456C22.5462 30.7838 22.6197 31.1651 22.6197 31.6V31.8822ZM22.0358 31.5944C22.0358 31.0656 21.9299 30.6596 21.718 30.3769C21.506 30.094 21.2096 29.9525 20.8287 29.9525C20.4579 29.9525 20.1659 30.094 19.9532 30.3769C19.7404 30.6594 19.6309 31.052 19.6247 31.5546V31.8824C19.6247 32.3951 19.7322 32.7979 19.947 33.0908C20.162 33.3839 20.4577 33.5305 20.8347 33.5305C21.2135 33.5305 21.5069 33.3922 21.7149 33.1153C21.9227 32.8387 22.0296 32.4419 22.0358 31.9255V31.5944Z" fill="#4D4D4C"/>
<path d="M31.5545 33.9684H30.9646L28.7247 30.5315V33.9684H28.1348V29.5082H28.7247L30.9707 32.9604V29.5082H31.5543L31.5545 33.9684Z" fill="#4D4D4C"/>
<path d="M40.504 32.5532C40.449 33.0248 40.2753 33.3892 39.9829 33.6451C39.6906 33.9017 39.3021 34.0295 38.8171 34.0295C38.2915 34.0295 37.8701 33.8406 37.5535 33.4627C37.2366 33.0847 37.0781 32.5792 37.0781 31.9466V31.5177C37.0781 31.1035 37.152 30.7385 37.2998 30.4243C37.4475 30.11 37.6567 29.8682 37.9278 29.6999C38.1987 29.5316 38.5124 29.4474 38.8689 29.4474C39.3415 29.4474 39.7203 29.5796 40.0055 29.8437C40.2909 30.1084 40.4568 30.4744 40.5038 30.9417H39.9139C39.8628 30.5855 39.7524 30.3273 39.5824 30.1676C39.4123 30.0079 39.1744 29.9278 38.8689 29.9278C38.494 29.9278 38.2001 30.0669 37.9872 30.3447C37.7744 30.6227 37.6678 31.0183 37.6678 31.5312V31.9636C37.6678 32.448 37.7687 32.8332 37.9704 33.1194C38.1721 33.4055 38.4544 33.5483 38.8169 33.5483C39.1428 33.5483 39.393 33.4742 39.5671 33.3261C39.7415 33.178 39.8568 32.9203 39.9139 32.5528L40.504 32.5532Z" fill="#4D4D4C"/>
<path d="M48.4564 31.9067H46.5282V33.4873H48.7681V33.9683H45.9414V29.5081H48.7376V29.9888H46.5282V31.4256H48.4564V31.9067Z" fill="#4D4D4C"/>
<path d="M54.7196 32.2223V33.9684H54.1328V29.5082H55.7739C56.2608 29.5082 56.6421 29.6328 56.9183 29.8818C57.1943 30.1308 57.3323 30.4608 57.3323 30.8712C57.3323 31.3042 57.1974 31.6375 56.9275 31.8712C56.6574 32.105 56.2709 32.2219 55.7676 32.2219L54.7196 32.2223ZM54.7196 31.7415H55.7739C56.0874 31.7415 56.328 31.6673 56.4949 31.5189C56.6619 31.3704 56.7455 31.1561 56.7455 30.8761C56.7455 30.6103 56.6619 30.3975 56.4949 30.2378C56.328 30.0781 56.0987 29.9954 55.8073 29.989H54.7196V31.7415Z" fill="#4D4D4C"/>
<path d="M65.6088 29.9891H64.1789V33.9685H63.5954V29.9891H62.168V29.5083H65.6088V29.9891Z" fill="#4D4D4C"/>
<path d="M81.1563 33.9684H80.5662V31.9069H78.3231V33.9684H77.7363V29.5082H78.3231V31.4257H80.5662V29.5082H81.1563V33.9684Z" fill="#4D4D4C"/>
<path d="M90.2562 31.8822C90.2562 32.3193 90.1827 32.7007 90.0361 33.0264C89.8893 33.3522 89.6818 33.601 89.413 33.7724C89.144 33.9441 88.8303 34.0297 88.4719 34.0297C88.1214 34.0297 87.8106 33.9437 87.5397 33.7711C87.2686 33.5985 87.0583 33.3524 86.9086 33.0326C86.7587 32.7131 86.682 32.3428 86.6777 31.9223V31.6002C86.6777 31.1715 86.7522 30.7926 86.901 30.4639C87.0499 30.1351 87.26 29.8833 87.5321 29.7088C87.8042 29.534 88.1149 29.447 88.4654 29.447C88.8217 29.447 89.1364 29.533 89.4081 29.7054C89.6804 29.8784 89.8893 30.1282 90.0361 30.456C90.1827 30.7838 90.2562 31.1651 90.2562 31.6V31.8822ZM89.6724 31.5944C89.6724 31.0656 89.5664 30.6596 89.3546 30.3769C89.1425 30.094 88.846 29.9525 88.465 29.9525C88.0944 29.9525 87.8022 30.094 87.5896 30.3769C87.3767 30.6594 87.2672 31.052 87.261 31.5546V31.8824C87.261 32.3951 87.3685 32.7979 87.5831 33.0908C87.7981 33.3839 88.0938 33.5305 88.4709 33.5305C88.8497 33.5305 89.1431 33.3922 89.351 33.1153C89.5588 32.8387 89.6657 32.4419 89.6722 31.9255V31.5944H89.6724Z" fill="#4D4D4C"/>
<path d="M98.9044 29.5083V32.541C98.9022 32.9615 98.7703 33.3057 98.5088 33.5735C98.2468 33.841 97.8921 33.9912 97.4439 34.024L97.2879 34.0298C96.801 34.0298 96.4127 33.8982 96.1238 33.6347C95.8345 33.3709 95.6879 33.0089 95.6836 32.5469V29.5083H96.2643V32.5285C96.2643 32.8512 96.3528 33.1019 96.5301 33.2806C96.7072 33.4593 96.9598 33.5487 97.2879 33.5487C97.62 33.5487 97.8743 33.4597 98.0502 33.2824C98.2263 33.1047 98.3149 32.8543 98.3149 32.5318V29.5083H98.9044Z" fill="#4D4D4C"/>
<path d="M105.777 31.9803C105.273 31.8353 104.907 31.6572 104.678 31.4456C104.449 31.2342 104.334 30.9735 104.334 30.6631C104.334 30.3118 104.474 30.0213 104.754 29.7917C105.034 29.5618 105.399 29.447 105.847 29.447C106.152 29.447 106.425 29.5062 106.664 29.6243C106.904 29.7427 107.089 29.9061 107.22 30.1147C107.352 30.323 107.418 30.5509 107.418 30.7975H106.828C106.828 30.527 106.742 30.3144 106.571 30.1596C106.4 30.005 106.159 29.9274 105.847 29.9274C105.558 29.9274 105.332 29.9911 105.17 30.1192C105.008 30.247 104.927 30.4245 104.927 30.6516C104.927 30.834 105.004 30.9878 105.158 31.1134C105.312 31.2393 105.573 31.3541 105.944 31.4588C106.314 31.563 106.602 31.678 106.811 31.8036C107.02 31.9296 107.175 32.0759 107.276 32.2433C107.377 32.4106 107.427 32.6077 107.427 32.8346C107.427 33.1962 107.286 33.4852 107.005 33.7031C106.724 33.9209 106.348 34.0293 105.877 34.0293C105.572 34.0293 105.287 33.9705 105.022 33.8536C104.757 33.7358 104.553 33.5753 104.409 33.3708C104.265 33.1666 104.193 32.9347 104.193 32.6755H104.783C104.783 32.9451 104.883 33.1578 105.081 33.3142C105.28 33.4705 105.545 33.5485 105.877 33.5485C106.187 33.5485 106.424 33.4852 106.589 33.3585C106.754 33.2319 106.837 33.0595 106.837 32.8404C106.837 32.6222 106.76 32.4529 106.607 32.3336C106.455 32.2146 106.178 32.0967 105.777 31.9803Z" fill="#4D4D4C"/>
<path d="M115.329 31.9067H113.401V33.4873H115.641V33.9683H112.814V29.5081H115.611V29.9888H113.401V31.4256H115.329V31.9067Z" fill="#4D4D4C"/>
<path d="M17.8083 6.71216V24.8716H15.3193V14.7196L12.1431 10.458V24.8716H9.6543V6.71216H12.1431L15.3193 10.913V6.71216H17.8083Z" fill="#4D4D4C"/>
<path d="M26.2942 9.0221V11.1551H30.7358V13.6398H26.2942V22.3769H29.4078V24.8716H23.8056V13.7033H22.373V11.1551H23.8056V6.71216H29.4682V9.0221H26.2942Z" fill="#4D4D4C"/>
<path d="M34.5762 6.71216L37.14 6.71392L38.7997 17.2588L40.4284 6.71216H41.6827H41.6852H42.9414L44.5679 17.2588L46.2301 6.71392L48.7931 6.71216L45.889 24.8716H43.0863L41.6844 15.1165L40.283 24.8716H37.4811L34.5762 6.71216Z" fill="#4D4D4C"/>
<path d="M64.4494 24.8716V13.3062L61.0469 6.71216H63.5081L65.701 11.1434L67.8659 6.71216H70.3568L66.9435 13.3479V24.8716H64.4494Z" fill="#4D4D4C"/>
<path d="M97.8676 19.5475L102.058 24.8743H99.1224L95.8432 20.4636V24.8743H93.4375V6.71525C93.4375 6.71525 95.2777 6.6504 95.9274 6.73034C97.8224 6.96251 101.433 8.78206 101.702 13.0753C101.991 17.6854 97.8676 19.5475 97.8676 19.5475ZM95.9276 17.678C95.9276 17.678 99.5782 16.9243 99.3716 13.1502C99.1922 9.87531 95.9276 9.23131 95.9276 9.23131V17.678Z" fill="#4D4D4C"/>
<path d="M112.168 10.3545L115.431 6.71387H112.329L109.579 9.78537V6.71387H107.1V24.8715H109.579V13.2426L110.243 12.503L112.863 24.8715H115.578L112.168 10.3545Z" fill="#4D4D4C"/>
<path d="M80.4339 6.56714C76.0318 6.56714 72.4648 10.7019 72.4648 15.8046C72.4648 20.9027 76.0316 25.0383 80.4339 25.0383C84.8347 25.0383 88.4034 20.9027 88.4034 15.8046C88.4034 10.7019 84.8343 6.56714 80.4339 6.56714ZM80.4339 22.8175C77.3304 22.8175 74.8125 19.4013 74.8125 15.8048C74.8125 12.2058 77.3304 8.78813 80.4339 8.78813C83.5388 8.78813 86.0557 12.2058 86.0557 15.8048C86.0553 19.4015 83.5384 22.8175 80.4339 22.8175Z" fill="#4D4D4C"/>
<path d="M4.48693 16.8961H0.564453V19.3908H4.48693V16.8961Z" fill="#4D4D4C"/>
<path d="M122.953 16.8961H119.031V19.3908H122.953V16.8961Z" fill="#4D4D4C"/>
</g>
<defs>
<clipPath id="clip0_1518_26881">
<rect width="122.388" height="40" fill="white" transform="translate(0.564453)"/>
</clipPath>
</defs>
</svg>
