<svg width="128" height="40" viewBox="0 0 128 40" fill="none" xmlns="http://www.w3.org/2000/svg">
<path d="M37.5086 34.1365C36.8943 34.1365 36.4028 33.9519 36.0342 33.5211C35.6656 33.1519 35.4199 32.5981 35.4199 32.0442C35.4199 31.4904 35.6042 30.9365 36.0342 30.5673C36.4028 30.1365 36.8943 29.9519 37.5086 29.9519C38.1229 29.9519 38.6144 30.1981 38.983 30.6288L38.6144 30.9981C38.3072 30.6288 37.9386 30.5057 37.5086 30.5057C37.0786 30.5057 36.71 30.6288 36.4028 30.9365C36.0957 31.2442 35.9728 31.6134 35.9728 32.1057C35.9728 32.5981 36.0957 32.9673 36.4028 33.275C36.71 33.5827 37.0786 33.7057 37.5086 33.7057C38.0001 33.7057 38.3687 33.5211 38.7373 33.0904L39.1058 33.4596C38.9215 33.7057 38.6758 33.8904 38.4301 34.0134C38.1229 34.075 37.8158 34.1365 37.5086 34.1365Z" fill="#4D4D4C"/>
<path d="M44.6364 32.0442C44.6364 32.6596 44.4521 33.1519 44.022 33.5211C43.6534 33.9519 43.162 34.1365 42.5477 34.1365C41.9948 34.1365 41.5033 33.9519 41.0733 33.5211C40.7047 33.1519 40.459 32.5981 40.459 32.0442C40.459 31.4288 40.6433 30.9365 41.0733 30.5673C41.4419 30.1365 41.9334 29.9519 42.5477 29.9519C43.1006 29.9519 43.592 30.1365 44.022 30.5673C44.4521 30.9981 44.6364 31.4904 44.6364 32.0442ZM41.0733 32.0442C41.0733 32.5365 41.1962 32.9057 41.5033 33.2134C41.8105 33.5211 42.1791 33.6442 42.6091 33.6442C43.0391 33.6442 43.4077 33.5211 43.7149 33.2134C44.022 32.9057 44.1449 32.5365 44.1449 32.0442C44.1449 31.5519 44.022 31.1827 43.7149 30.875C43.4077 30.5673 43.0391 30.4442 42.6091 30.4442C42.1791 30.4442 41.8105 30.5673 41.5033 30.875C41.1962 31.2442 41.0733 31.6134 41.0733 32.0442Z" fill="#4D4D4C"/>
<path d="M49.4885 34.075H48.9356L46.9084 30.8134H46.8469L46.9084 31.5519V34.075H46.3555V30.075H47.0312L48.9356 33.1519H48.9971L48.9356 32.4134V30.075H49.4885V34.075Z" fill="#4D4D4C"/>
<path d="M53.2352 34.1365C52.6208 34.1365 52.1294 33.9519 51.7608 33.5211C51.3922 33.1519 51.1465 32.5981 51.1465 32.0442C51.1465 31.4904 51.3308 30.9365 51.7608 30.5673C52.1294 30.1365 52.6208 29.9519 53.2352 29.9519C53.8495 29.9519 54.3409 30.1981 54.7095 30.6288L54.3409 30.9981C54.0338 30.6288 53.6652 30.5057 53.2352 30.5057C52.8051 30.5057 52.4366 30.6288 52.1294 30.9365C51.8222 31.2442 51.6994 31.6134 51.6994 32.1057C51.6994 32.5981 51.8222 32.9673 52.1294 33.275C52.4366 33.5827 52.8051 33.7057 53.2352 33.7057C53.7266 33.7057 54.0952 33.5211 54.4638 33.0904L54.8324 33.4596C54.6481 33.7057 54.4024 33.8904 54.1566 34.0134C53.9109 34.1365 53.5423 34.1365 53.2352 34.1365Z" fill="#4D4D4C"/>
<path d="M58.7037 32.2903H57.0451V33.5826H58.8266V34.075H56.4922V30.075H58.8266V30.5673H57.0451V31.798H58.7037V32.2903Z" fill="#4D4D4C"/>
<path d="M61.1614 32.4134V34.0134H60.6699V30.0134H62.0214C62.39 30.0134 62.6358 30.1365 62.8815 30.3827C63.1272 30.6288 63.2501 30.875 63.2501 31.2442C63.2501 31.6134 63.1272 31.8596 62.8815 32.1057C62.6358 32.3519 62.3286 32.475 62.0214 32.475H61.1614V32.4134ZM61.1614 30.5673V31.9827H62.0214C62.2057 31.9827 62.39 31.9211 62.5129 31.798C62.6358 31.675 62.6972 31.4904 62.6972 31.3057C62.6972 31.1211 62.6358 30.9365 62.5129 30.8134C62.39 30.6904 62.2057 30.6288 62.0214 30.6288H61.1614V30.5673Z" fill="#4D4D4C"/>
<path d="M64.6621 30.075H67.4265V30.5673H66.3208V34.075H65.7679V30.5673H64.6621V30.075Z" fill="#4D4D4C"/>
<path d="M73.9386 31.798V30.075H74.4301V34.075H73.9386V32.2288H71.9114V34.075H71.4199V30.075H71.9114V31.798H73.9386Z" fill="#4D4D4C"/>
<path d="M80.2047 32.0442C80.2047 32.6596 80.0204 33.1519 79.5904 33.5211C79.2218 33.9519 78.7304 34.1365 78.116 34.1365C77.5632 34.1365 77.0717 33.9519 76.6417 33.5211C76.2731 33.1519 76.0273 32.5981 76.0273 32.0442C76.0273 31.4288 76.2116 30.9365 76.6417 30.5673C77.0103 30.1365 77.5017 29.9519 78.116 29.9519C78.6689 29.9519 79.1604 30.1365 79.5904 30.5673C80.0204 30.9981 80.2047 31.4904 80.2047 32.0442ZM76.6417 32.0442C76.6417 32.5365 76.7645 32.9057 77.0717 33.2134C77.3789 33.5211 77.7474 33.6442 78.1775 33.6442C78.6075 33.6442 78.9761 33.5211 79.2833 33.2134C79.5904 32.9057 79.7133 32.5365 79.7133 32.0442C79.7133 31.5519 79.5904 31.1827 79.2833 30.875C78.9761 30.5673 78.6075 30.4442 78.1775 30.4442C77.7474 30.4442 77.3789 30.5673 77.0717 30.875C76.7645 31.2442 76.6417 31.6134 76.6417 32.0442Z" fill="#4D4D4C"/>
<path d="M83.3377 34.1365C82.9076 34.1365 82.539 34.0134 82.2933 33.7057C82.0476 33.398 81.8633 33.0288 81.8633 32.5365V30.0134H82.3547V32.5365C82.3547 32.8442 82.4162 33.1519 82.6005 33.3365C82.7848 33.5211 83.0305 33.6442 83.3377 33.6442C83.6448 33.6442 83.8905 33.5211 84.0748 33.3365C84.2591 33.1519 84.3206 32.9057 84.3206 32.5365V30.0134H84.812V32.5365C84.812 33.0288 84.6892 33.398 84.382 33.7057C84.1363 34.0134 83.8291 34.1365 83.3377 34.1365Z" fill="#4D4D4C"/>
<path d="M89.1132 32.9673C89.1132 33.3365 88.9903 33.5827 88.7446 33.8288C88.4988 34.0134 88.1917 34.1365 87.8231 34.1365C87.5159 34.1365 87.2088 34.0134 86.963 33.8288C86.7173 33.6442 86.533 33.3981 86.4102 33.0288L86.9016 32.8442C86.963 32.9673 86.963 33.0904 87.0245 33.1519C87.0859 33.275 87.1473 33.3365 87.2088 33.3981C87.2702 33.4596 87.3931 33.5211 87.4545 33.5827C87.5774 33.6442 87.6388 33.6442 87.7617 33.6442C88.0074 33.6442 88.1917 33.5827 88.3145 33.4596C88.4374 33.3365 88.5603 33.1519 88.5603 32.9673C88.5603 32.7827 88.4988 32.6596 88.376 32.5365C88.2531 32.4134 88.0688 32.2904 87.7002 32.2288C87.3931 32.1057 87.2088 32.0442 87.0859 31.9827C86.6559 31.7365 86.4716 31.4288 86.4716 30.9981C86.4716 30.6904 86.5944 30.4442 86.8402 30.2596C87.0859 30.075 87.3931 29.9519 87.7002 29.9519C88.0074 29.9519 88.2531 30.0134 88.4988 30.1981C88.7446 30.3211 88.8674 30.5673 88.9289 30.7519L88.4374 30.9365C88.376 30.8134 88.3145 30.6904 88.1917 30.5673C88.0688 30.4442 87.8845 30.4442 87.7002 30.4442C87.5159 30.4442 87.3316 30.5057 87.2088 30.6288C87.0859 30.7519 87.0245 30.875 87.0245 31.0596C87.0245 31.1827 87.0859 31.3057 87.2088 31.4288C87.3316 31.5519 87.5774 31.675 88.0074 31.7981C88.4374 31.9211 88.6831 32.1057 88.8674 32.2904C89.0517 32.475 89.1132 32.7211 89.1132 32.9673Z" fill="#4D4D4C"/>
<path d="M93.0447 32.2903H91.386V33.5826H93.229V34.075H90.8945V30.075H93.229V30.5673H91.386V31.798H93.0447V32.2903Z" fill="#4D4D4C"/>
<path d="M28.601 14.6287H22.335V19.4902H29.2768V21.3979H20.3691V6.01331H29.2768V7.921H22.335V12.7825H28.601V14.6287Z" fill="#4D4D4C"/>
<path d="M45.6806 17.2749C45.6806 18.6288 45.1892 19.6749 44.2063 20.5365C43.2234 21.3365 41.9947 21.7057 40.5818 21.7057C39.2917 21.7057 38.1859 21.3365 37.203 20.598C36.2201 19.8595 35.5444 18.8134 35.1758 17.5826L37.0802 16.7826C37.203 17.2134 37.3873 17.6442 37.6331 18.0134C37.8788 18.3826 38.1245 18.6903 38.4317 18.9365C38.7388 19.1826 39.1074 19.4288 39.476 19.5519C39.8446 19.6749 40.2132 19.798 40.6432 19.798C41.5647 19.798 42.3019 19.5519 42.8548 19.1211C43.4077 18.6288 43.7148 18.0134 43.7148 17.2749C43.7148 16.6595 43.4691 16.1057 43.0391 15.6134C42.609 15.1826 41.749 14.7519 40.5818 14.3211C39.3532 13.8903 38.616 13.5826 38.3088 13.398C36.7116 12.598 35.8515 11.3672 35.8515 9.7057C35.8515 8.59801 36.2816 7.6134 37.203 6.8134C38.1245 6.0134 39.2303 5.64417 40.5818 5.64417C41.749 5.64417 42.7933 5.95186 43.592 6.56724C44.452 7.18263 45.0049 7.85955 45.3121 8.78263L43.4691 9.58263C43.2848 9.02878 42.9776 8.53647 42.4248 8.16724C41.8719 7.79801 41.319 7.6134 40.5818 7.6134C39.7832 7.6134 39.1689 7.79801 38.616 8.22878C38.0631 8.65955 37.8174 9.15186 37.8174 9.76724C37.8174 10.3211 38.0017 10.7519 38.4317 11.1211C38.8617 11.4903 39.906 11.9826 41.3804 12.4749C42.9162 13.0288 44.022 13.6442 44.6977 14.4442C45.3735 15.2442 45.6806 16.1672 45.6806 17.2749Z" fill="#4D4D4C"/>
<path d="M54.2803 6.01331H52.3145V21.3364H54.2803V6.01331Z" fill="#4D4D4C"/>
<path d="M88.9886 14.6287H82.6611V19.4902H89.6644V21.3979H80.6953V6.01331H89.6644V7.921H82.6611V12.7825H88.9886V14.6287Z" fill="#4D4D4C"/>
<path d="M114.729 6.01331H125.233V7.921H120.995V21.3979H119.029V7.921H114.729V6.01331Z" fill="#4D4D4C"/>
<path d="M5.31925 13.3364H8.51371C9.31232 13.3364 9.98807 13.0902 10.541 12.5364C11.0939 11.9825 11.3396 11.3672 11.3396 10.5672C11.3396 9.82869 11.0939 9.21331 10.541 8.721C10.0495 8.16715 9.37375 7.921 8.57514 7.921H5.25781V6.01331H8.51371C9.86521 6.01331 10.971 6.44408 11.8925 7.30561C12.8139 8.16715 13.3054 9.27485 13.3054 10.5672C13.3054 11.6133 12.9368 12.5364 12.2611 13.3979C11.5853 14.1979 10.7253 14.7518 9.61948 14.9979L9.68091 15.0595L13.9812 21.2748V21.3364H11.6467L7.5308 15.121H5.31925V13.3364Z" fill="#4D4D4C"/>
<path d="M5.31934 6.01331H3.35352V21.3364H5.31934V6.01331Z" fill="#4D4D4C"/>
<path d="M63.6172 19.4902H66.3202C68.1017 19.4902 69.5146 18.9979 70.559 17.9518C71.6033 16.9056 72.0948 15.4902 72.0948 13.7056C72.0948 11.921 71.6033 10.5056 70.559 9.45946C69.5146 8.41331 68.1017 7.921 66.3202 7.921H63.6172V6.01331H66.3202C68.6546 6.01331 70.559 6.69023 71.9719 8.10561C73.3849 9.521 74.122 11.3672 74.122 13.6441C74.122 15.921 73.3849 17.7672 71.9719 19.1825C70.559 20.5979 68.6546 21.2748 66.3202 21.2748H63.6172V19.4902Z" fill="#4D4D4C"/>
<path d="M63.6182 6.01331H61.6523V21.3364H63.6182V6.01331Z" fill="#4D4D4C"/>
<path d="M108.402 21.3979H106.314L98.5732 8.84408H98.4504L98.5732 11.7979V17.0287H96.6074V6.01331H99.0033L106.437 17.9518H106.498L106.437 14.9979V6.01331H108.402V21.3979Z" fill="#4D4D4C"/>
<path d="M98.5732 17.0287H96.6074V21.3979H98.5732V17.0287Z" fill="#4D4D4C"/>
</svg>
