<svg width="336" height="107" viewBox="0 0 336 107" fill="none" xmlns="http://www.w3.org/2000/svg">
<g clip-path="url(#clip0_1518_27793)">
<path d="M335.2 56.3H208V75.5H335.2V56.3Z" fill="#0097C8"/>
<path d="M63.2998 63.6V60.9L107 32.5H63.7998V29H114.3V31.6L70.4998 60.1H115.2V63.6H63.2998Z" fill="white"/>
<path d="M156.7 64.5999H142.7C138.8 64.5999 135.4 64.1 132.4 63.2C129.5 62.3 127.1 61 125.4 59.4C123.7 57.8 122.4 55.8999 121.5 53.7999C120.7 51.6999 120.2 49.4 120.2 46.9C120.2 44.4 120.6 42.1 121.5 40C122.3 37.9 123.6 36 125.4 34.4C127.1 32.8 129.5 31.5 132.4 30.6C135.3 29.7 138.7 29.2 142.7 29.2H156.7C160.6 29.2 164 29.7 167 30.6C169.9 31.5 172.3 32.8 174 34.4C175.7 36 177 37.9 177.9 40C178.7 42.1 179.2 44.4 179.2 46.9C179.2 49.4 178.8 51.6999 177.9 53.7999C177.1 55.8999 175.8 57.8 174 59.4C172.3 61 169.9 62.3 167 63.2C164 64.1 160.6 64.5999 156.7 64.5999ZM142.8 61.0999H156.7C163.1 61.0999 167.8 59.8 170.7 57.2C173.6 54.6 175.1 51.0999 175.1 46.7999C175.1 42.4999 173.6 39 170.7 36.4C167.8 33.8 163.1 32.5 156.7 32.5H142.8C136.4 32.5 131.7 33.8 128.8 36.4C125.9 39 124.4 42.4999 124.4 46.7999C124.4 51.0999 125.9 54.6 128.8 57.2C131.7 59.8 136.3 61.0999 142.8 61.0999Z" fill="white"/>
<path d="M197.5 106.5L152.9 76.4V106.5H149.1V71.9H152.8L197.3 102V71.9H201.1V106.4H197.5V106.5Z" fill="white"/>
<path d="M36.4 35.5H22.4C18.5 35.5 15.1 35 12.1 34.1C9.2 33.2 6.8 31.9 5.1 30.3C3.4 28.7 2.1 26.8 1.2 24.7C0.4 22.6 0 20.3 0 17.8C0 15.3 0.4 13 1.3 10.9C2.1 8.8 3.4 6.9 5.2 5.3C6.9 3.7 9.3 2.4 12.2 1.5C15.1 0.5 18.5 0 22.4 0H36.4C40.3 0 43.7 0.5 46.7 1.4C49.6 2.3 52 3.6 53.7 5.2C55.4 6.8 56.7 8.7 57.6 10.8C58.4 12.9 58.9 15.2 58.9 17.7C58.9 20.2 58.5 22.5 57.6 24.6C56.8 26.7 55.5 28.6 53.7 30.2C52 31.8 49.6 33.1 46.7 34C43.7 35.1 40.3 35.5 36.4 35.5ZM22.4 32.1H36.3C42.7 32.1 47.4 30.8 50.3 28.2C53.2 25.6 54.7 22.1 54.7 17.8C54.7 13.5 53.3 10 50.4 7.4C47.5 4.8 42.8 3.5 36.4 3.5H22.4C16 3.5 11.3 4.8 8.4 7.4C5.5 10 4 13.4 4 17.8C4 22.2 5.5 25.6 8.4 28.2C11.4 30.8 16 32.1 22.4 32.1Z" fill="white"/>
<path d="M220 64.6001C219.9 64.1001 219.7 63.7001 219.4 63.4001C219 63.1001 218.6 63.0001 218.1 63.0001C217.9 63.0001 217.6 63.0001 217.3 63.1001C217 63.2001 216.8 63.3001 216.5 63.6001C216.3 63.8001 216.1 64.1001 215.9 64.6001C215.7 65.0001 215.7 65.5001 215.7 66.2001C215.7 66.6001 215.7 66.9001 215.8 67.3001C215.9 67.7001 216 68.0001 216.2 68.3001C216.4 68.6001 216.6 68.8001 216.9 69.0001C217.2 69.2001 217.5 69.3001 218 69.3001C218.6 69.3001 219 69.1001 219.4 68.8001C219.8 68.5001 220 68.0001 220.1 67.3001H222C221.8 68.4001 221.4 69.3001 220.7 69.9001C220 70.5001 219.1 70.8001 218 70.8001C217.3 70.8001 216.7 70.7001 216.2 70.5001C215.7 70.3001 215.2 70.0001 214.9 69.6001C214.5 69.2001 214.3 68.7001 214.1 68.2001C213.9 67.7001 213.8 67.1001 213.8 66.4001C213.8 65.7001 213.9 65.1001 214.1 64.6001C214.3 64.0001 214.5 63.5001 214.9 63.1001C215.3 62.7001 215.7 62.3001 216.2 62.1001C216.7 61.9001 217.4 61.7001 218.1 61.7001C218.6 61.7001 219.1 61.8001 219.5 61.9001C219.9 62.0001 220.4 62.2001 220.7 62.5001C221 62.8001 221.3 63.1001 221.6 63.5001C221.8 63.9001 222 64.4001 222 64.9001H220V64.6001Z" fill="white"/>
<path d="M227.5 70.6C226.8 70.6 226.2 70.5 225.6 70.3C225.1 70.1 224.6 69.8 224.2 69.3C223.8 68.8 223.5 68.4 223.3 67.9C223.1 67.3 223 66.7 223 66.1C223 65.4 223.1 64.8 223.3 64.3C223.5 63.7 223.8 63.3 224.2 62.9C224.6 62.5 225 62.2 225.6 61.9C226.1 61.7 226.8 61.6 227.5 61.6C228.2 61.6 228.8 61.7 229.4 61.9C229.9 62.1 230.4 62.4 230.8 62.9C231.2 63.3 231.5 63.8 231.7 64.3C231.9 64.8 232 65.5 232 66.1C232 66.8 231.9 67.4 231.7 67.9C231.5 68.4 231.2 68.9 230.8 69.3C230.4 69.7 230 70 229.4 70.3C228.8 70.6 228.2 70.6 227.5 70.6ZM227.5 69.1C227.9 69.1 228.3 69 228.6 68.8C228.9 68.6 229.2 68.4 229.4 68.1C229.6 67.8 229.8 67.5 229.8 67.1C229.9 66.7 229.9 66.4 229.9 66C229.9 65.6 229.9 65.3 229.8 64.9C229.7 64.5 229.6 64.2 229.4 63.9C229.2 63.6 228.9 63.4 228.6 63.2C228.3 63 227.9 62.9 227.5 62.9C227.1 62.9 226.7 63 226.4 63.2C226.1 63.4 225.8 63.6 225.6 63.9C225.4 64.2 225.2 64.5 225.2 64.9C225.2 65.3 225 65.6 225 66C225 66.4 225 66.8 225.1 67.1C225.2 67.5 225.3 67.8 225.5 68.1C225.7 68.4 226 68.6 226.3 68.8C226.7 69 227.1 69.1 227.5 69.1Z" fill="white"/>
<path d="M233.499 61.7H235.299V63C235.599 62.5 235.999 62.1 236.399 61.9C236.899 61.6 237.399 61.5 237.999 61.5C238.999 61.5 239.699 61.7 240.299 62.2C240.799 62.7 241.099 63.4 241.099 64.4V70.4H239.199V64.9C239.199 64.2 238.999 63.7 238.799 63.4C238.499 63.1 238.099 62.9 237.499 62.9C237.199 62.9 236.899 63 236.599 63.1C236.299 63.2 236.099 63.4 235.899 63.6C235.699 63.8 235.599 64.1 235.499 64.3C235.399 64.5 235.299 64.9 235.299 65.2V70.3H233.399V61.7H233.499Z" fill="white"/>
<path d="M249 64.6001C248.9 64.1001 248.7 63.7001 248.4 63.4001C248 63.1001 247.6 63.0001 247.1 63.0001C246.9 63.0001 246.6 63.0001 246.3 63.1001C246 63.2001 245.8 63.3001 245.5 63.6001C245.3 63.8001 245.1 64.1001 244.9 64.6001C244.7 65.0001 244.7 65.5001 244.7 66.2001C244.7 66.6001 244.7 66.9001 244.8 67.3001C244.9 67.7001 245 68.0001 245.2 68.3001C245.4 68.6001 245.6 68.8001 245.9 69.0001C246.2 69.2001 246.5 69.3001 247 69.3001C247.6 69.3001 248 69.1001 248.4 68.8001C248.8 68.5001 249 68.0001 249.1 67.3001H251C250.8 68.4001 250.4 69.3001 249.7 69.9001C249 70.5001 248.1 70.8001 247 70.8001C246.3 70.8001 245.7 70.7001 245.2 70.5001C244.7 70.3001 244.2 70.0001 243.9 69.6001C243.5 69.2001 243.3 68.7001 243.1 68.2001C242.9 67.7001 242.8 67.1001 242.8 66.4001C242.8 65.7001 242.9 65.1001 243.1 64.6001C243.3 64.0001 243.5 63.5001 243.9 63.1001C244.3 62.7001 244.7 62.3001 245.2 62.1001C245.7 61.9001 246.4 61.7001 247.1 61.7001C247.6 61.7001 248.1 61.8001 248.5 61.9001C248.9 62.0001 249.4 62.2001 249.7 62.5001C250 62.8001 250.3 63.1001 250.6 63.5001C250.8 63.9001 251 64.4001 251 64.9001H249V64.6001Z" fill="white"/>
<path d="M254 66.5C254 66.8 254 67.2 254.1 67.5C254.2 67.8 254.3 68.1 254.5 68.3C254.7 68.5 254.9 68.7 255.2 68.9C255.5 69.1 255.8 69.1 256.2 69.1C256.8 69.1 257.2 69 257.6 68.7C257.9 68.5 258.2 68.1 258.4 67.6H260.2C260.1 68.1 259.9 68.5 259.7 68.9C259.5 69.3 259.2 69.6 258.8 69.8C258.5 70.1 258.1 70.2 257.6 70.4C257.1 70.6 256.7 70.6 256.2 70.6C255.5 70.6 254.9 70.5 254.4 70.3C253.9 70.1 253.4 69.8 253.1 69.4C252.7 69 252.5 68.5 252.3 68C252.1 67.5 252 66.8 252 66.2C252 65.6 252.1 65 252.3 64.4C252.5 63.8 252.8 63.4 253.1 62.9C253.5 62.5 253.9 62.1 254.4 61.9C254.9 61.7 255.5 61.5 256.1 61.5C256.8 61.5 257.4 61.6 257.9 61.9C258.4 62.2 258.9 62.6 259.3 63C259.7 63.4 259.9 64 260.1 64.6C260.3 65.2 260.3 65.8 260.2 66.5H254ZM258.5 65.3C258.5 65 258.4 64.7 258.3 64.4C258.2 64.1 258 63.9 257.9 63.7C257.7 63.5 257.5 63.3 257.2 63.2C256.9 63.1 256.6 63 256.3 63C256 63 255.7 63.1 255.4 63.2C255.1 63.3 254.9 63.5 254.7 63.7C254.5 63.9 254.3 64.2 254.2 64.4C254.1 64.6 254 65 254 65.3H258.5Z" fill="white"/>
<path d="M261.899 61.7H263.699V62.9C263.999 62.4 264.299 62 264.799 61.8C265.299 61.6 265.799 61.5 266.399 61.5C267.099 61.5 267.699 61.6 268.199 61.9C268.699 62.1 269.099 62.5 269.499 62.9C269.799 63.3 270.099 63.8 270.299 64.4C270.499 65 270.599 65.6 270.599 66.2C270.599 66.8 270.499 67.3 270.399 67.9C270.199 68.4 269.999 68.9 269.699 69.4C269.399 69.8 268.999 70.2 268.499 70.4C267.999 70.7 267.499 70.8 266.799 70.8C266.499 70.8 266.199 70.8 265.999 70.7C265.699 70.6 265.499 70.6 265.199 70.5C264.899 70.4 264.699 70.2 264.499 70.1C264.299 69.9 264.099 69.7 263.999 69.5V73.8H262.099V61.7H261.899ZM268.599 66C268.599 65.6 268.499 65.2 268.399 64.9C268.299 64.6 268.099 64.2 267.899 63.9C267.699 63.6 267.399 63.4 267.099 63.2C266.799 63 266.399 62.9 266.099 62.9C265.299 62.9 264.699 63.2 264.299 63.7C263.899 64.3 263.699 65 263.699 65.9C263.699 66.3 263.799 66.7 263.899 67.1C263.999 67.5 264.199 67.8 264.399 68.1C264.599 68.4 264.899 68.6 265.199 68.7C265.499 68.9 265.799 68.9 266.199 68.9C266.599 68.9 266.999 68.8 267.299 68.6C267.599 68.4 267.899 68.2 267.999 67.9C268.199 67.6 268.299 67.3 268.399 66.9C268.599 66.8 268.599 66.4 268.599 66Z" fill="white"/>
<path d="M271.3 61.7H272.7V59.1H274.6V61.7H276.3V63.1H274.6V67.7C274.6 67.9 274.6 68.1 274.6 68.2C274.6 68.3 274.7 68.5 274.7 68.6C274.8 68.7 274.9 68.8 275 68.8C275.1 68.8 275.3 68.9 275.5 68.9C275.6 68.9 275.8 68.9 275.9 68.9C276 68.9 276.2 68.9 276.3 68.8V70.3C276.1 70.3 275.9 70.3 275.7 70.4C275.5 70.4 275.3 70.4 275.1 70.4C274.6 70.4 274.2 70.4 273.9 70.3C273.6 70.2 273.4 70.1 273.2 69.9C273 69.7 272.9 69.5 272.8 69.2C272.7 68.9 272.7 68.6 272.7 68.2V63.1H271.3V61.7V61.7Z" fill="white"/>
<path d="M282.399 58.4H284.299V62.9C284.499 62.5 284.899 62.2 285.399 61.9C285.899 61.6 286.399 61.5 286.999 61.5C287.999 61.5 288.699 61.7 289.299 62.2C289.799 62.7 290.099 63.4 290.099 64.4V70.4H288.199V64.9C288.199 64.2 287.999 63.7 287.799 63.4C287.499 63.1 287.099 62.9 286.499 62.9C286.199 62.9 285.899 63 285.599 63.1C285.299 63.2 285.099 63.4 284.899 63.6C284.699 63.8 284.599 64.1 284.499 64.3C284.399 64.5 284.299 64.9 284.299 65.2V70.3H282.399V58.4V58.4Z" fill="white"/>
<path d="M296 70.6C295.3 70.6 294.7 70.5 294.1 70.3C293.6 70.1 293.1 69.8 292.7 69.3C292.3 68.8 292 68.4 291.8 67.9C291.6 67.3 291.5 66.7 291.5 66.1C291.5 65.4 291.6 64.8 291.8 64.3C292 63.7 292.3 63.3 292.7 62.9C293.1 62.5 293.5 62.2 294.1 61.9C294.6 61.7 295.3 61.6 296 61.6C296.7 61.6 297.3 61.7 297.9 61.9C298.4 62.1 298.9 62.4 299.3 62.9C299.7 63.3 300 63.8 300.2 64.3C300.4 64.8 300.5 65.5 300.5 66.1C300.5 66.8 300.4 67.4 300.2 67.9C300 68.4 299.7 68.9 299.3 69.3C298.9 69.7 298.5 70 297.9 70.3C297.3 70.6 296.7 70.6 296 70.6ZM296 69.1C296.4 69.1 296.8 69 297.1 68.8C297.4 68.6 297.7 68.4 297.9 68.1C298.1 67.8 298.3 67.5 298.3 67.1C298.4 66.7 298.4 66.4 298.4 66C298.4 65.6 298.4 65.3 298.3 64.9C298.2 64.5 298.1 64.2 297.9 63.9C297.7 63.6 297.4 63.4 297.1 63.2C296.8 63 296.4 62.9 296 62.9C295.6 62.9 295.2 63 294.9 63.2C294.6 63.4 294.3 63.6 294.1 63.9C293.9 64.2 293.7 64.5 293.7 64.9C293.7 65.3 293.6 65.6 293.6 66C293.6 66.4 293.6 66.8 293.7 67.1C293.8 67.5 293.9 67.8 294.1 68.1C294.3 68.4 294.6 68.6 294.9 68.8C295.2 69 295.6 69.1 296 69.1Z" fill="white"/>
<path d="M309.7 70.4001H307.8V69.2C307.6 69.6 307.2 70.0001 306.7 70.3001C306.2 70.6001 305.8 70.7 305.3 70.7C304.2 70.7 303.3 70.4001 302.8 69.9001C302.3 69.3001 302 68.5001 302 67.3001V61.8H303.9V67C303.9 67.8 304 68.3 304.3 68.6C304.6 68.9 305 69.1 305.5 69.1C305.9 69.1 306.2 69.0001 306.5 68.9001C306.8 68.8001 307 68.6001 307.2 68.4001C307.4 68.2001 307.5 67.9 307.6 67.7C307.7 67.4 307.7 67.1001 307.7 66.8001V61.8H309.6V70.4001H309.7Z" fill="white"/>
<path d="M313.099 67.6C313.199 68.2 313.399 68.6 313.699 68.8C314.099 69 314.499 69.1 314.999 69.1C315.199 69.1 315.399 69.1 315.599 69.1C315.799 69.1 315.999 69 316.199 68.9C316.399 68.8 316.599 68.7 316.699 68.6C316.799 68.4 316.899 68.3 316.899 68C316.899 67.8 316.799 67.6 316.599 67.4C316.399 67.2 316.199 67.1 315.999 67C315.699 66.9 315.399 66.8 315.099 66.8C314.799 66.7 314.399 66.7 314.099 66.6C313.699 66.5 313.399 66.4 313.099 66.3C312.799 66.2 312.499 66 312.199 65.8C311.899 65.6 311.699 65.4 311.599 65.1C311.399 64.8 311.399 64.4 311.399 64C311.399 63.5 311.499 63.1 311.699 62.8C311.899 62.5 312.199 62.2 312.599 62C312.999 61.8 313.299 61.7 313.799 61.6C314.199 61.5 314.599 61.5 314.999 61.5C315.399 61.5 315.899 61.5 316.299 61.6C316.699 61.7 317.099 61.8 317.399 62.1C317.699 62.3 317.999 62.6 318.199 62.9C318.399 63.2 318.599 63.7 318.599 64.1H316.599C316.499 63.6 316.299 63.3 315.999 63.2C315.699 63 315.299 63 314.899 63C314.799 63 314.599 63 314.399 63C314.199 63 313.999 63.1 313.899 63.1C313.699 63.2 313.599 63.3 313.499 63.4C313.399 63.5 313.299 63.7 313.299 63.9C313.299 64.1 313.399 64.3 313.499 64.5C313.699 64.6 313.899 64.8 314.099 64.9C314.399 65 314.699 65.1 314.999 65.1C315.299 65.2 315.699 65.2 315.999 65.3C316.299 65.4 316.699 65.5 316.999 65.6C317.299 65.7 317.599 65.9 317.899 66.1C318.199 66.3 318.399 66.5 318.499 66.8C318.699 67.1 318.699 67.5 318.699 67.9C318.699 68.4 318.599 68.9 318.299 69.2C318.099 69.6 317.799 69.9 317.399 70.1C316.999 70.3 316.599 70.5 316.099 70.6C315.599 70.7 315.199 70.8 314.699 70.8C314.199 70.8 313.599 70.7 313.199 70.6C312.699 70.5 312.299 70.3 311.999 70C311.699 69.7 311.399 69.4 311.199 69.1C310.999 68.7 310.899 68.3 310.899 67.8H313.099V67.6Z" fill="white"/>
<path d="M321.9 66.5C321.9 66.8 321.9 67.2 322 67.5C322.1 67.8 322.2 68.1001 322.4 68.3001C322.6 68.5001 322.8 68.7001 323.1 68.9001C323.4 69.1001 323.7 69.1 324.1 69.1C324.7 69.1 325.1 69 325.5 68.7C325.8 68.5 326.1 68.1 326.3 67.6H328.1C328 68.1 327.8 68.5001 327.6 68.9001C327.4 69.3001 327.1 69.6001 326.7 69.8001C326.4 70.1001 326 70.2001 325.5 70.4001C325 70.6001 324.6 70.6 324.1 70.6C323.4 70.6 322.8 70.5001 322.3 70.3001C321.8 70.1001 321.3 69.8001 321 69.4001C320.6 69.0001 320.4 68.5 320.2 68C320 67.5 320 66.7 320 66C320 65.4 320.1 64.8 320.3 64.2C320.5 63.6 320.8 63.2001 321.1 62.7001C321.5 62.3001 321.9 61.9001 322.4 61.7001C322.9 61.5001 323.5 61.3 324.1 61.3C324.8 61.3 325.4 61.4001 325.9 61.7001C326.4 62.0001 326.9 62.4 327.3 62.8C327.7 63.2 327.9 63.8001 328.1 64.4001C328.3 65.0001 328.3 65.6001 328.2 66.3001H321.9V66.5ZM326.4 65.3001C326.4 65.0001 326.3 64.7001 326.2 64.4001C326.1 64.1001 325.9 63.9001 325.8 63.7001C325.6 63.5001 325.4 63.3001 325.1 63.2001C324.8 63.1001 324.5 63 324.2 63C323.9 63 323.6 63.1001 323.3 63.2001C323 63.3001 322.8 63.5001 322.6 63.7001C322.4 63.9001 322.2 64.2001 322.1 64.4001C322 64.6001 321.9 65.0001 321.9 65.3001H326.4Z" fill="white"/>
</g>
<defs>
<clipPath id="clip0_1518_27793">
<rect width="335.2" height="106.5" fill="white"/>
</clipPath>
</defs>
</svg>
