<svg width="200" height="61" viewBox="0 0 200 61" fill="none" xmlns="http://www.w3.org/2000/svg">
<path d="M200 21.8813H99.2871V36.9936H200V21.8813Z" fill="#0097C8"/>
<path d="M28.8203 27.9419H17.7355C14.6477 27.9419 11.9557 27.5484 9.58036 26.84C7.28424 26.1316 5.38401 25.1084 4.038 23.849C2.692 22.5897 1.66271 21.0942 0.950119 19.4413C0.316706 17.7884 0 15.9781 0 14.0103C0 12.0426 0.316706 10.2323 1.0293 8.57936C1.66271 6.92645 2.692 5.43097 4.11718 4.17161C5.46318 2.91226 7.36342 1.88903 9.65954 1.18065C11.9557 0.393548 14.6477 0 17.7355 0H28.8203C31.9082 0 34.6002 0.393548 36.9755 1.10194C39.2716 1.81032 41.1718 2.83355 42.5178 4.0929C43.8638 5.35226 44.8931 6.84774 45.6057 8.50065C46.2391 10.1535 46.635 11.9639 46.635 13.9316C46.635 15.8994 46.3183 17.7097 45.6057 19.3626C44.9723 21.0155 43.943 22.511 42.5178 23.7703C41.1718 25.0297 39.2716 26.0529 36.9755 26.7613C34.6002 27.6271 31.9082 27.9419 28.8203 27.9419ZM17.7355 25.2658H28.7411C33.8084 25.2658 37.5297 24.2426 39.8258 22.1961C42.1219 20.1497 43.3096 17.3948 43.3096 14.0103C43.3096 10.6258 42.2011 7.87097 39.905 5.82452C37.6089 3.77806 33.8876 2.75484 28.8203 2.75484H17.7355C12.6682 2.75484 8.94695 3.77806 6.65083 5.82452C4.35471 7.87097 3.16706 10.5471 3.16706 14.0103C3.16706 17.4735 4.35471 20.1497 6.65083 22.1961C9.02613 24.2426 12.6682 25.2658 17.7355 25.2658Z" fill="#233F69"/>
<path d="M52.4941 27.5484V25.4232L87.0943 3.06968H52.89V0.393555H92.8742V2.44001L58.1949 24.8723H93.5868V27.5484H52.4941Z" fill="#233F69"/>
<path d="M28.8203 61H17.7355C14.6477 61 11.9557 60.6065 9.58036 59.8981C7.28424 59.1897 5.38401 58.1665 4.038 56.9071C2.692 55.6478 1.66271 54.1523 0.950119 52.4994C0.316706 50.8465 0 49.0362 0 46.9897C0 45.022 0.316706 43.2117 1.0293 41.5587C1.66271 39.9058 2.692 38.4104 4.11718 37.151C5.46318 35.8917 7.36342 34.8684 9.65954 34.16C11.9557 33.4517 14.6477 33.0581 17.8147 33.0581H28.8994C31.9873 33.0581 34.6793 33.4517 37.0546 34.16C39.3507 34.8684 41.251 35.8917 42.597 37.151C43.943 38.4104 44.9723 39.9058 45.6849 41.5587C46.3183 43.2117 46.7142 45.022 46.7142 46.9897C46.7142 48.9575 46.3975 50.7678 45.6849 52.4207C45.0515 54.0736 44.0222 55.5691 42.597 56.8284C41.251 58.0878 39.3507 59.111 37.0546 59.8194C34.6002 60.6065 31.9082 61 28.8203 61ZM17.7355 58.2452H28.7411C33.8084 58.2452 37.5297 57.222 39.8258 55.1755C42.1219 53.1291 43.3096 50.3742 43.3096 46.9897C43.3096 43.6052 42.1219 40.8504 39.8258 38.8039C37.5297 36.7575 33.8084 35.7342 28.7411 35.7342H17.7355C12.6683 35.7342 8.94695 36.7575 6.65083 38.8039C4.35471 40.9291 3.16706 43.6052 3.16706 46.9897C3.16706 50.3742 4.35471 53.1291 6.65083 55.1755C9.02613 57.222 12.6683 58.2452 17.7355 58.2452Z" fill="#233F69"/>
<path d="M91.2111 60.6065L55.8984 36.9149V60.6065H52.8896V33.4517H55.8192L91.0527 57.0646V33.4517H94.0615V60.6065H91.2111Z" fill="#233F69"/>
<path d="M108.868 28.9651C108.789 28.5715 108.63 28.2567 108.393 28.0206C108.076 27.7844 107.759 27.7057 107.364 27.7057C107.205 27.7057 106.968 27.7057 106.73 27.7844C106.493 27.8631 106.334 27.9418 106.097 28.178C105.938 28.3354 105.78 28.5715 105.622 28.9651C105.463 29.2799 105.463 29.6735 105.463 30.2244C105.463 30.5393 105.463 30.7754 105.543 31.0902C105.622 31.4051 105.701 31.6412 105.859 31.8773C106.018 32.1135 106.176 32.2709 106.413 32.4283C106.651 32.5857 106.889 32.6644 107.284 32.6644C107.759 32.6644 108.076 32.507 108.393 32.2709C108.71 32.0347 108.868 31.6412 108.947 31.0902H110.451C110.293 31.956 109.976 32.6644 109.422 33.1367C108.868 33.6089 108.155 33.8451 107.284 33.8451C106.73 33.8451 106.255 33.7664 105.859 33.6089C105.463 33.4515 105.067 33.2154 104.83 32.9006C104.513 32.5857 104.355 32.1922 104.197 31.7986C104.038 31.4051 103.959 30.9328 103.959 30.3818C103.959 29.8309 104.038 29.3586 104.197 28.9651C104.355 28.4928 104.513 28.0993 104.83 27.7844C105.147 27.4696 105.463 27.1548 105.859 26.9973C106.255 26.8399 106.809 26.6825 107.364 26.6825C107.759 26.6825 108.155 26.7612 108.472 26.8399C108.789 26.9186 109.185 27.076 109.422 27.3122C109.66 27.5483 109.897 27.7844 110.135 28.0993C110.293 28.4141 110.451 28.8077 110.451 29.2012H108.868V28.9651Z" fill="white"/>
<path d="M114.806 33.6876C114.252 33.6876 113.777 33.6089 113.302 33.4515C112.906 33.2941 112.51 33.058 112.193 32.6644C111.877 32.2709 111.639 31.956 111.481 31.5625C111.322 31.0902 111.243 30.618 111.243 30.1457C111.243 29.5947 111.322 29.1225 111.481 28.7289C111.639 28.2567 111.877 27.9418 112.193 27.627C112.51 27.3121 112.827 27.076 113.302 26.8399C113.698 26.6825 114.252 26.6038 114.806 26.6038C115.36 26.6038 115.835 26.6825 116.31 26.8399C116.706 26.9973 117.102 27.2334 117.419 27.627C117.736 27.9418 117.973 28.3354 118.132 28.7289C118.29 29.1225 118.369 29.6734 118.369 30.1457C118.369 30.6967 118.29 31.1689 118.132 31.5625C117.973 31.956 117.736 32.3496 117.419 32.6644C117.102 32.9792 116.786 33.2154 116.31 33.4515C115.835 33.6876 115.36 33.6876 114.806 33.6876ZM114.806 32.507C115.123 32.507 115.44 32.4283 115.677 32.2709C115.915 32.1134 116.152 31.956 116.31 31.7199C116.469 31.4838 116.627 31.2476 116.627 30.9328C116.706 30.618 116.706 30.3818 116.706 30.067C116.706 29.7521 116.706 29.516 116.627 29.2012C116.548 28.8863 116.469 28.6502 116.31 28.4141C116.152 28.178 115.915 28.0205 115.677 27.8631C115.44 27.7057 115.123 27.627 114.806 27.627C114.489 27.627 114.173 27.7057 113.935 27.8631C113.698 28.0205 113.46 28.178 113.302 28.4141C113.143 28.6502 112.985 28.8863 112.985 29.2012C112.985 29.516 112.906 29.7521 112.906 30.067C112.906 30.3818 112.906 30.6967 112.985 30.9328C113.064 31.1689 113.143 31.4838 113.302 31.7199C113.46 31.956 113.698 32.1134 113.935 32.2709C114.173 32.4283 114.489 32.507 114.806 32.507Z" fill="white"/>
<path d="M119.557 26.6824H120.982V27.7057C121.219 27.3121 121.536 26.9973 121.853 26.8399C122.249 26.6037 122.645 26.525 123.12 26.525C123.911 26.525 124.466 26.6824 124.941 27.076C125.337 27.4695 125.574 28.0205 125.574 28.8076V33.5302H124.07V29.2012C124.07 28.6502 123.911 28.2566 123.753 28.0205C123.515 27.7844 123.199 27.627 122.724 27.627C122.486 27.627 122.249 27.7057 122.011 27.7844C121.774 27.8631 121.615 28.0205 121.457 28.1779C121.299 28.3353 121.219 28.5715 121.14 28.7289C121.061 28.8863 120.982 29.2012 120.982 29.4373V33.4515H119.557V26.6824Z" fill="white"/>
<path d="M131.829 28.9651C131.75 28.5715 131.591 28.2567 131.354 28.0206C131.037 27.7844 130.72 27.7057 130.325 27.7057C130.166 27.7057 129.929 27.7057 129.691 27.7844C129.454 27.8631 129.295 27.9418 129.058 28.178C128.899 28.3354 128.741 28.5715 128.583 28.9651C128.424 29.2799 128.424 29.6735 128.424 30.2244C128.424 30.5393 128.424 30.7754 128.503 31.0902C128.583 31.4051 128.662 31.6412 128.82 31.8773C128.979 32.1135 129.137 32.2709 129.374 32.4283C129.612 32.5857 129.849 32.6644 130.245 32.6644C130.72 32.6644 131.037 32.507 131.354 32.2709C131.67 32.0347 131.829 31.6412 131.908 31.0902H133.412C133.254 31.956 132.937 32.6644 132.383 33.1367C131.829 33.6089 131.116 33.8451 130.245 33.8451C129.691 33.8451 129.216 33.7664 128.82 33.6089C128.424 33.4515 128.028 33.2154 127.791 32.9006C127.474 32.5857 127.316 32.1922 127.157 31.7986C126.999 31.4051 126.92 30.9328 126.92 30.3818C126.92 29.8309 126.999 29.3586 127.157 28.9651C127.316 28.4928 127.474 28.0993 127.791 27.7844C128.108 27.4696 128.424 27.1548 128.82 26.9973C129.216 26.8399 129.77 26.6825 130.325 26.6825C130.72 26.6825 131.116 26.7612 131.433 26.8399C131.75 26.9186 132.146 27.076 132.383 27.3122C132.621 27.5483 132.858 27.7844 133.096 28.0993C133.254 28.4141 133.412 28.8077 133.412 29.2012H131.829V28.9651Z" fill="white"/>
<path d="M135.789 30.4605C135.789 30.6966 135.789 31.0115 135.868 31.2476C135.947 31.4837 136.026 31.7199 136.184 31.8773C136.343 32.0347 136.501 32.1921 136.739 32.3495C136.976 32.507 137.214 32.507 137.53 32.507C138.006 32.507 138.322 32.4283 138.639 32.1921C138.877 32.0347 139.114 31.7199 139.272 31.3263H140.698C140.618 31.7199 140.46 32.0347 140.302 32.3495C140.143 32.6644 139.906 32.9005 139.589 33.0579C139.352 33.2941 139.035 33.3728 138.639 33.5302C138.243 33.6876 137.926 33.6876 137.53 33.6876C136.976 33.6876 136.501 33.6089 136.105 33.4515C135.709 33.2941 135.314 33.0579 135.076 32.7431C134.759 32.4283 134.601 32.0347 134.443 31.6412C134.284 31.2476 134.205 30.6966 134.205 30.2244C134.205 29.7521 134.284 29.2799 134.443 28.8076C134.601 28.3353 134.838 28.0205 135.076 27.627C135.393 27.3121 135.709 26.9973 136.105 26.8399C136.501 26.6824 136.976 26.525 137.451 26.525C138.006 26.525 138.481 26.6037 138.876 26.8399C139.272 27.076 139.668 27.3908 139.985 27.7057C140.302 28.0205 140.46 28.4928 140.618 28.965C140.777 29.4373 140.777 29.9095 140.698 30.4605H135.789ZM139.272 29.516C139.272 29.2799 139.193 29.0437 139.114 28.8076C139.035 28.5715 138.877 28.4141 138.797 28.2566C138.639 28.0992 138.481 27.9418 138.243 27.8631C138.006 27.7844 137.768 27.7057 137.53 27.7057C137.293 27.7057 137.055 27.7844 136.818 27.8631C136.58 27.9418 136.422 28.0992 136.264 28.2566C136.105 28.4141 135.947 28.6502 135.868 28.8076C135.789 28.965 135.709 29.2799 135.709 29.516H139.272Z" fill="white"/>
<path d="M142.043 26.6824H143.468V27.627C143.706 27.2334 143.943 26.9186 144.339 26.7612C144.735 26.6037 145.131 26.525 145.606 26.525C146.16 26.525 146.635 26.6037 147.031 26.8399C147.427 26.9973 147.744 27.3121 148.06 27.627C148.298 27.9418 148.535 28.3353 148.694 28.8076C148.852 29.2799 148.931 29.7521 148.931 30.2244C148.931 30.6966 148.852 31.0902 148.773 31.5624C148.615 31.956 148.456 32.3495 148.219 32.7431C147.981 33.0579 147.665 33.3728 147.269 33.5302C146.873 33.7663 146.477 33.845 145.923 33.845C145.685 33.845 145.448 33.845 145.289 33.7663C145.052 33.6876 144.893 33.6876 144.656 33.6089C144.418 33.5302 144.26 33.3728 144.102 33.2941C143.943 33.1366 143.785 32.9792 143.706 32.8218V36.2063H142.201V26.6824H142.043ZM147.348 30.067C147.348 29.7521 147.269 29.4373 147.189 29.2012C147.11 28.965 146.952 28.6502 146.794 28.4141C146.635 28.1779 146.398 28.0205 146.16 27.8631C145.923 27.7057 145.606 27.627 145.368 27.627C144.735 27.627 144.26 27.8631 143.943 28.2566C143.627 28.7289 143.468 29.2799 143.468 29.9882C143.468 30.3031 143.547 30.6179 143.626 30.9328C143.706 31.2476 143.864 31.4837 144.022 31.7199C144.181 31.956 144.418 32.1134 144.656 32.1921C144.893 32.3495 145.131 32.3495 145.448 32.3495C145.764 32.3495 146.081 32.2708 146.319 32.1134C146.556 31.956 146.794 31.7986 146.873 31.5624C147.031 31.3263 147.11 31.0902 147.189 30.7753C147.269 30.6966 147.348 30.3818 147.348 30.067Z" fill="white"/>
<path d="M149.406 26.6824H150.515V24.636H152.019V26.6824H153.365V27.7844H152.019V31.4837C152.019 31.6411 152.019 31.7986 152.019 31.8773C152.019 31.956 152.098 32.1134 152.098 32.1921C152.177 32.2708 152.257 32.3495 152.336 32.3495C152.415 32.3495 152.573 32.4282 152.732 32.4282C152.811 32.4282 152.969 32.4282 153.048 32.4282C153.128 32.4282 153.286 32.4282 153.365 32.3495V33.5302C153.207 33.5302 153.048 33.5302 152.89 33.6089C152.732 33.6089 152.573 33.6089 152.415 33.6089C152.019 33.6089 151.702 33.6089 151.465 33.5302C151.227 33.4515 151.069 33.3728 150.911 33.2153C150.752 33.0579 150.673 32.9005 150.594 32.6644C150.515 32.4282 150.515 32.1921 150.515 31.8773V27.8631H149.406V26.6824Z" fill="white"/>
<path d="M158.274 24.0851H159.779V27.5483C159.937 27.2335 160.254 26.9973 160.65 26.7612C161.046 26.5251 161.441 26.4464 161.917 26.4464C162.708 26.4464 163.263 26.6038 163.738 26.9973C164.133 27.3909 164.371 27.9419 164.371 28.729V33.4515H162.867V29.1225C162.867 28.5715 162.708 28.178 162.55 27.9419C162.312 27.7057 161.996 27.5483 161.521 27.5483C161.283 27.5483 161.046 27.627 160.808 27.7057C160.571 27.7844 160.412 27.9419 160.254 28.0993C160.095 28.2567 160.016 28.4928 159.937 28.6502C159.858 28.8077 159.779 29.1225 159.779 29.3586V33.3728H158.274V24.0851Z" fill="white"/>
<path d="M169.042 33.6876C168.488 33.6876 168.013 33.6089 167.538 33.4515C167.142 33.2941 166.746 33.058 166.43 32.6644C166.113 32.2709 165.875 31.956 165.717 31.5625C165.559 31.0902 165.479 30.618 165.479 30.1457C165.479 29.5947 165.559 29.1225 165.717 28.7289C165.875 28.2567 166.113 27.9418 166.43 27.627C166.746 27.3121 167.063 27.076 167.538 26.8399C167.934 26.6825 168.488 26.6038 169.042 26.6038C169.597 26.6038 170.072 26.6825 170.547 26.8399C170.943 26.9973 171.339 27.2334 171.655 27.627C171.972 27.9418 172.209 28.3354 172.368 28.7289C172.526 29.1225 172.605 29.6734 172.605 30.1457C172.605 30.6967 172.526 31.1689 172.368 31.5625C172.209 31.956 171.972 32.3496 171.655 32.6644C171.339 32.9792 171.022 33.2154 170.547 33.4515C170.072 33.6876 169.597 33.6876 169.042 33.6876ZM169.042 32.507C169.359 32.507 169.676 32.4283 169.913 32.2709C170.151 32.1134 170.388 31.956 170.547 31.7199C170.705 31.4838 170.863 31.2476 170.863 30.9328C170.943 30.618 170.943 30.3818 170.943 30.067C170.943 29.7521 170.943 29.516 170.863 29.2012C170.784 28.8863 170.705 28.6502 170.547 28.4141C170.388 28.178 170.151 28.0205 169.913 27.8631C169.676 27.7057 169.359 27.627 169.042 27.627C168.726 27.627 168.409 27.7057 168.171 27.8631C167.934 28.0205 167.696 28.178 167.538 28.4141C167.38 28.6502 167.221 28.8863 167.221 29.2012C167.221 29.516 167.142 29.7521 167.142 30.067C167.142 30.3818 167.142 30.6967 167.221 30.9328C167.301 31.1689 167.38 31.4838 167.538 31.7199C167.696 31.956 167.934 32.1134 168.171 32.2709C168.409 32.4283 168.726 32.507 169.042 32.507Z" fill="white"/>
<path d="M179.81 33.5303H178.306V32.5857C178.148 32.9006 177.831 33.2154 177.435 33.4516C177.039 33.6877 176.723 33.7664 176.327 33.7664C175.456 33.7664 174.743 33.5303 174.347 33.1367C173.951 32.6645 173.714 32.0348 173.714 31.0903V26.7612H175.218V30.9328C175.218 31.5625 175.297 31.9561 175.535 32.1922C175.772 32.4283 176.089 32.5857 176.485 32.5857C176.802 32.5857 177.039 32.507 177.277 32.4283C177.514 32.3496 177.673 32.1922 177.831 32.0348C177.989 31.8774 178.069 31.6412 178.148 31.4838C178.227 31.2477 178.227 31.0116 178.227 30.7754V26.8399H179.731V33.5303H179.81Z" fill="white"/>
<path d="M182.582 31.3263C182.661 31.7986 182.819 32.1134 183.057 32.2708C183.373 32.4282 183.69 32.507 184.086 32.507C184.244 32.507 184.403 32.507 184.561 32.507C184.72 32.507 184.878 32.4282 185.036 32.3495C185.195 32.2708 185.353 32.1921 185.432 32.1134C185.511 31.956 185.59 31.8773 185.59 31.6412C185.59 31.4837 185.511 31.3263 185.353 31.1689C185.195 31.0115 185.036 30.9328 184.878 30.8541C184.64 30.7753 184.403 30.6966 184.165 30.6966C183.928 30.6179 183.611 30.6179 183.374 30.5392C183.057 30.4605 182.819 30.3818 182.582 30.3031C182.344 30.2244 182.107 30.067 181.869 29.9095C181.632 29.7521 181.473 29.5947 181.394 29.3586C181.236 29.1224 181.236 28.8076 181.236 28.4928C181.236 28.0992 181.315 27.7844 181.473 27.5482C181.632 27.3121 181.869 27.076 182.186 26.9186C182.503 26.7612 182.74 26.6824 183.136 26.6037C183.453 26.525 183.769 26.525 184.086 26.525C184.403 26.525 184.799 26.525 185.115 26.6037C185.432 26.6824 185.749 26.7612 185.986 26.9973C186.224 27.1547 186.461 27.3908 186.62 27.627C186.778 27.8631 186.936 28.2566 186.936 28.5715H185.353C185.274 28.1779 185.115 27.9418 184.878 27.8631C184.64 27.7057 184.324 27.7057 184.007 27.7057C183.928 27.7057 183.769 27.7057 183.611 27.7057C183.453 27.7057 183.294 27.7844 183.215 27.7844C183.057 27.8631 182.978 27.9418 182.898 28.0205C182.819 28.0992 182.74 28.2566 182.74 28.4141C182.74 28.5715 182.819 28.7289 182.898 28.8863C183.057 28.965 183.215 29.1224 183.374 29.2012C183.611 29.2799 183.849 29.3586 184.086 29.3586C184.324 29.4373 184.64 29.4373 184.878 29.516C185.115 29.5947 185.432 29.6734 185.67 29.7521C185.907 29.8308 186.145 29.9882 186.382 30.1457C186.62 30.3031 186.778 30.4605 186.857 30.6966C187.016 30.9328 187.016 31.2476 187.016 31.5624C187.016 31.956 186.936 32.3495 186.699 32.5857C186.541 32.9005 186.303 33.1366 185.986 33.2941C185.67 33.4515 185.353 33.6089 184.957 33.6876C184.561 33.7663 184.244 33.845 183.849 33.845C183.453 33.845 182.978 33.7663 182.661 33.6876C182.265 33.6089 181.948 33.4515 181.711 33.2153C181.473 32.9792 181.236 32.7431 181.077 32.507C180.919 32.1921 180.84 31.8773 180.84 31.4837H182.582V31.3263Z" fill="white"/>
<path d="M189.549 30.4605C189.549 30.6966 189.549 31.0115 189.629 31.2476C189.708 31.4837 189.787 31.7199 189.945 31.8773C190.104 32.0347 190.262 32.1921 190.499 32.3495C190.737 32.507 190.975 32.507 191.291 32.507C191.766 32.507 192.083 32.4283 192.4 32.1921C192.637 32.0347 192.875 31.7199 193.033 31.3263H194.458C194.379 31.7199 194.221 32.0347 194.062 32.3495C193.904 32.6644 193.667 32.9005 193.35 33.0579C193.112 33.2941 192.796 33.3728 192.4 33.5302C192.004 33.6876 191.687 33.6876 191.291 33.6876C190.737 33.6876 190.262 33.6089 189.866 33.4515C189.47 33.2941 189.074 33.0579 188.837 32.7431C188.52 32.4283 188.362 32.0347 188.203 31.6412C188.045 31.2476 187.966 30.6966 187.966 30.2244C187.966 29.7521 188.045 29.2799 188.203 28.8076C188.362 28.3353 188.599 28.0205 188.837 27.627C189.153 27.3121 189.47 26.9973 189.866 26.8399C190.262 26.6824 190.737 26.525 191.212 26.525C191.766 26.525 192.241 26.6037 192.637 26.8399C193.033 27.076 193.429 27.3908 193.746 27.7057C194.062 28.0205 194.221 28.4928 194.379 28.965C194.537 29.4373 194.537 29.9095 194.458 30.4605H189.549ZM193.033 29.516C193.033 29.2799 192.954 29.0437 192.875 28.8076C192.796 28.5715 192.637 28.4141 192.558 28.2566C192.4 28.0992 192.241 27.9418 192.004 27.8631C191.766 27.7844 191.529 27.7057 191.291 27.7057C191.054 27.7057 190.816 27.7844 190.579 27.8631C190.341 27.9418 190.183 28.0992 190.024 28.2566C189.866 28.4141 189.708 28.6502 189.629 28.8076C189.549 28.965 189.47 29.2799 189.47 29.516H193.033Z" fill="white"/>
</svg>
